<svg width="72" height="20" viewBox="0 0 72 20" fill="none" xmlns="http://www.w3.org/2000/svg">
<path d="M71.9901 3.60771C71.9901 2.12271 70.8201 0.907715 69.3351 0.907715C67.8951 0.907715 66.7026 2.10021 66.7026 3.60771C66.7026 5.09271 67.8726 6.30771 69.3351 6.30771C70.8201 6.33021 71.9901 5.11521 71.9901 3.60771ZM69.3351 5.56521C68.3226 5.56521 67.5351 4.71021 67.5351 3.60771C67.5351 2.52771 68.3226 1.67272 69.3351 1.67272C70.3701 1.67272 71.1801 2.52771 71.1801 3.60771C71.1801 4.71021 70.3701 5.56521 69.3351 5.56521Z" fill="currentColor"/>
<path d="M70.0551 3.83269C70.1901 3.78769 70.4826 3.58519 70.4826 3.15769C70.4826 2.64019 70.1451 2.3252 69.5826 2.3252H68.3901V4.8677H69.1776V4.0127H69.3801L69.7401 4.8677H70.5951L70.1226 3.99019C70.0776 3.85519 70.0551 3.83269 70.0551 3.83269ZM69.3801 3.4727H69.1776V2.86519H69.3801C69.5601 2.86519 69.6501 2.95519 69.6501 3.15769C69.6726 3.36019 69.5601 3.4727 69.3801 3.4727Z" fill="currentColor"/>
<path d="M13.535 5.70039C14.6534 5.70039 15.56 4.79377 15.56 3.67539C15.56 2.55701 14.6534 1.65039 13.535 1.65039C12.4166 1.65039 11.51 2.55701 11.51 3.67539C11.51 4.79377 12.4166 5.70039 13.535 5.70039Z" fill="currentColor"/>
<path d="M15.6501 7.02795H6.38007V6.42045C6.38007 5.22795 7.57257 5.20545 8.18007 5.20545C8.87757 5.20545 9.19257 5.27295 9.19257 5.27295V1.98795C9.19257 1.98795 8.56257 1.89795 7.70757 1.89795C5.77257 1.89795 2.19507 2.43795 2.19507 6.53295V7.05045H0.507568V10.0879H2.19507V16.5004H0.620068V19.5379H8.22507V16.5004H6.38007V10.0879H11.4426V16.5004H9.86757V19.5379H17.2251V16.5004H15.6501V7.02795ZM31.4001 7.02795H24.7626V10.0654H25.8876L24.4476 14.5654C24.1776 15.3079 24.1101 16.2079 24.1101 16.2079H24.0201C24.0201 16.2079 23.9526 15.3079 23.6826 14.5654L22.2426 10.0654H23.3676V7.02795H16.7301V10.0654H18.1251L21.5901 19.5154H26.5401L30.0051 10.0654H31.4001V7.02795ZM43.6851 12.7654C43.6851 9.30045 41.5926 6.73545 37.8801 6.73545C33.8526 6.73545 31.3776 9.59295 31.3776 13.2604C31.3776 16.5904 33.7851 19.8079 38.2401 19.8079C41.6151 19.8079 43.6176 18.0529 43.6176 18.0529L42.0876 15.1504C42.0876 15.1504 40.4226 16.3429 38.5776 16.3429C37.2501 16.3429 35.9901 15.6454 35.6751 14.0479H43.5951C43.5726 14.0254 43.6851 13.1704 43.6851 12.7654ZM35.7651 11.7304C35.9901 10.7629 36.5751 9.88545 37.7676 9.88545C38.6901 9.88545 39.3426 10.7404 39.3426 11.7304H35.7651ZM61.4376 9.90795H61.3926C61.3926 9.90795 61.4376 9.66045 61.4376 9.27795V8.62545C61.4376 7.47795 60.8076 7.02795 59.6601 7.02795H55.7226V10.0654H56.8926C57.2301 10.0654 57.4326 10.2679 57.4326 10.6054V16.5004H55.7451V19.5379H63.3276V16.5004H61.6401V14.6779C61.6401 12.4054 62.7651 10.9204 65.0826 10.9204C65.6001 10.9204 65.9376 10.9879 65.9376 10.9879V6.87045C65.9376 6.87045 65.6901 6.82545 65.4426 6.82545C63.5526 6.80295 61.9776 8.19795 61.4376 9.90795ZM50.3451 9.90795H50.3001C50.3001 9.90795 50.3451 9.66045 50.3451 9.27795V8.62545C50.3451 7.47795 49.7151 7.02795 48.5676 7.02795H44.6301V10.0654H45.8001C46.1376 10.0654 46.3401 10.2679 46.3401 10.6054V16.5004H44.6526V19.5379H52.2351V16.5004H50.5476V14.6779C50.5476 12.4054 51.6726 10.9204 53.9901 10.9204C54.5076 10.9204 54.8451 10.9879 54.8451 10.9879V6.87045C54.8451 6.87045 54.5976 6.82545 54.3501 6.82545C52.4376 6.80295 50.8626 8.19795 50.3451 9.90795Z" fill="currentColor"/>
</svg>
