<svg width="251" height="84" viewBox="0 0 251 84" fill="none" xmlns="http://www.w3.org/2000/svg">
<path d="M34.625 2.875L3.375 2.875L3.375 34.125" stroke="currentColor" stroke-width="5" stroke-linecap="square"/>
<path d="M60.7439 58.625H66.8339L48.3899 18.025H42.6479L24.2619 58.625H30.2359L34.7019 48.475H56.2779L60.7439 58.625ZM36.7319 43.835L45.4899 23.941L54.2479 43.835H36.7319Z" fill="currentColor"/>
<path d="M88.8607 59.089C99.5908 59.089 106.029 52.883 106.029 41.109V18.025H100.403V40.877C100.403 49.867 96.2267 53.927 88.9187 53.927C81.6107 53.927 77.4927 49.867 77.4927 40.877V18.025H71.6927V41.109C71.6927 52.883 78.1887 59.089 88.8607 59.089Z" fill="currentColor"/>
<path d="M151.386 58.625L141.758 44.995C147.442 42.965 150.69 38.441 150.69 32.177C150.69 23.361 144.31 18.025 133.754 18.025H117.92V58.625H123.72V46.271H133.754C134.624 46.271 135.494 46.213 136.306 46.155L145.064 58.625H151.386ZM133.58 41.341H123.72V23.071H133.58C141.004 23.071 144.89 26.377 144.89 32.177C144.89 37.977 141.004 41.341 133.58 41.341Z" fill="currentColor"/>
<path d="M165.86 53.579V40.471H186.218V35.541H165.86V23.071H188.712V18.025H160.06V58.625H189.524V53.579H165.86Z" fill="currentColor"/>
<path d="M198.916 58.625H226.698V53.579H204.716V18.025H198.916V58.625Z" fill="currentColor"/>
<path d="M58.0009 62.625H64.3009L45.2209 20.625H39.2809L20.2609 62.625H26.4409L31.0609 52.125H53.3809L58.0009 62.625ZM33.1609 47.325L42.2209 26.745L51.2809 47.325H33.1609Z" fill="currentColor"/>
<path d="M87.0873 63.105C98.1873 63.105 104.847 56.685 104.847 44.505V20.625H99.0273V44.265C99.0273 53.565 94.7073 57.765 87.1473 57.765C79.5873 57.765 75.3273 53.565 75.3273 44.265V20.625H69.3273V44.505C69.3273 56.685 76.0473 63.105 87.0873 63.105Z" fill="currentColor"/>
<path d="M151.768 62.625L141.808 48.525C147.688 46.425 151.048 41.745 151.048 35.265C151.048 26.145 144.448 20.625 133.528 20.625H117.148V62.625H123.148V49.845H133.528C134.428 49.845 135.328 49.785 136.168 49.725L145.228 62.625H151.768ZM133.348 44.745H123.148V25.845H133.348C141.028 25.845 145.048 29.265 145.048 35.265C145.048 41.265 141.028 44.745 133.348 44.745Z" fill="currentColor"/>
<path d="M166.742 57.405V43.845H187.802V38.745H166.742V25.845H190.382V20.625H160.742V62.625H191.222V57.405H166.742Z" fill="currentColor"/>
<path d="M200.937 62.625H229.677V57.405H206.937V20.625H200.937V62.625Z" fill="currentColor"/>
<path d="M216.375 81.125H247.625V49.875" stroke="currentColor" stroke-width="5" stroke-linecap="square"/>
</svg>
