<svg width="251" height="84" viewBox="0 0 251 84" fill="none" xmlns="http://www.w3.org/2000/svg">
<path d="M34.625 2.875L3.375 2.875L3.375 34.125" stroke="#29303C" stroke-width="5" stroke-linecap="square"/>
<path d="M60.7439 57.625H66.8339L48.3899 17.025H42.6479L24.2619 57.625H30.2359L34.7019 47.475H56.2779L60.7439 57.625ZM36.7319 42.835L45.4899 22.941L54.2479 42.835H36.7319Z" fill="#FFBC99"/>
<path d="M88.8607 58.089C99.5908 58.089 106.029 51.883 106.029 40.109V17.025H100.403V39.877C100.403 48.867 96.2267 52.927 88.9187 52.927C81.6107 52.927 77.4927 48.867 77.4927 39.877V17.025H71.6927V40.109C71.6927 51.883 78.1887 58.089 88.8607 58.089Z" fill="#FFBC99"/>
<path d="M151.386 57.625L141.758 43.995C147.442 41.965 150.69 37.441 150.69 31.177C150.69 22.361 144.31 17.025 133.754 17.025H117.92V57.625H123.72V45.271H133.754C134.624 45.271 135.494 45.213 136.306 45.155L145.064 57.625H151.386ZM133.58 40.341H123.72V22.071H133.58C141.004 22.071 144.89 25.377 144.89 31.177C144.89 36.977 141.004 40.341 133.58 40.341Z" fill="#FFBC99"/>
<path d="M165.86 52.579V39.471H186.218V34.541H165.86V22.071H188.712V17.025H160.06V57.625H189.524V52.579H165.86Z" fill="#FFBC99"/>
<path d="M198.916 57.625H226.698V52.579H204.716V17.025H198.916V57.625Z" fill="#FFBC99"/>
<path d="M58.0009 62.625H64.3009L45.2209 20.625H39.2809L20.2609 62.625H26.4409L31.0609 52.125H53.3809L58.0009 62.625ZM33.1609 47.325L42.2209 26.745L51.2809 47.325H33.1609Z" fill="#29303C"/>
<path d="M87.0873 63.105C98.1873 63.105 104.847 56.685 104.847 44.505V20.625H99.0273V44.265C99.0273 53.565 94.7073 57.765 87.1473 57.765C79.5873 57.765 75.3273 53.565 75.3273 44.265V20.625H69.3273V44.505C69.3273 56.685 76.0473 63.105 87.0873 63.105Z" fill="#29303C"/>
<path d="M151.768 62.625L141.808 48.525C147.688 46.425 151.048 41.745 151.048 35.265C151.048 26.145 144.448 20.625 133.528 20.625H117.148V62.625H123.148V49.845H133.528C134.428 49.845 135.328 49.785 136.168 49.725L145.228 62.625H151.768ZM133.348 44.745H123.148V25.845H133.348C141.028 25.845 145.048 29.265 145.048 35.265C145.048 41.265 141.028 44.745 133.348 44.745Z" fill="#29303C"/>
<path d="M166.742 57.405V43.845H187.802V38.745H166.742V25.845H190.382V20.625H160.742V62.625H191.222V57.405H166.742Z" fill="#29303C"/>
<path d="M200.937 62.625H229.677V57.405H206.937V20.625H200.937V62.625Z" fill="#29303C"/>
<path d="M216.375 81.125H247.625V49.875" stroke="#29303C" stroke-width="5" stroke-linecap="square"/>
</svg>
