<svg width="50" height="50" viewBox="0 0 50 50" fill="none" xmlns="http://www.w3.org/2000/svg">
<path d="M42.7956 7.21602C39.013 3.44507 34.986 5.8892 32.4604 8.40317L8.6243 32.2393C6.0987 34.7649 3.4567 38.6057 7.43715 42.5745C11.406 46.5433 15.2351 43.9013 17.7607 41.3757L41.5968 17.5396C44.1224 15.0256 46.5666 10.987 42.7956 7.21602ZM20.0186 6.23836L25.0698 11.2896L30.2025 6.14525C30.5517 5.79609 30.9008 5.4702 31.2616 5.1676C30.7263 2.45577 29.1783 0 25.0582 0C20.9381 0 19.3901 2.46741 18.8664 5.17924C19.2505 5.51676 19.6345 5.85428 20.0186 6.23836ZM30.2025 43.7267L25.0698 38.594L20.0186 43.6336C19.6345 44.0177 19.2621 44.3785 18.878 44.7044C19.46 47.4744 21.0894 50 25.0582 50C29.0386 50 30.6797 47.4511 31.25 44.6811C30.9008 44.3785 30.5517 44.0759 30.2025 43.7267ZM17.8771 18.4707H8.14711C4.57402 18.4707 0 19.5996 0 24.9302C0 28.9223 2.54888 30.5517 5.33054 31.122C5.65642 30.7495 17.8771 18.4707 17.8771 18.4707ZM44.8208 18.7384C44.5182 19.0875 32.2626 31.4013 32.2626 31.4013H41.8529C45.426 31.4013 50 30.5517 50 24.9302C50 20.8217 47.5442 19.2737 44.8208 18.7384ZM21.0661 15.2817L22.8003 13.5475L17.7607 8.49628C15.2351 5.97067 11.406 3.32868 7.42551 7.30912C4.51583 10.2188 5.1676 13.0587 6.70391 15.3515C7.1811 15.3166 21.0661 15.2817 21.0661 15.2817ZM29.0619 34.5903L27.3161 36.3361L32.4604 41.4688C34.986 43.9944 39.013 46.4385 42.784 42.6676C45.6006 39.851 44.9604 36.8831 43.4008 34.5205C42.9004 34.5554 29.0619 34.5903 29.0619 34.5903Z" fill="currentColor"/>
</svg>
