<svg width="14" height="14" viewBox="0 0 14 14" fill="none" xmlns="http://www.w3.org/2000/svg">
<path d="M0.377001 13.6231C0.540029 13.7861 0.733624 13.8981 0.957787 13.9593C1.18874 14.0136 1.4163 14.0136 1.64047 13.9593C1.87142 13.8981 2.06841 13.7895 2.23144 13.6333L7 8.85631L11.7787 13.6231C11.9418 13.7929 12.132 13.9049 12.3493 13.9593C12.5735 14.0136 12.7977 14.0136 13.0218 13.9593C13.2528 13.8981 13.4498 13.7827 13.6128 13.613C13.7894 13.45 13.9049 13.2565 13.9592 13.0324C14.0136 12.8015 14.0136 12.574 13.9592 12.3499C13.9049 12.1259 13.7928 11.9323 13.623 11.7694L8.86463 6.99236L13.623 2.22554C13.7928 2.06257 13.9049 1.86904 13.9592 1.64496C14.0136 1.42088 14.0136 1.1968 13.9592 0.972717C13.9049 0.741846 13.7894 0.544925 13.6128 0.381957C13.4498 0.212198 13.2528 0.100158 13.0218 0.0458348C12.7977 -0.0152783 12.5735 -0.0152783 12.3493 0.0458348C12.132 0.100158 11.9418 0.208803 11.7787 0.371772L7 5.1386L2.23144 0.361586C2.06841 0.205408 1.87142 0.100158 1.64047 0.0458348C1.4163 -0.0152783 1.18874 -0.0152783 0.957787 0.0458348C0.733624 0.100158 0.540029 0.208803 0.377001 0.371772C0.207181 0.54153 0.0950995 0.741846 0.0407569 0.972717C-0.0135856 1.1968 -0.0135856 1.42088 0.0407569 1.64496C0.0950995 1.86904 0.203785 2.06257 0.366812 2.22554L5.14556 6.99236L0.366812 11.7694C0.203785 11.9323 0.0950995 12.1259 0.0407569 12.3499C-0.0135856 12.574 -0.0135856 12.8015 0.0407569 13.0324C0.0950995 13.2565 0.207181 13.4534 0.377001 13.6231Z" fill="currentColor"/>
</svg>
