<svg width="25" height="20" viewBox="0 0 25 20" fill="none" xmlns="http://www.w3.org/2000/svg">
<g clip-path="url(#clip0_73_1968)">
<path d="M0 0.625H25V19.375H0V0.625Z" fill="#012169"/>
<path d="M2.92969 0.625L12.4609 7.69531L21.9531 0.625H25V3.04688L15.625 10.0391L25 16.9922V19.375H21.875L12.5 12.3828L3.16406 19.375H0V17.0312L9.33594 10.0781L0 3.125V0.625H2.92969Z" fill="white"/>
<path d="M16.5625 11.6016L25 17.8125V19.375L14.4141 11.6016H16.5625ZM9.375 12.3828L9.60938 13.75L2.10938 19.375H0L9.375 12.3828ZM25 0.625V0.742188L15.2734 8.08594L15.3516 6.36719L23.0469 0.625H25ZM0 0.625L9.33594 7.5H6.99219L0 2.26562V0.625Z" fill="#C8102E"/>
<path d="M9.41406 0.625V19.375H15.6641V0.625H9.41406ZM0 6.875V13.125H25V6.875H0Z" fill="white"/>
<path d="M0 8.16406V11.9141H25V8.16406H0ZM10.6641 0.625V19.375H14.4141V0.625H10.6641Z" fill="#C8102E"/>
</g>
<defs>
<clipPath id="clip0_73_1968">
<rect y="0.625" width="25" height="18.75" rx="5" fill="white"/>
</clipPath>
</defs>
</svg>
