<svg width="72" height="22" viewBox="0 0 72 22" fill="none" xmlns="http://www.w3.org/2000/svg">
<path d="M15.8702 5.90635C14.5344 4.57056 13.1075 5.43513 12.2145 6.32812L7.99683 10.5461L3.77867 14.7642C2.88568 15.657 1.95101 17.0138 3.3569 18.4195C4.7628 19.8257 6.11952 18.8908 7.01232 17.9978L11.2303 13.7798L15.4483 9.56196C16.3413 8.66888 17.2058 7.24195 15.8702 5.90635Z" fill="white"/>
<path d="M7.81058 5.56096L9.59684 7.34713L11.415 5.52894C11.5385 5.40522 11.6638 5.2904 11.7899 5.18211C11.5995 4.22148 11.0513 3.35303 9.59599 3.35303C8.13789 3.35303 7.59041 4.22489 7.40112 5.18761C7.53717 5.30536 7.67311 5.42341 7.81058 5.56096Z" fill="white"/>
<path d="M11.4142 18.8289L9.59711 17.0117L7.81179 18.7968C7.67622 18.9325 7.54132 19.0564 7.40698 19.1729C7.61171 20.1522 8.19112 21.0491 9.59635 21.0491C11.0053 21.0491 11.5839 20.1473 11.7873 19.1649C11.6624 19.0574 11.5372 18.9519 11.4142 18.8289Z" fill="white"/>
<path d="M7.05313 9.89111H3.60944C2.3467 9.89111 0.726318 10.2888 0.726318 12.1777C0.726318 13.5871 1.6284 14.1658 2.61101 14.3691C2.72735 14.2349 7.05313 9.89111 7.05313 9.89111Z" fill="white"/>
<path d="M16.5886 9.98242C16.4796 10.1092 12.1448 14.4639 12.1448 14.4639H15.5396C16.8023 14.4639 18.4227 14.1656 18.4227 12.1774C18.4227 10.7195 17.5511 10.1717 16.5886 9.98242Z" fill="white"/>
<path d="M8.1814 8.76048L8.79662 8.14526L7.01149 6.35995C6.11841 5.46705 4.76187 4.53228 3.35598 5.93818C2.32505 6.9691 2.55403 7.97246 3.10085 8.78701C3.2674 8.7746 8.1814 8.76048 8.1814 8.76048Z" fill="white"/>
<path d="M11.0121 15.5946L10.3953 16.2115L12.2136 18.0297C13.1066 18.9227 14.5336 19.7871 15.8692 18.4515C16.8658 17.4548 16.6371 16.4079 16.0861 15.5693C15.9088 15.5821 11.0121 15.5946 11.0121 15.5946Z" fill="white"/>
<path d="M53.837 6.31445C53.532 6.31445 52.9983 6.39072 52.4135 6.6449C51.651 6.97534 51.2443 7.22952 51.041 7.55986C50.2785 6.67038 49.2871 6.39072 48.1687 6.39072C44.8897 6.39072 42.5513 9.1613 42.5513 13.101C42.5513 16.4054 44.3305 18.8456 46.8469 18.8456C47.6094 18.8456 48.2957 18.5404 49.1092 17.7781C49.7445 17.1934 50.0497 16.8122 50.0497 16.4563C50.0497 16.202 49.8718 16.0241 49.6175 16.0241C49.2616 16.0241 48.8804 16.3291 48.3974 16.3291C47.3552 16.3291 46.6434 14.7277 46.6434 12.3638C46.6434 10 47.5839 8.39866 49.0073 8.39866C49.9478 8.39866 50.6595 9.11023 50.6595 10.3304V17.7526C50.6595 18.5658 51.422 18.7946 52.82 18.7946C54.1927 18.7946 54.7264 18.5404 54.7264 17.7526V7.12796C54.7266 6.61941 54.3961 6.31445 53.837 6.31445Z" fill="white"/>
<path d="M38.154 6.31445C37.1627 6.31445 36.1206 6.67038 35.2053 7.38204C34.6971 7.78875 34.2649 8.24623 34.2649 8.62755C34.2649 8.9579 34.4936 9.13581 34.8241 9.13581C35.3835 9.13581 35.5614 8.90712 36.0951 8.90712C36.6289 8.90712 36.883 9.41547 36.883 10.3051V17.7528C36.883 18.566 37.6457 18.7948 39.0435 18.7948C40.4162 18.7948 40.9499 18.5406 40.9499 17.7528V9.59339C40.95 7.66152 39.8061 6.31445 38.154 6.31445Z" fill="white"/>
<path d="M31.0114 6.31445C29.9693 6.31445 29.0288 6.67038 28.1138 7.38204C27.6054 7.78875 27.1733 8.24623 27.1733 8.62755C27.1733 8.9579 27.4019 9.13581 27.7326 9.13581C28.2916 9.13581 28.4697 8.90712 28.9527 8.90712C29.4357 8.90712 29.6898 9.41547 29.6898 10.3051V17.7528C29.6898 18.566 30.4523 18.7948 31.8502 18.7948C33.223 18.7948 33.7566 18.5406 33.7566 17.7528V9.59339C33.7566 7.66152 32.6128 6.31445 31.0114 6.31445Z" fill="white"/>
<path d="M25.6736 6.31445C25.2924 6.31445 24.8349 6.39072 24.2501 6.6449C22.9792 7.20413 22.4963 7.55986 22.4963 8.34788V17.7527C22.4963 18.5659 23.2588 18.7947 24.6568 18.7947C26.0295 18.7947 26.5632 18.5405 26.5632 17.7527V7.12796C26.5633 6.61941 26.2329 6.31445 25.6736 6.31445Z" fill="white"/>
<path d="M70.3843 15.3634C69.3675 15.6176 69.0627 15.6939 68.7066 15.6939C68.2746 15.6939 68.122 15.5667 68.122 15.1092V8.75466H70.4352C71.0452 8.75466 71.2739 8.52597 71.2739 7.91596C71.2739 7.4076 71.0452 7.15323 70.4352 7.15323H68.122V4.68771C68.122 3.92507 67.868 3.62012 67.3341 3.62012C66.8258 3.62012 66.114 4.0777 64.5889 5.37408C63.0385 6.69584 62.1487 7.56003 62.1487 8.17004C62.1487 8.52597 62.403 8.75466 62.8097 8.75466H64.0552V15.6176C64.0552 17.6257 65.0464 18.7949 66.7749 18.7949C67.9187 18.7949 68.7575 18.3627 69.7489 17.6002C70.6639 16.8885 71.2484 16.3293 71.2484 15.8465C71.2485 15.4398 70.9435 15.2109 70.3843 15.3634Z" fill="white"/>
<path d="M60.0899 0.951172C59.8866 0.951172 59.2512 1.02744 58.6664 1.28161C57.3954 1.81536 56.9126 2.19658 56.9126 2.9846V17.7526C56.9126 18.5661 57.675 18.7948 59.0731 18.7948C60.4458 18.7948 60.9794 18.5406 60.9794 17.7526V1.76458C60.9794 1.25613 60.649 0.951172 60.0899 0.951172Z" fill="white"/>
</svg>
