<svg width="25" height="24" viewBox="0 0 25 24" fill="none" xmlns="http://www.w3.org/2000/svg">
<path fill-rule="evenodd" clip-rule="evenodd" d="M8.31567 6.02548C6.46318 7.28659 5.25 9.41147 5.25 11.8165C5.25 15.6825 8.38401 18.8165 12.25 18.8165C14.6551 18.8165 16.7799 17.6034 18.0411 15.7509C12.9317 15.1923 8.87421 11.1348 8.31567 6.02548ZM19.25 13.8166C20.116 13.8166 20.8618 14.5798 20.5191 15.3751C19.1398 18.5759 15.9566 20.8165 12.25 20.8165C7.27944 20.8165 3.25 16.7871 3.25 11.8165C3.25 8.10997 5.49067 4.92673 8.6914 3.54746C9.48674 3.20472 10.25 3.9505 10.25 4.81655C10.25 9.78712 14.2794 13.8166 19.25 13.8166Z" fill="#4F4F4F"/>
</svg>
