<svg width="392" height="164" viewBox="0 0 392 164" fill="none" xmlns="http://www.w3.org/2000/svg">
<path d="M375.668 0.518145H365.868C359.335 0.518145 354.435 4.66811 351.168 10.8926C338.101 39.9404 307.068 50.3139 284.201 33.7159C276.034 27.4915 271.134 21.267 266.234 10.8926C259.701 -3.63086 241.734 -3.63086 235.2 10.8926C222.134 39.9404 191.1 50.3139 168.233 33.7159C156.8 25.416 150.267 0.518145 135.567 0.518145C140.467 0.518145 132.3 0.518141 130.667 2.59264C127.4 4.66714 124.134 6.7426 122.5 10.8916C109.433 39.9394 78.4002 50.3129 55.5332 33.715C42.4662 25.416 37.5662 2.59264 22.8662 0.518145C11.4331 -1.55635 0 4.66812 0 21.266V187.252C0 199.701 6.53309 208 16.3331 208H375.667C385.467 208 392 199.701 392 187.252V21.266C392.001 8.81711 385.468 0.518145 375.668 0.518145Z" fill="url(#paint0_linear)"/>
<defs>
<linearGradient id="paint0_linear" x1="62.0112" y1="274.633" x2="393.052" y2="14.0319" gradientUnits="userSpaceOnUse">
<stop stop-color="#2D9CDB"/>
<stop offset="0.520833" stop-color="#34CDFA"/>
<stop offset="1" stop-color="#E8D9F1"/>
</linearGradient>
</defs>
</svg>
