<svg width="75" height="75" viewBox="0 0 75 75" fill="none" xmlns="http://www.w3.org/2000/svg">
<g clip-path="url(#clip0_73_1557)">
<path d="M13.0135 6.90005L13.6455 4.94556C13.5862 5.71127 13.5998 6.48089 13.6863 7.24402C13.6051 7.14206 13.5031 7.05862 13.3871 6.99929C13.2711 6.93997 13.1437 6.90613 13.0135 6.90005ZM20.309 5.10861L20.8874 6.90005C20.7447 6.90685 20.6056 6.94704 20.4812 7.01741C20.3568 7.08777 20.2507 7.18633 20.1714 7.30517C20.1994 7.12936 20.2224 6.9688 20.2377 6.82104C20.2912 6.2808 20.309 5.67435 20.309 5.10861Z" fill="currentColor"/>
<path d="M24.2866 15.2352L21.2161 14.5778C21.2161 14.5778 19.5266 13.5458 19.2591 9.90694V9.80759C19.5951 9.26821 19.846 8.68034 20.0032 8.06461C20.0217 8.30738 20.1333 8.53361 20.3147 8.69601C20.4961 8.85841 20.7332 8.94442 20.9766 8.93607C22.2328 8.93607 22.2863 7.06065 21.1294 6.90773C22.0825 5.14441 20.6071 4.9635 20.3064 4.94565C20.3013 3.88052 20.2376 2.99121 20.2376 2.99121C18.3035 4.02062 17.0957 1.52346 17.0957 1.52346C17.0957 1.52346 16.4179 3.20018 13.862 3.39378V3.23582C13.755 3.79994 13.6826 4.3701 13.6454 4.94309C13.6454 4.94309 11.7139 4.95329 12.7714 6.90771C11.6171 7.06064 11.6655 8.93605 12.9243 8.93605C13.1377 8.94513 13.3477 8.88041 13.519 8.75277C13.6902 8.62514 13.8123 8.44239 13.8646 8.2353C13.9661 8.64637 14.1176 9.04346 14.3156 9.4177L14.3182 9.6903V10.4981C14.3287 11.1826 14.1535 11.8572 13.8111 12.45C12.5039 14.6364 9.4817 14.3611 9.4817 14.3611L7.87891 14.1853C7.87891 14.1853 11.8133 3.47023 12.4529 2.4382C13.095 1.40624 16.5784 -1.71783 20.3089 1.24312C20.3089 1.24312 22.1436 2.63442 24.2866 15.2352Z" fill="currentColor"/>
<path d="M5.96235 31.0232C6.19422 30.8027 6.45523 30.615 6.73809 30.4655C7.01969 30.3128 7.31682 30.1906 7.62439 30.1011L7.60427 30.1738L6.74034 29.3056C6.6693 29.2355 6.59379 29.1551 6.52778 29.0967C6.45419 29.0398 6.36788 29.0017 6.27628 28.9855C6.07183 28.9546 5.87044 28.906 5.67434 28.8404C5.47869 28.7668 5.29079 28.6741 5.11339 28.5636C4.92818 28.457 4.76101 28.3218 4.61806 28.163C4.54262 28.0709 4.4957 27.9588 4.48303 27.8404C4.47312 27.718 4.50797 27.5962 4.58111 27.4976C4.71543 27.32 4.89383 27.1807 5.09863 27.0933L5.07774 27.2596C4.93939 27.1562 4.80919 27.0423 4.68828 26.919C4.54753 26.7885 4.45496 26.6144 4.42556 26.4247C4.42377 26.37 4.42955 26.3152 4.44273 26.262C4.4624 26.2118 4.48822 26.1642 4.51961 26.1203C4.58158 26.0438 4.65849 25.9807 4.74566 25.935C4.9052 25.8505 5.07776 25.7933 5.25618 25.7657L5.2396 25.9881C5.0899 25.9469 4.95621 25.8613 4.85621 25.7426C4.80651 25.6823 4.76714 25.6141 4.7397 25.541C4.71086 25.4666 4.69439 25.388 4.69094 25.3083L4.69312 25.3309C4.66538 25.2435 4.65861 25.1508 4.67336 25.0603C4.68811 24.9698 4.72396 24.884 4.778 24.8099C4.83205 24.7358 4.90278 24.6755 4.98447 24.6338C5.06616 24.5921 5.15652 24.5702 5.24823 24.57C5.40617 24.5531 5.56555 24.5552 5.723 24.5761C5.87702 24.5951 6.02941 24.6255 6.17889 24.6672L6.07037 24.902C5.96683 24.834 5.87272 24.7527 5.79049 24.6601C5.73828 24.6072 5.6978 24.5438 5.67169 24.4742C5.64558 24.4046 5.63443 24.3303 5.63895 24.256C5.65146 24.1731 5.68938 24.096 5.74748 24.0354C5.7966 23.9866 5.85272 23.9454 5.91398 23.9131C6.02764 23.8506 6.1536 23.8137 6.28302 23.8051C6.73906 23.7843 7.19595 23.8182 7.6439 23.9062C7.86491 23.9429 8.08444 23.9849 8.303 24.0305C8.531 24.0715 8.75399 24.1367 8.96819 24.2249C9.40138 24.4076 9.784 24.6923 10.0835 25.0548L13.5319 29.1024L13.3934 29.0382C14.2388 29.0214 15.0828 28.9621 15.9222 28.8608C16.7657 28.7682 17.6082 28.6557 18.4491 28.5305C20.1309 28.2824 21.8089 27.9903 23.4807 27.6855L23.4027 27.7187C24.0262 27.2766 24.6472 26.8275 25.2596 26.3703C25.5657 26.1414 25.87 25.9104 26.1681 25.6742L26.3898 25.4958L26.5012 25.4055L26.6318 25.3098C26.8061 25.1959 26.9942 25.1048 27.1916 25.0387C27.9494 24.8132 28.7397 24.7169 29.5294 24.7537L29.8226 24.7634C29.9284 24.769 30.0335 24.7833 30.1369 24.8061C30.3459 24.8516 30.5447 24.9351 30.7236 25.0522C30.9084 25.1681 31.0677 25.3203 31.1921 25.4994C31.3164 25.6786 31.4032 25.8811 31.4471 26.0948L31.363 25.9638C31.4915 26.0394 31.6149 26.1235 31.7323 26.2154C31.8546 26.3117 31.9627 26.4249 32.0534 26.5515C32.1541 26.6862 32.2178 26.8449 32.2383 27.0118C32.259 27.1913 32.2173 27.3726 32.1202 27.525L32.1037 27.3231C32.2676 27.4907 32.4319 27.6522 32.5952 27.8247C32.6784 27.9174 32.7545 28.0162 32.8231 28.1201C32.9048 28.2361 32.9571 28.3702 32.9756 28.5108C32.9823 28.6053 32.9541 28.699 32.8965 28.7742C32.8421 28.8389 32.771 28.8874 32.691 28.9144C32.5648 28.9565 32.4324 28.9768 32.2994 28.9742C32.0562 28.9725 31.8138 28.9451 31.5764 28.8926L31.6897 28.6484C31.8932 28.8068 32.0622 29.005 32.1865 29.2309C32.2559 29.359 32.2851 29.505 32.2704 29.6499C32.2605 29.7352 32.226 29.8158 32.1711 29.8818C32.1383 29.9152 32.1001 29.9427 32.0581 29.9634C32.02 29.9782 31.9806 29.9894 31.9404 29.9969C31.6806 30.0066 31.4222 29.9547 31.1863 29.8456C30.9609 29.7558 30.7415 29.6515 30.5296 29.5333L30.5986 29.5478L29.1037 29.68L29.1667 29.6518C28.9005 29.911 28.6189 30.1539 28.3235 30.3793C28.02 30.5999 27.6926 30.7855 27.3474 30.9326C26.6605 31.2153 25.9446 31.4218 25.2127 31.5482C24.8459 31.6139 24.4954 31.6882 24.1419 31.7831C23.7902 31.8835 23.4393 31.9871 23.0925 32.1079C22.396 32.3381 21.707 32.5947 21.0186 32.8519C18.265 33.883 15.548 35.0193 12.7526 35.9512C11.3597 36.4403 9.93314 36.8279 8.48421 37.111C7.74848 37.2712 6.98678 37.2701 6.25148 37.108C5.50744 36.9283 4.83705 36.5233 4.33191 35.9482C3.84113 35.3746 3.4668 34.7108 3.22984 33.9941C2.99085 33.2879 2.82261 32.5597 2.72759 31.8202C2.68003 31.4536 2.62583 31.0922 2.58963 30.7192C2.55388 30.3501 2.52817 29.9817 2.50559 29.6135C2.46133 28.8766 2.43102 28.1412 2.4096 27.4034L2.6812 27.5421C2.49354 27.6621 2.28138 27.7386 2.06031 27.7659C1.85479 27.7955 1.64667 27.8027 1.4396 27.7873C1.2375 27.7753 1.03633 27.7508 0.837268 27.714C0.637973 27.6785 0.440649 27.6327 0.246087 27.5768L0.124544 27.5415L0.116379 27.4165C0.0918888 27.0741 0.142218 26.7304 0.26387 26.4094C0.397156 26.1012 0.580529 25.8171 0.806555 25.5688C1.02806 25.3275 1.27622 25.1121 1.54628 24.9268C1.81325 24.7384 2.09746 24.5756 2.3951 24.4407L2.40198 24.8204C2.38643 24.8142 2.37156 24.8064 2.35762 24.7971C2.3486 24.7912 2.34009 24.7845 2.33218 24.7772L2.31293 24.7574C2.30214 24.746 2.29245 24.7336 2.284 24.7203L2.25554 24.6701C2.24146 24.6401 2.23403 24.6173 2.22356 24.5904C2.20737 24.5412 2.19672 24.4973 2.18515 24.4515C2.16754 24.3646 2.15151 24.278 2.14204 24.1947C2.11978 24.0261 2.10579 23.8608 2.0973 23.6962C2.07687 23.3664 2.07393 23.04 2.07276 22.7136C2.07489 22.0614 2.09539 21.4117 2.12672 20.7633C2.15748 20.1148 2.19821 19.4674 2.24342 18.8206C2.27462 18.151 2.40792 17.4902 2.6387 16.8609C2.76121 16.543 2.91847 16.2396 3.10762 15.9562C3.49809 15.3907 4.02124 14.9296 4.63125 14.6132C4.93046 14.4542 5.24532 14.3267 5.5708 14.2326C6.21404 14.0466 6.87993 13.9504 7.54952 13.9469C8.21632 13.9349 8.88244 13.9956 9.53608 14.1279L9.68293 14.1584L9.7159 14.308C9.95647 15.3992 10.1546 16.4912 10.3012 17.5985C10.3761 18.1512 10.4278 18.7087 10.4564 19.271C10.4993 19.8452 10.4674 20.4226 10.3615 20.9886L10.1728 20.7045C11.4874 20.9393 12.7828 21.2293 14.0678 21.5917C14.7098 21.772 15.3458 21.9815 15.9725 22.2256C16.6216 22.4564 17.2301 22.7882 17.7756 23.2088L17.4988 23.1931C17.948 22.8931 18.4024 22.6226 18.8677 22.3604C19.3333 22.1012 19.805 21.8522 20.2914 21.6305C20.777 21.4034 21.2756 21.2052 21.7845 21.0368C22.2999 20.8649 22.8322 20.7484 23.3722 20.6894L23.2076 20.9434L21.0691 14.6298L20.9858 14.3841L21.2385 14.4249C22.4391 14.618 23.6258 14.8895 24.7909 15.2375C25.375 15.412 25.9482 15.6214 26.5073 15.8645C27.0766 16.1023 27.6097 16.4189 28.0911 16.8049C28.9845 17.6779 29.5238 18.8504 29.605 20.097C29.6701 21.32 29.4566 22.5419 28.9807 23.6705L28.952 23.6021C29.1834 23.7123 29.4069 23.8381 29.621 23.9787C29.8364 24.117 30.0395 24.2736 30.2278 24.4469C30.4204 24.6175 30.586 24.8162 30.7191 25.0364C30.8538 25.2579 30.9286 25.5108 30.936 25.77H30.8907C30.8783 25.5205 30.8011 25.2785 30.6669 25.0677C30.5329 24.856 30.3676 24.6657 30.1766 24.5035C29.7954 24.1756 29.3683 23.9051 28.9089 23.7006L28.8628 23.6793L28.8802 23.6322C29.3253 22.5155 29.5113 21.3123 29.4242 20.1133C29.3661 19.5221 29.2097 18.9447 28.9615 18.405C28.8982 18.2714 28.8247 18.1427 28.7571 18.0113L28.5176 17.6377C28.4269 17.5213 28.3423 17.3977 28.2469 17.2872C28.1437 17.1856 28.0458 17.0794 27.9397 16.9808C27.4723 16.6158 26.9562 16.3178 26.4065 16.0954C25.8545 15.8626 25.289 15.6631 24.7132 15.4979C23.558 15.1666 22.3825 14.9112 21.1941 14.7332L21.3635 14.5283L23.5709 20.8181L23.651 21.0461L23.4063 21.0722C22.8969 21.1344 22.3955 21.2504 21.9106 21.4182C21.4189 21.587 20.9376 21.7846 20.4691 22.01C19.9971 22.2313 19.537 22.4806 19.0832 22.7398C18.6315 23.0003 18.1819 23.2765 17.7554 23.5662L17.6139 23.6624L17.4785 23.5506C16.9705 23.1656 16.4058 22.8618 15.8045 22.6501C15.1977 22.4151 14.5746 22.2107 13.942 22.0345C12.6785 21.6803 11.3867 21.3937 10.0951 21.1656L9.85401 21.1231L9.9063 20.8815C10.0005 20.3574 10.0273 19.8234 9.98615 19.2924C9.95786 18.7495 9.90624 18.204 9.8314 17.6602C9.68565 16.5732 9.48611 15.4854 9.24812 14.4155L9.42787 14.5955C8.19666 14.3337 6.92143 14.3621 5.70306 14.6783C5.40598 14.7623 5.11845 14.8771 4.84512 15.0206C4.29942 15.2999 3.8305 15.7087 3.47943 16.2112C3.30822 16.4657 3.16555 16.7382 3.05398 17.024C2.83658 17.6108 2.71015 18.2274 2.67905 18.8524C2.63091 19.4963 2.58726 20.1404 2.5536 20.7845C2.51935 21.4285 2.49599 22.0725 2.49078 22.7145C2.49036 23.035 2.49181 23.3561 2.50996 23.6723C2.51722 23.8307 2.5301 23.9883 2.54945 24.1405C2.5578 24.218 2.57133 24.2905 2.58514 24.3623C2.59337 24.3948 2.60183 24.4297 2.61059 24.4574L2.62297 24.4905C2.62359 24.4913 2.62393 24.4923 2.62391 24.4933C2.62581 24.4974 2.61843 24.4847 2.61326 24.4802L2.60393 24.4719L2.58412 24.4569C2.57225 24.4491 2.55946 24.4427 2.54603 24.438L2.5529 24.8177C2.28075 24.9403 2.0201 25.0869 1.77408 25.2559C1.52652 25.4217 1.29858 25.6151 1.09462 25.8323C0.897112 26.0448 0.735613 26.2881 0.616494 26.5526C0.514331 26.817 0.46972 27.1 0.485642 27.383L0.355975 27.2227C0.536188 27.2762 0.719002 27.3204 0.903704 27.3554C1.08814 27.3916 1.27465 27.4164 1.46216 27.4295C1.64449 27.4453 1.82801 27.4412 2.00945 27.4172C2.17742 27.3992 2.33942 27.3447 2.48411 27.2574L2.7499 27.0808L2.75576 27.3962C2.76935 28.1288 2.79193 28.8636 2.82822 29.5955C2.84678 29.9615 2.8685 30.3272 2.89985 30.6905C2.93072 31.05 2.98161 31.4168 3.02485 31.78C3.10972 32.5015 3.26602 33.2129 3.49145 33.9036C3.7099 34.5899 4.0598 35.2271 4.52166 35.7798C4.98868 36.3236 5.61237 36.7098 6.30733 36.8854C7.01196 37.048 7.74347 37.056 8.45146 36.9087C9.89423 36.6465 11.3148 36.2743 12.7007 35.7952C14.0959 35.3357 15.4749 34.8252 16.8491 34.3023L20.9669 32.7153C21.6548 32.454 22.3432 32.1932 23.0422 31.958C23.3894 31.8348 23.7432 31.7282 24.0983 31.6248C24.4539 31.5268 24.8238 31.4468 25.1803 31.381C25.8986 31.2542 26.6004 31.0471 27.2725 30.7635C27.6026 30.6176 27.9152 30.4347 28.2042 30.2185C28.4904 29.9935 28.7628 29.7515 29.02 29.4939L29.046 29.4694L29.0832 29.4655L30.5761 29.3126L30.6112 29.309L30.6451 29.3272C30.8485 29.4368 31.0587 29.5333 31.2746 29.6159C31.4708 29.7035 31.6839 29.7474 31.8988 29.7443C32.0396 29.7455 32.0445 29.5286 31.9494 29.3511C31.8403 29.1633 31.6951 28.9989 31.5222 28.8674L31.0839 28.5164L31.6356 28.6233C31.8523 28.6679 32.0732 28.69 32.2945 28.6892C32.394 28.6903 32.4931 28.6749 32.5876 28.6437C32.6733 28.6055 32.6825 28.587 32.6818 28.5297C32.6223 28.3398 32.5157 28.1681 32.3719 28.0307L31.8823 27.5444L31.7953 27.458L31.8659 27.3423C31.9144 27.2523 31.9338 27.1495 31.9216 27.048C31.9053 26.935 31.8594 26.8283 31.7886 26.7388C31.714 26.6382 31.6256 26.5487 31.526 26.4728C31.4211 26.3934 31.3112 26.3208 31.197 26.2554L31.1275 26.2141L31.1128 26.1243C31.0782 25.9671 31.0081 25.82 30.908 25.694C30.8026 25.5582 30.6756 25.4407 30.532 25.3462C30.388 25.2548 30.2284 25.1906 30.0612 25.1567C29.9771 25.1393 29.8917 25.1289 29.8059 25.1255L29.5242 25.12C28.7787 25.0925 28.0337 25.1861 27.3182 25.3974C27.1519 25.4534 26.9933 25.5305 26.8465 25.6267L26.7452 25.7012L26.6337 25.7925L26.4082 25.9755C26.1064 26.2168 25.8008 26.4507 25.4938 26.6824C24.8793 27.1452 24.2595 27.5975 23.6339 28.045L23.5989 28.0701L23.5558 28.0784C21.878 28.3988 20.1953 28.6745 18.5049 28.9162C17.66 29.0375 16.8128 29.1461 15.9622 29.235C15.1093 29.3333 14.2519 29.3888 13.3934 29.4011L13.309 29.4012L13.2549 29.3368L9.83183 25.2678C9.5691 24.9397 9.23054 24.6804 8.84532 24.5123C8.65046 24.4291 8.4472 24.3672 8.23908 24.3276C8.02442 24.28 7.80918 24.236 7.59354 24.1972C7.17223 24.1088 6.74201 24.07 6.31168 24.0818C6.21909 24.085 6.12845 24.1093 6.04663 24.1527C5.96268 24.1944 5.90646 24.2509 5.90605 24.2932C5.90811 24.367 5.93917 24.437 5.99249 24.488C6.05702 24.5618 6.13063 24.627 6.21157 24.6823L6.8761 25.1365L6.10306 24.9171C5.83701 24.8343 5.55813 24.8006 5.28001 24.8175C5.1636 24.8214 5.05342 24.8711 4.97344 24.9558C4.91656 25.0558 4.89993 25.1737 4.92694 25.2855L4.92883 25.3004L4.92913 25.3082C4.93208 25.3595 4.9426 25.4101 4.96037 25.4583C4.97819 25.5082 5.00429 25.5548 5.03758 25.5961C5.10678 25.6794 5.19967 25.7398 5.30395 25.7693L5.77206 25.9156L5.28736 25.9916C5.13598 26.0135 4.98918 26.0599 4.85273 26.129C4.72408 26.1993 4.62487 26.2961 4.64029 26.4128C4.64351 26.444 4.64982 26.4748 4.65914 26.5048L4.70184 26.6003C4.74305 26.6642 4.78909 26.7249 4.83956 26.7819C4.9495 26.8984 5.06804 27.0065 5.19418 27.1053L5.31599 27.207L5.17327 27.2716C4.99992 27.3416 4.84718 27.4545 4.72932 27.5996C4.67811 27.667 4.65218 27.7501 4.65607 27.8346C4.65995 27.9191 4.6934 27.9996 4.75056 28.0619C4.87884 28.208 5.02885 28.3335 5.19533 28.4339C5.36181 28.5428 5.53863 28.635 5.72322 28.7092C5.91254 28.7769 6.10735 28.8281 6.30547 28.8622C6.415 28.8849 6.51746 28.9336 6.60425 29.0042C6.68898 29.0829 6.7506 29.1539 6.82316 29.2282L7.66557 30.1125L7.7169 30.1663L7.64544 30.1853C7.34204 30.2667 7.04817 30.3802 6.76881 30.5238C6.48735 30.6649 6.22655 30.8439 5.99369 31.0559L5.96235 31.0232Z" fill="currentColor"/>
<path d="M10.4871 27.4813C10.3708 27.7919 10.2016 28.0801 9.98682 28.3328C9.78109 28.591 9.53769 28.8167 9.2648 29.0024C9.29919 28.835 9.36061 28.6744 9.44666 28.5269C9.52698 28.3828 9.6198 28.246 9.72406 28.1182C9.82867 27.9913 9.94351 27.8733 10.0674 27.7652C10.1935 27.6516 10.3347 27.556 10.4871 27.4813ZM5.16479 27.073L6.56102 27.4979C6.79627 27.5764 7.01746 27.6919 7.21623 27.8402L7.82518 28.2418L7.18692 27.8886C6.98486 27.7604 6.76355 27.6653 6.53142 27.6072L5.10737 27.292L5.16479 27.073ZM5.29383 25.7677L7.1397 26.1902C7.45712 26.2524 7.75414 26.3924 8.00407 26.5977L8.74871 27.1825L7.97046 26.6432C7.71918 26.4599 7.42605 26.3424 7.11774 26.3013L5.24994 25.9897L5.29383 25.7677ZM6.1644 24.6814L7.0925 24.9057C7.40328 24.9847 7.70805 25.0458 8.02376 25.1395C8.17851 25.1925 8.32583 25.2651 8.46211 25.3556C8.59604 25.4486 8.71992 25.544 8.84932 25.6382L9.61791 26.2047L8.81712 25.6846C8.68387 25.5993 8.5497 25.5084 8.41721 25.4276C8.28312 25.3496 8.1396 25.2891 7.99015 25.2475C7.69112 25.1777 7.36761 25.1312 7.05753 25.0718L6.11778 24.9029L6.1644 24.6814ZM7.66142 30.2532L7.60866 30.0332C7.78584 29.9907 11.9632 29.0032 13.402 29.1068L13.3851 29.3327C11.9766 29.22 7.70421 30.2427 7.66142 30.2532ZM28.3601 26.5306C28.8252 26.3483 29.3029 26.1999 29.7895 26.0866C30.0349 26.028 30.2842 25.987 30.5354 25.9638C30.7946 25.9337 31.057 25.9463 31.3122 26.001L31.248 26.2181C31.0194 26.1521 30.7817 26.1235 30.544 26.1333C30.2982 26.1374 30.0531 26.159 29.8104 26.1978C29.3196 26.2736 28.8349 26.3848 28.3601 26.5306ZM28.9305 27.4813C29.4353 27.3725 29.9462 27.2943 30.4604 27.2471C30.7195 27.2221 30.9798 27.2123 31.24 27.2177C31.5077 27.2176 31.7741 27.2545 32.0316 27.3273L31.9546 27.5402C31.7211 27.4564 31.4772 27.4049 31.2297 27.3872C30.976 27.3633 30.721 27.3542 30.4662 27.3601C29.9524 27.3696 29.4395 27.4101 28.9305 27.4813ZM29.3108 28.6221C29.6938 28.5796 30.0793 28.5536 30.4668 28.5488C30.8602 28.5355 31.2538 28.5693 31.6391 28.6497L31.5731 28.8662C31.2123 28.7545 30.8395 28.6859 30.4626 28.6619C30.0809 28.6292 29.6959 28.6172 29.3108 28.6221ZM27.3279 26.6664C27.5342 26.7167 27.7176 26.8349 27.8486 27.002C27.9219 27.0937 27.9725 27.2015 27.9965 27.3164C28.011 27.4182 28.0197 27.5207 28.0225 27.6234C28.018 27.7959 28.0366 27.9683 28.0778 28.1359C28.1396 28.3075 28.2357 28.4647 28.3601 28.5981C28.2536 28.5805 28.1521 28.5404 28.0623 28.4806C27.9725 28.4208 27.8964 28.3425 27.8392 28.251C27.734 28.0625 27.6802 27.8497 27.6833 27.6338C27.6832 27.5395 27.684 27.4327 27.6792 27.3627C27.6735 27.2858 27.6547 27.2104 27.6236 27.1398C27.5429 26.9715 27.4437 26.8128 27.3279 26.6664ZM2.37842 24.4241C2.50126 24.3896 2.62699 24.3664 2.75405 24.3547C2.87724 24.3417 3.0014 24.3403 3.12485 24.3507C3.36923 24.3608 3.60151 24.4598 3.77794 24.6292C3.57895 24.533 3.35129 24.5143 3.13925 24.5766C3.03584 24.6026 2.93514 24.6385 2.83853 24.6836C2.7446 24.7256 2.65467 24.776 2.56986 24.8343L2.37842 24.4241ZM2.58278 27.3998C2.76627 27.296 2.96294 27.2174 3.16746 27.1663C3.36815 27.1125 3.57311 27.0763 3.78006 27.0579C3.98847 27.0404 4.1981 27.0435 4.4059 27.0672C4.61817 27.0882 4.82482 27.1478 5.01572 27.243C4.5952 27.3158 4.21015 27.3594 3.80852 27.396C3.40107 27.4378 2.99048 27.4391 2.58278 27.3998ZM30.5875 29.4302C30.7303 29.9281 30.8227 30.4391 30.863 30.9554C30.9111 31.4752 30.9045 31.9986 30.8435 32.5169C30.7934 33.0517 30.6188 33.5674 30.3337 34.0226C30.1808 34.2537 29.9659 34.4371 29.7138 34.5519C29.466 34.6545 29.193 34.6799 28.9305 34.625C29.1803 34.6103 29.4227 34.5345 29.6363 34.4043C29.8352 34.2721 29.998 34.0922 30.1097 33.8811C30.328 33.4405 30.4627 32.9632 30.5069 32.4735C30.5671 31.973 30.5979 31.4693 30.5993 30.9652C30.6044 30.4572 30.5958 29.9469 30.5875 29.4302ZM24.6388 20.745C24.9321 21.0767 25.1967 21.4327 25.4297 21.8092C25.667 22.1832 25.8792 22.5725 26.065 22.9745C26.2548 23.3778 26.4059 23.7982 26.5165 24.2299C26.6412 24.6615 26.6747 25.1143 26.6149 25.5595C26.542 25.1313 26.4241 24.712 26.2634 24.3084C26.1113 23.9055 25.9424 23.5081 25.7566 23.1162C25.399 22.3261 24.9989 21.5543 24.6388 20.745ZM8.50423 19.4683C8.57055 19.8624 8.61462 20.2599 8.63622 20.6589C8.6633 21.0558 8.67052 21.4526 8.6739 21.8495C8.67095 22.2463 8.66372 22.6432 8.63672 23.0401C8.61521 23.4392 8.57098 23.8367 8.50423 24.2307C8.43749 23.8367 8.39327 23.4392 8.37177 23.0401C8.34477 22.6432 8.33754 22.2463 8.33457 21.8495C8.33796 21.4526 8.34519 21.0558 8.37227 20.6589C8.39386 20.2599 8.43791 19.8624 8.50423 19.4683ZM9.78332 14.4843C9.59221 14.4843 9.47773 14.4749 9.47201 14.4744L9.49242 14.2489C9.52129 14.2507 12.4599 14.4898 13.7143 12.3923C14.045 11.8167 14.2142 11.1625 14.2038 10.4988V9.68982H14.4303V10.4988C14.4406 11.2034 14.2603 11.8977 13.9084 12.5082C12.8314 14.3101 10.6033 14.4843 9.78332 14.4843Z" fill="currentColor"/>
<path d="M12.9249 14.4093C13.0129 14.4063 13.0963 14.3692 13.1575 14.3058C13.2187 14.2425 13.2529 14.1578 13.2529 14.0698C13.2529 13.9817 13.2187 13.8971 13.1575 13.8337C13.0963 13.7704 13.0129 13.7333 12.9249 13.7302C12.8369 13.7333 12.7535 13.7704 12.6923 13.8337C12.6311 13.8971 12.5969 13.9817 12.5969 14.0698C12.5969 14.1578 12.6311 14.2425 12.6923 14.3058C12.7535 14.3692 12.8369 14.4063 12.9249 14.4093ZM13.862 15.3872C13.95 15.3841 14.0334 15.347 14.0946 15.2837C14.1558 15.2203 14.19 15.1357 14.19 15.0476C14.19 14.9596 14.1558 14.8749 14.0946 14.8116C14.0334 14.7483 13.95 14.7111 13.862 14.7081C13.774 14.7111 13.6906 14.7483 13.6294 14.8116C13.5682 14.8749 13.534 14.9596 13.534 15.0476C13.534 15.1357 13.5682 15.2203 13.6294 15.2837C13.6906 15.347 13.774 15.3841 13.862 15.3872ZM14.9825 16.3446C15.0705 16.3416 15.1539 16.3045 15.2151 16.2412C15.2763 16.1778 15.3105 16.0932 15.3105 16.0051C15.3105 15.917 15.2763 15.8324 15.2151 15.7691C15.1539 15.7057 15.0705 15.6686 14.9825 15.6656C14.8945 15.6686 14.8111 15.7057 14.7499 15.7691C14.6887 15.8324 14.6545 15.917 14.6545 16.0051C14.6545 16.0932 14.6887 16.1778 14.7499 16.2412C14.8111 16.3045 14.8945 16.3416 14.9825 16.3446ZM16.3067 17.6077C16.3947 17.6047 16.4781 17.5676 16.5393 17.5042C16.6004 17.4409 16.6346 17.3562 16.6346 17.2682C16.6346 17.1801 16.6004 17.0955 16.5393 17.0321C16.4781 16.9688 16.3947 16.9317 16.3067 16.9286C16.2186 16.9317 16.1352 16.9688 16.0741 17.0321C16.0129 17.0955 15.9787 17.1801 15.9787 17.2682C15.9787 17.3562 16.0129 17.4409 16.0741 17.5042C16.1352 17.5676 16.2186 17.6047 16.3067 17.6077ZM17.9568 18.5244C18.0448 18.5214 18.1282 18.4843 18.1894 18.4209C18.2506 18.3576 18.2848 18.273 18.2848 18.1849C18.2848 18.0968 18.2506 18.0122 18.1894 17.9489C18.1282 17.8855 18.0448 17.8484 17.9568 17.8454C17.8688 17.8484 17.7854 17.8855 17.7242 17.9489C17.663 18.0122 17.6288 18.0968 17.6288 18.1849C17.6288 18.273 17.663 18.3576 17.7242 18.4209C17.7854 18.4843 17.8688 18.5214 17.9568 18.5244ZM18.8531 17.404C18.9412 17.4009 19.0246 17.3638 19.0857 17.3005C19.1469 17.2372 19.1811 17.1525 19.1811 17.0645C19.1811 16.9764 19.1469 16.8918 19.0857 16.8284C19.0246 16.7651 18.9412 16.728 18.8531 16.7249C18.7651 16.728 18.6817 16.7651 18.6206 16.8284C18.5594 16.8918 18.5252 16.9764 18.5252 17.0645C18.5252 17.1525 18.5594 17.2372 18.6206 17.3005C18.6817 17.3638 18.7651 17.4009 18.8531 17.404ZM19.7903 15.9983C19.8783 15.9953 19.9617 15.9582 20.0229 15.8948C20.084 15.8315 20.1182 15.7469 20.1182 15.6588C20.1182 15.5707 20.084 15.4861 20.0229 15.4228C19.9617 15.3594 19.8783 15.3223 19.7903 15.3193C19.7022 15.3223 19.6189 15.3594 19.5577 15.4228C19.4965 15.4861 19.4623 15.5707 19.4623 15.6588C19.4623 15.7469 19.4965 15.8315 19.5577 15.8948C19.6189 15.9582 19.7022 15.9953 19.7903 15.9983ZM20.6255 14.4297C20.7135 14.4266 20.7969 14.3895 20.8581 14.3262C20.9193 14.2628 20.9535 14.1782 20.9535 14.0901C20.9535 14.0021 20.9193 13.9175 20.8581 13.8541C20.7969 13.7908 20.7135 13.7537 20.6255 13.7506C20.5375 13.7537 20.4541 13.7908 20.3929 13.8541C20.3317 13.9175 20.2975 14.0021 20.2975 14.0901C20.2975 14.1782 20.3317 14.2628 20.3929 14.3262C20.4541 14.3895 20.5375 14.4266 20.6255 14.4297ZM14.0454 4.27088C14.3427 4.16486 14.6537 4.10203 14.9688 4.08431C15.3061 4.03919 15.6481 4.1218 15.9276 4.31592C16.1381 4.57566 16.2687 4.89083 16.3037 5.22327C16.3605 5.53538 16.3546 5.85567 16.2863 6.16547C16.2652 5.85915 16.2132 5.55575 16.1309 5.25992C16.0926 5.11533 16.0444 4.97352 15.9868 4.83545C15.9583 4.76846 15.9264 4.70295 15.8913 4.63917L15.8343 4.54915C15.8145 4.52171 15.7928 4.50548 15.7738 4.48177C15.5342 4.32809 15.2536 4.25083 14.9691 4.26023C14.6665 4.24587 14.358 4.25644 14.0454 4.27088ZM16.1641 6.62103C16.2688 6.69435 16.3635 6.78111 16.4457 6.87908L16.5524 7.00176C16.5959 7.04842 16.6432 7.09141 16.6937 7.13029C16.66 7.15157 16.6218 7.16487 16.5822 7.16919C16.5426 7.17351 16.5025 7.16874 16.4649 7.15524C16.3918 7.1306 16.3266 7.08692 16.276 7.0287C16.2265 6.97441 16.1905 6.90917 16.171 6.83831C16.1516 6.76745 16.1492 6.69299 16.1641 6.62103ZM17.7327 6.57289C17.7906 6.66794 17.8096 6.78164 17.7858 6.89035C17.7609 7.00963 17.6897 7.11418 17.5879 7.18113C17.489 7.24041 17.3745 7.26855 17.2593 7.26188C17.1528 7.2546 17.0499 7.22083 16.9598 7.16365C17.0632 7.12837 17.1556 7.1089 17.2425 7.08607C17.3204 7.06399 17.3952 7.03211 17.465 6.9912C17.6009 6.88781 17.6957 6.7396 17.7327 6.57289ZM17.6512 4.33197C17.9347 4.17431 18.2528 4.08934 18.5771 4.08468C18.905 4.06475 19.2305 4.15151 19.5051 4.33197C19.3409 4.32351 19.1899 4.31231 19.0375 4.30827C18.8851 4.30802 18.7347 4.30485 18.5828 4.31082C18.2785 4.31704 17.9757 4.33863 17.6512 4.33197ZM17.3488 5.06538C17.4287 5.17568 17.4812 5.30342 17.5019 5.43804C17.5226 5.57265 17.5109 5.71026 17.4679 5.83948C17.3629 5.74358 17.2956 5.61332 17.2782 5.47219C17.2538 5.33251 17.2787 5.18866 17.3488 5.06538Z" fill="currentColor"/>
<path d="M15.0028 5.64925C15.0908 5.64621 15.1742 5.6091 15.2354 5.54576C15.2966 5.48242 15.3308 5.39779 15.3308 5.30972C15.3308 5.22165 15.2966 5.13703 15.2354 5.07368C15.1742 5.01034 15.0908 4.97324 15.0028 4.97019C14.9148 4.97324 14.8314 5.01034 14.7702 5.07368C14.709 5.13703 14.6748 5.22165 14.6748 5.30972C14.6748 5.39779 14.709 5.48242 14.7702 5.54576C14.8314 5.6091 14.9148 5.64621 15.0028 5.64925ZM18.5271 5.60851C18.6152 5.60546 18.6985 5.56836 18.7597 5.50501C18.8209 5.44167 18.8551 5.35704 18.8551 5.26898C18.8551 5.18091 18.8209 5.09628 18.7597 5.03294C18.6985 4.9696 18.6152 4.93249 18.5271 4.92944C18.4391 4.93249 18.3557 4.9696 18.2945 5.03294C18.2334 5.09628 18.1992 5.18091 18.1992 5.26898C18.1992 5.35704 18.2334 5.44167 18.2945 5.50501C18.3557 5.56836 18.4391 5.60546 18.5271 5.60851ZM15.7158 8.52852C15.9148 8.67145 16.1272 8.79465 16.35 8.89638C16.5617 8.99427 16.7903 9.0506 17.0232 9.0623C17.2538 9.07358 17.4834 9.0257 17.6902 8.9232C17.7989 8.87348 17.9035 8.81502 18.0028 8.74838C18.1041 8.68101 18.1957 8.59895 18.3031 8.52853C18.2343 8.63531 18.1581 8.73705 18.0749 8.83299C17.9853 8.92692 17.8845 9.00934 17.7746 9.07835C17.55 9.22717 17.284 9.30073 17.0149 9.28838C16.7498 9.2747 16.4926 9.19334 16.2679 9.05204C16.0481 8.91967 15.8597 8.74103 15.7158 8.52852Z" fill="currentColor"/>
<path d="M20.3063 4.94567C20.3089 4.99917 20.3089 5.05522 20.3089 5.10872L20.2554 4.94312C20.2554 4.94312 20.2732 4.94311 20.3063 4.94567Z" fill="currentColor"/>
<path d="M13.8621 3.39341C14.0235 3.37107 14.1853 3.35304 14.3457 3.32722C14.5038 3.28933 14.6653 3.26588 14.82 3.2163C15.132 3.1284 15.4331 3.00604 15.718 2.85149C15.9988 2.69315 16.2571 2.49801 16.4863 2.27126C16.7139 2.04829 16.901 1.7874 17.0391 1.50027L17.0913 1.38599L17.1494 1.49654C17.3001 1.77928 17.4827 2.04381 17.6937 2.28494C17.8996 2.5275 18.1432 2.73537 18.4151 2.90059C18.6844 3.0585 18.99 3.14395 19.3021 3.14862C19.6137 3.13995 19.9188 3.05739 20.1922 2.90774L20.323 2.84851L20.3326 2.98507C20.3891 3.794 20.4172 4.60183 20.4108 5.41256C20.4234 6.22805 20.3438 7.04235 20.1733 7.83992C20.0036 8.64699 19.6712 9.41101 19.1963 10.0853C18.9499 10.4252 18.6355 10.7101 18.2731 10.9219C17.9017 11.1267 17.482 11.2277 17.0581 11.2145C16.6419 11.1974 16.2323 11.1044 15.8495 10.9402C15.4618 10.7851 15.111 10.5502 14.82 10.2507C14.2689 9.63428 13.8999 8.87679 13.7542 8.06283C13.5922 7.26639 13.5315 6.45265 13.5738 5.641C13.6047 4.83307 13.7011 4.02898 13.8621 3.23665C13.7273 4.03168 13.6573 4.83633 13.6527 5.64268C13.6393 6.4457 13.7186 7.24759 13.8891 8.0324C14.0427 8.81374 14.4099 9.53718 14.9499 10.1223C15.2281 10.3979 15.559 10.6144 15.9229 10.7589C16.2841 10.9117 16.6702 10.9973 17.0621 11.0116C17.4493 11.0218 17.8321 10.9275 18.1703 10.7385C18.5053 10.5392 18.7953 10.2725 19.0219 9.95523C19.4716 9.30068 19.7898 8.56494 19.9588 7.78897C20.1303 7.0078 20.2129 6.20974 20.2049 5.41001C20.2162 4.60704 20.1929 3.80053 20.1418 2.99931L20.2821 3.07658C19.9795 3.23598 19.643 3.32039 19.3009 3.32269C18.9596 3.31195 18.6269 3.21283 18.3353 3.03502C18.0526 2.85658 17.8004 2.63377 17.5885 2.37514C17.3748 2.12179 17.1909 1.84461 17.0407 1.5491L17.151 1.54543C17.0029 1.84512 16.7999 2.11438 16.5525 2.33925C16.3108 2.56361 16.0403 2.75463 15.7479 2.90724C15.4549 3.05428 15.1464 3.16821 14.8282 3.24691C14.671 3.29164 14.5078 3.31006 14.3483 3.34284C14.1865 3.36354 14.0239 3.37636 13.8621 3.39341ZM21.3624 94.3932C21.7588 95.8163 21.9888 97.2805 22.0478 98.7566C22.0848 99.4984 22.0652 100.242 21.989 100.981C21.9128 101.724 21.775 102.46 21.5772 103.181L21.5833 103.075C21.6821 103.449 21.8452 103.804 22.0653 104.122C22.2818 104.443 22.5576 104.72 22.8778 104.938C22.9556 104.994 23.0376 105.045 23.1231 105.088C23.2045 105.139 23.2905 105.182 23.38 105.217L23.6463 105.328L23.9259 105.406L24.0651 105.446L24.2095 105.469L24.4982 105.515C24.6928 105.535 24.8911 105.535 25.087 105.547L25.1747 105.552L25.2334 105.585C25.6603 105.825 26.0718 106.072 26.4797 106.351C26.6926 106.493 26.8944 106.651 27.0835 106.824L27.5975 107.328L27.5751 107.307L28.4371 108.004C28.5801 108.117 28.7281 108.234 28.8651 108.334C29.0036 108.416 29.1494 108.484 29.3007 108.539C29.9805 108.82 30.6734 109.091 31.3627 109.361L31.3975 109.375L31.4394 109.404C31.8193 109.664 32.2341 109.87 32.6714 110.014C33.0829 110.162 33.5275 110.191 33.9547 110.098C34.3612 109.984 34.7095 109.721 34.9294 109.36C35.1738 108.971 35.3493 108.542 35.4482 108.093L35.5536 108.414L33.9765 107.056L34.0105 107.08L32.4709 106.089L32.456 106.079L32.4475 106.073L30.4367 104.45L30.4521 104.461C30.0336 104.152 29.6459 103.803 29.2945 103.42C28.945 103.041 28.6311 102.63 28.357 102.194C28.0794 101.759 27.8537 101.293 27.6846 100.805C27.5185 100.318 27.4121 99.8117 27.3677 99.2985L27.3667 99.2906L27.367 99.2842L27.4452 97.3189C27.4683 96.6639 27.5061 96.0089 27.537 95.3539C27.5524 96.0095 27.5749 96.6651 27.5827 97.3206L27.6148 99.2871L27.6142 99.2729C27.684 99.7588 27.8123 100.234 27.9963 100.689C28.1751 101.145 28.4049 101.579 28.6814 101.983C28.956 102.389 29.2675 102.768 29.6117 103.117C29.9516 103.463 30.3236 103.776 30.7227 104.052L30.7298 104.057L30.7383 104.063L32.8018 105.618L32.7785 105.602L34.3353 106.566L34.3511 106.576L34.3694 106.591L35.9702 107.922L36.1207 108.047L36.0757 108.242C35.9656 108.768 35.7626 109.27 35.4762 109.725C35.1688 110.22 34.687 110.583 34.1255 110.742C33.5768 110.87 33.0028 110.841 32.4698 110.658C31.9593 110.496 31.4769 110.256 31.0394 109.947L31.1159 109.989C30.4238 109.714 29.7354 109.439 29.0442 109.149L28.7827 109.036C28.733 109.013 28.7004 109 28.6369 108.967C28.582 108.939 28.5296 108.906 28.4805 108.869C28.3176 108.749 28.1755 108.634 28.028 108.516L27.1623 107.806L27.1502 107.796L27.1398 107.786L26.6395 107.278C26.4776 107.126 26.3048 106.987 26.1225 106.86C25.7464 106.593 25.3427 106.341 24.9407 106.106L25.087 106.144C24.8667 106.128 24.6462 106.123 24.4267 106.097L24.098 106.039L23.934 106.009L23.773 105.96L23.4522 105.86L23.1444 105.721C23.0411 105.675 22.942 105.621 22.8481 105.559C22.7498 105.504 22.6557 105.442 22.5664 105.373C22.2033 105.107 21.8939 104.774 21.6546 104.393C21.4111 104.015 21.2374 103.596 21.1415 103.157L21.1306 103.106L21.1476 103.05C21.3622 102.359 21.5194 101.653 21.6176 100.936C21.7128 100.215 21.7653 99.4883 21.7747 98.7607C21.7827 98.0293 21.7517 97.2981 21.6818 96.5701C21.613 95.8395 21.5064 95.1129 21.3624 94.3932Z" fill="currentColor"/>
<path d="M4.56348 108.069L4.53536 108.052C0.822828 105.859 1.18888 101.068 1.19311 101.019L1.20307 100.902L1.32002 100.917C1.7438 100.966 2.34651 100.235 2.54335 99.9476L2.69714 99.7229L2.7479 99.9904C3.81072 105.606 7.28162 107.754 7.31645 107.775L7.64543 107.973L4.56348 108.069ZM1.41283 101.144C1.38321 101.847 1.36356 105.893 4.62219 107.841L6.91456 107.77C6.05902 107.127 3.5198 104.878 2.5752 100.284C2.33455 100.589 1.86299 101.107 1.41283 101.144ZM21.1651 85.7254C21.3104 88.6533 21.4692 91.5812 21.6416 94.509C21.0608 94.2947 20.5147 93.9959 20.021 93.6222L19.068 60.1086L19.1801 60.5545C19.2565 60.9113 19.3355 61.268 19.3941 61.6298C19.5164 62.351 19.6133 63.0772 19.6948 63.8034C19.8655 65.2559 19.9955 66.716 20.1153 68.1761C20.3421 71.0964 20.5281 74.0191 20.6912 76.9444C20.8619 79.8697 21.0097 82.7976 21.1651 85.7254ZM19.0578 51.4906C19.0552 51.934 19.0374 52.3774 19.0323 52.8208C19.0425 53.7101 18.9508 54.5943 18.9355 55.4862C18.9355 55.4862 18.9355 57.1756 18.8641 59.5047C18.7724 62.5574 18.5583 66.7135 18.0665 69.6107C17.1951 74.7173 17.088 93.5127 17.088 93.5127C8.3962 96.3386 1.55178 94.2746 1.55178 94.2746C1.8754 89.9274 4.32165 60.8628 4.32165 60.8628C3.80693 53.0144 5.09886 44.9265 5.99072 40.5003C6.59441 40.352 7.18045 40.1392 7.73877 39.8658C8.29938 39.5961 8.83786 39.2825 9.34921 38.9281C9.85799 38.5657 10.3315 38.1562 10.7635 37.705C11.1943 37.2503 11.5527 36.732 11.826 36.1684C11.3852 36.6093 10.952 37.0246 10.4908 37.4145C10.0219 37.7941 9.55052 38.1662 9.05362 38.5102C8.06748 39.2058 7.03802 39.8378 5.99072 40.5003C6.42136 38.3701 6.75772 37.0883 6.75772 37.0883C8.81564 36.8423 10.8494 36.4247 12.8377 35.8397C14.3531 35.3934 15.8384 34.8504 17.2843 34.214C17.3989 34.2318 17.5136 34.2522 17.6283 34.2675C17.7608 35.1492 17.9009 36.0257 18.0105 36.9099C18.1302 37.789 18.2347 38.6708 18.3417 39.5499C18.5431 41.3132 18.7112 43.0791 18.831 44.8475C18.8743 45.4081 18.9074 45.9713 18.9355 46.5318C18.9285 46.5297 18.9217 46.5272 18.9151 46.5243C18.7556 46.4639 18.5897 46.4219 18.4207 46.3993C18.1021 46.3504 17.7796 46.3317 17.4575 46.3433C17.1428 46.3517 16.8289 46.3781 16.5172 46.4223C16.2063 46.4634 15.8982 46.5238 15.5948 46.6032C16.2191 46.6415 16.8383 46.6644 17.4448 46.723C17.7427 46.7494 18.0389 46.7937 18.3316 46.8555C18.5575 46.8961 18.7726 46.9828 18.9635 47.1103C19.0068 48.127 19.0357 49.1437 19.0501 50.1604L19.0578 51.4906ZM26.4908 36.2194C26.1174 35.818 25.7877 35.3781 25.5072 34.9071C26.6543 34.9203 27.8001 34.8256 28.9294 34.6242C29.6329 35.7502 30.1549 36.9799 30.4762 38.2681C30.2902 38.2299 30.1067 38.1968 29.9258 38.1509L29.5308 38.0414C29.4645 38.021 29.3983 38.0108 29.3346 37.9879L29.146 37.9191C29.0186 37.8706 28.8912 37.8298 28.7663 37.7865L28.4045 37.6183C28.2819 37.5673 28.1635 37.5068 28.0503 37.4374C27.9333 37.3773 27.8201 37.3101 27.7114 37.2361C27.2615 36.9524 26.8511 36.6106 26.4908 36.2194Z" fill="currentColor"/>
<path d="M34.6884 93.8389C27.9739 96.196 23.749 95.3602 21.6417 94.5116V94.5091C21.6697 91.5736 21.6425 88.6406 21.5601 85.7102C21.4862 82.7772 21.3614 79.8468 21.2008 76.9164C21.1117 75.4512 21.0174 73.9886 20.9078 72.5234C20.788 71.0607 20.6683 69.5981 20.5103 68.138C20.3548 66.6779 20.1739 65.2203 19.942 63.7679C19.8223 63.0441 19.6872 62.3204 19.5267 61.6045C19.408 61.0488 19.2531 60.5015 19.0629 59.966L18.9355 55.4863C19.226 53.7255 19.3972 51.947 19.4477 50.1631C19.4732 49.7172 19.4706 49.2712 19.4706 48.8253C19.4681 48.3794 19.4808 47.9334 19.463 47.4875L19.4503 47.141C19.6995 46.9581 19.959 46.7897 20.2274 46.6364C20.5296 46.4656 20.8419 46.3133 21.1626 46.1803C21.8137 45.9045 22.5078 45.7442 23.2139 45.7063C22.8573 45.6136 22.4886 45.5767 22.1207 45.5968C21.7492 45.6171 21.3815 45.6813 21.025 45.7879C20.6697 45.8951 20.3251 46.035 19.9956 46.2058C19.8019 46.3103 19.6133 46.4173 19.4299 46.537L19.4171 46.1497C19.3967 45.7038 19.3662 45.2578 19.3381 44.8119C19.2107 43.0333 19.0171 41.2572 18.7342 39.4964C18.4627 37.7344 18.0935 35.9887 17.6283 34.2676C20.2322 34.7 22.8677 34.9139 25.5073 34.9072C25.6107 35.4724 25.8417 36.0066 26.1825 36.4692C26.5188 36.9453 26.9446 37.3512 27.4362 37.6643C27.926 37.9773 28.4708 38.1944 29.0416 38.3039C29.3219 38.3605 29.6067 38.3921 29.8927 38.3982C30.0972 38.3995 30.3015 38.3867 30.5042 38.36C32.5275 45.6681 32.3364 58.4574 32.5147 64.3947C32.7339 71.5653 34.6884 93.8389 34.6884 93.8389Z" fill="currentColor"/>
<path d="M30.7412 38.3345C30.6622 38.3447 30.5832 38.3549 30.5042 38.36C30.494 38.3294 30.4864 38.2987 30.4762 38.2708C30.5628 38.2886 30.652 38.309 30.7412 38.3345ZM19.068 60.1086L19.0451 60.022L18.8641 59.5048C18.9382 59.655 19.0045 59.809 19.0629 59.966L19.068 60.1086Z" fill="currentColor"/>
<path d="M16.7789 4.13561C16.867 4.13257 16.9504 4.09547 17.0116 4.03212C17.0728 3.96878 17.107 3.88415 17.107 3.79608C17.107 3.708 17.0728 3.62337 17.0116 3.56002C16.9504 3.49668 16.867 3.45958 16.7789 3.45654C16.6909 3.45958 16.6075 3.49668 16.5463 3.56002C16.4851 3.62337 16.4509 3.708 16.4509 3.79608C16.4509 3.88415 16.4851 3.96878 16.5463 4.03212C16.6075 4.09547 16.6909 4.13257 16.7789 4.13561Z" fill="currentColor"/>
<path d="M75.0323 51.9006H36.8079V1.35327H75.0323V51.9006ZM37.5698 51.1386H74.2703V2.11524H37.5698V51.1386Z" fill="currentColor"/>
<path d="M54.0309 20.0279H40.9434V5.77026H54.0309V20.0279ZM41.7337 19.2375H53.2406V6.5606H41.7337V19.2375Z" fill="currentColor"/>
<path d="M50.4591 11.0383L50.8923 12.3838C50.884 12.3817 50.8754 12.3808 50.8668 12.3812C50.6879 12.3767 50.5137 12.4384 50.3776 12.5545C50.3903 12.473 50.398 12.394 50.4056 12.3226C50.4464 11.9175 50.4591 11.4639 50.4591 11.0383Z" fill="currentColor"/>
<path d="M53.4355 18.6167L51.1396 18.1274C51.1396 18.1274 49.8757 17.3553 49.6744 14.6313V14.5574C49.8939 14.2071 50.0637 13.8281 50.1789 13.4311C50.2265 13.5741 50.3194 13.6977 50.4436 13.7832C50.5677 13.8687 50.7163 13.9115 50.8669 13.905C51.7766 13.905 51.8428 12.5953 51.0657 12.4067C51.7995 11.0689 50.6834 10.9313 50.4592 10.9186C50.4541 10.121 50.4057 9.45845 50.4057 9.45845C48.9583 10.228 48.0563 8.35762 48.0563 8.35762C48.0563 8.35762 47.5492 9.61392 45.638 9.75912V9.64191C45.4516 10.6303 45.407 11.6402 45.5055 12.6411C45.4445 12.5649 45.368 12.5025 45.281 12.4581C45.194 12.4137 45.0985 12.3884 45.001 12.3837L45.4749 10.916C45.4749 10.916 44.0276 10.9262 44.8201 12.3914C43.9588 12.5035 43.9944 13.905 44.9347 13.905C45.0948 13.9118 45.2523 13.863 45.3805 13.7668C45.5087 13.6707 45.5997 13.5332 45.638 13.3776C45.7144 13.6859 45.8283 13.9837 45.9769 14.2643V15.0746C45.9852 15.5864 45.8549 16.091 45.5998 16.5347C44.6213 18.1707 42.3611 17.9643 42.3611 17.9643L41.1609 17.8318C41.1609 17.8318 44.104 9.81523 44.5831 9.04312C45.0622 8.27102 47.669 5.93435 50.4617 8.14871C50.4617 8.14871 51.8327 9.19088 53.4355 18.6167Z" fill="currentColor"/>
<path d="M42.5853 18.0557C42.4425 18.0557 42.3569 18.0485 42.3524 18.0483L42.3678 17.8796C42.3885 17.8813 44.5878 18.0602 45.5264 16.4902C45.7739 16.0597 45.9004 15.5703 45.8927 15.0738V14.4686H46.062V15.0738C46.0697 15.601 45.9349 16.1205 45.6718 16.5773C44.8658 17.9253 43.1987 18.0557 42.5853 18.0557Z" fill="currentColor"/>
<path d="M44.9358 17.9994C45.0017 17.9972 45.0641 17.9694 45.1098 17.922C45.1556 17.8746 45.1812 17.8113 45.1812 17.7454C45.1812 17.6795 45.1556 17.6162 45.1098 17.5688C45.0641 17.5214 45.0017 17.4937 44.9358 17.4914C44.87 17.4937 44.8076 17.5214 44.7618 17.5688C44.716 17.6162 44.6904 17.6795 44.6904 17.7454C44.6904 17.8113 44.716 17.8746 44.7618 17.922C44.8076 17.9694 44.87 17.9972 44.9358 17.9994ZM45.6369 18.731C45.7027 18.7287 45.7651 18.701 45.8109 18.6536C45.8567 18.6062 45.8823 18.5429 45.8823 18.477C45.8823 18.4111 45.8567 18.3478 45.8109 18.3004C45.7651 18.253 45.7027 18.2252 45.6369 18.223C45.571 18.2252 45.5086 18.253 45.4629 18.3004C45.4171 18.3478 45.3915 18.4111 45.3915 18.477C45.3915 18.5429 45.4171 18.6062 45.4629 18.6536C45.5086 18.701 45.571 18.7287 45.6369 18.731ZM46.4751 19.4473C46.541 19.445 46.6034 19.4173 46.6491 19.3699C46.6949 19.3225 46.7205 19.2592 46.7205 19.1933C46.7205 19.1274 46.6949 19.0641 46.6491 19.0167C46.6034 18.9693 46.541 18.9416 46.4751 18.9393C46.4093 18.9416 46.3469 18.9693 46.3011 19.0167C46.2553 19.0641 46.2297 19.1274 46.2297 19.1933C46.2297 19.2592 46.2553 19.3225 46.3011 19.3699C46.3469 19.4173 46.4093 19.445 46.4751 19.4473ZM50.0719 19.1882C50.1378 19.1859 50.2002 19.1582 50.2459 19.1108C50.2917 19.0634 50.3173 19.0001 50.3173 18.9342C50.3173 18.8683 50.2917 18.805 50.2459 18.7576C50.2002 18.7102 50.1378 18.6825 50.0719 18.6802C50.0061 18.6825 49.9437 18.7102 49.8979 18.7576C49.8521 18.805 49.8265 18.8683 49.8265 18.9342C49.8265 19.0001 49.8521 19.0634 49.8979 19.1108C49.9437 19.1582 50.0061 19.1859 50.0719 19.1882ZM50.6968 18.0147C50.7626 18.0124 50.825 17.9846 50.8708 17.9373C50.9166 17.8899 50.9422 17.8266 50.9422 17.7607C50.9422 17.6948 50.9166 17.6315 50.8708 17.5841C50.825 17.5367 50.7626 17.5089 50.6968 17.5067C50.6309 17.5089 50.5685 17.5367 50.5228 17.5841C50.477 17.6315 50.4514 17.6948 50.4514 17.7607C50.4514 17.8266 50.477 17.8899 50.5228 17.9373C50.5685 17.9846 50.6309 18.0124 50.6968 18.0147ZM45.774 10.4147C45.9966 10.3359 46.2292 10.2889 46.4649 10.2751C46.7172 10.2414 46.9731 10.3032 47.1822 10.4484C47.3396 10.6427 47.4374 10.8785 47.4636 11.1272C47.5056 11.3607 47.5011 11.6002 47.4505 11.832C47.4352 11.6028 47.3963 11.3758 47.3343 11.1546C47.3056 11.0464 47.2695 10.9403 47.2265 10.837C47.1908 10.7394 47.1367 10.6496 47.0671 10.5725C46.8879 10.4575 46.6779 10.3997 46.4651 10.4067C46.2389 10.3973 46.0076 10.4016 45.774 10.4147ZM47.3591 12.1729C47.4374 12.2278 47.5083 12.2927 47.5697 12.3659C47.6242 12.4355 47.6865 12.4985 47.7553 12.5539C47.73 12.5696 47.7015 12.5794 47.6719 12.5826C47.6422 12.5859 47.6123 12.5824 47.5842 12.5725C47.5295 12.5541 47.4807 12.5214 47.4428 12.4779C47.4058 12.4372 47.3789 12.3884 47.3643 12.3354C47.3498 12.2824 47.348 12.2267 47.3591 12.1729ZM48.5326 12.1369C48.5754 12.2081 48.5896 12.293 48.5723 12.3743C48.5537 12.4636 48.5004 12.5418 48.4243 12.5919C48.3502 12.6362 48.2646 12.6573 48.1784 12.6524C48.0989 12.6464 48.022 12.6212 47.9544 12.5788C48.0853 12.5519 48.2123 12.5086 48.3323 12.4498C48.434 12.3725 48.505 12.2616 48.5326 12.1369ZM48.4716 10.4604C48.6837 10.3425 48.9217 10.2789 49.1643 10.2754C49.4096 10.2605 49.6532 10.3254 49.8585 10.4604C49.629 10.4431 49.3987 10.4379 49.1686 10.4446C48.941 10.4493 48.7144 10.4652 48.4716 10.4604ZM48.2454 11.009C48.3052 11.0916 48.3444 11.1872 48.3599 11.2879C48.3754 11.3886 48.3667 11.4916 48.3345 11.5882C48.256 11.5165 48.2056 11.419 48.1926 11.3134C48.1744 11.2089 48.193 11.1013 48.2454 11.009Z" fill="currentColor"/>
<path d="M46.4904 11.446C46.5562 11.4437 46.6186 11.4159 46.6644 11.3685C46.7102 11.3212 46.7358 11.2578 46.7358 11.192C46.7358 11.1261 46.7102 11.0628 46.6644 11.0154C46.6186 10.968 46.5562 10.9402 46.4904 10.9379C46.4245 10.9402 46.3621 10.968 46.3164 11.0154C46.2706 11.0628 46.245 11.1261 46.245 11.192C46.245 11.2578 46.2706 11.3212 46.3164 11.3685C46.3621 11.4159 46.4245 11.4437 46.4904 11.446ZM49.127 11.4155C49.1929 11.4132 49.2553 11.3855 49.301 11.3381C49.3468 11.2907 49.3724 11.2274 49.3724 11.1615C49.3724 11.0956 49.3468 11.0323 49.301 10.9849C49.2553 10.9375 49.1929 10.9097 49.127 10.9075C49.0612 10.9097 48.9988 10.9375 48.953 10.9849C48.9072 11.0323 48.8816 11.0956 48.8816 11.1615C48.8816 11.2274 48.9072 11.2907 48.953 11.3381C48.9988 11.3855 49.0612 11.4132 49.127 11.4155ZM47.0238 13.6C47.1724 13.7073 47.3313 13.7995 47.4983 13.8752C47.6567 13.9484 47.8276 13.9906 48.0019 13.9993C48.1744 14.0078 48.3461 13.9719 48.5009 13.8952C48.6645 13.8148 48.8184 13.7157 48.9594 13.6C48.9071 13.6793 48.8501 13.7553 48.7886 13.8277C48.7217 13.8981 48.6462 13.9598 48.564 14.0114C48.396 14.1227 48.197 14.1777 47.9956 14.1685C47.8011 14.1539 47.6124 14.0952 47.444 13.9966C47.2755 13.8981 47.1318 13.7625 47.0238 13.6Z" fill="currentColor"/>
<path d="M50.4209 10.916C50.4209 10.916 50.4336 10.916 50.4591 10.9186V11.0358L50.4209 10.916Z" fill="currentColor"/>
<path d="M45.6369 9.75831L45.9987 9.70879C46.117 9.68042 46.2378 9.66287 46.3536 9.62581C46.5869 9.56004 46.8122 9.4685 47.0254 9.35288C47.2354 9.23442 47.4287 9.08842 47.6001 8.91877C47.7704 8.75196 47.9104 8.55677 48.0137 8.34195L48.0528 8.25647L48.0963 8.33921C48.209 8.55074 48.3456 8.74864 48.5034 8.92904C48.6574 9.11051 48.8397 9.26601 49.0431 9.38959C49.2446 9.5077 49.4732 9.57162 49.7067 9.57511C49.9398 9.56865 50.1681 9.5069 50.3726 9.39494L50.4705 9.35064L50.4776 9.4528C50.5199 10.0579 50.5409 10.6621 50.5361 11.2685C50.5457 11.8784 50.4859 12.4875 50.3577 13.0839C50.23 13.6872 49.9812 14.2584 49.6264 14.7628C49.4397 15.0149 49.2055 15.228 48.9371 15.3902C48.7971 15.4634 48.6486 15.5188 48.4949 15.555C48.4176 15.57 48.3409 15.5923 48.263 15.6006L48.0273 15.6038L47.9096 15.605L47.7944 15.5853L47.5642 15.5447C47.4148 15.505 47.2676 15.4571 47.1235 15.4013C46.8324 15.2878 46.5695 15.1125 46.3527 14.8875C45.9407 14.4263 45.6649 13.8596 45.5561 13.2508C45.4349 12.6551 45.3896 12.0465 45.4213 11.4394C45.4444 10.8351 45.5165 10.2336 45.6369 9.64097C45.5361 10.2356 45.4837 10.8375 45.4803 11.4406C45.4702 12.0412 45.5295 12.641 45.657 13.228C45.7717 13.8125 46.0462 14.3537 46.45 14.7915C46.6571 14.9985 46.9051 15.16 47.1782 15.2656C47.3156 15.3177 47.4556 15.3624 47.5978 15.3995L47.8136 15.4361L47.9215 15.4544L48.03 15.4521L48.247 15.4483C48.3183 15.4402 48.3877 15.4187 48.4582 15.4049C48.5979 15.3711 48.7329 15.3201 48.8601 15.2531C49.1081 15.1002 49.3241 14.9006 49.496 14.6654C49.6694 14.4264 49.8125 14.1669 49.9221 13.8928C50.0366 13.6183 50.1286 13.3351 50.1972 13.0458C50.3262 12.4617 50.3882 11.8647 50.3821 11.2666C50.3905 10.666 50.3731 10.0627 50.3349 9.46342L50.4399 9.52127C50.2134 9.64052 49.9617 9.70365 49.7058 9.70535C49.4504 9.69736 49.2015 9.62321 48.9834 9.49017C48.7719 9.35668 48.5832 9.18997 48.4247 8.99646C48.2648 8.80694 48.1273 8.59958 48.0149 8.37851L48.0974 8.37577C47.9866 8.59997 47.8347 8.80141 47.6497 8.96966C47.4689 9.1375 47.2664 9.28043 47.0478 9.39462C46.8285 9.50458 46.5977 9.5898 46.3597 9.64869C46.2421 9.68216 46.12 9.69591 46.0006 9.72049L45.6369 9.75831Z" fill="currentColor"/>
<path d="M45.638 13.3775C45.5782 13.1351 45.5339 12.8892 45.5055 12.6411L45.638 13.3775Z" fill="currentColor"/>
<path d="M47.8191 10.3136C47.885 10.3113 47.9474 10.2835 47.9931 10.2361C48.0389 10.1888 48.0645 10.1254 48.0645 10.0596C48.0645 9.99366 48.0389 9.93035 47.9931 9.88296C47.9474 9.83557 47.885 9.80782 47.8191 9.80554C47.7533 9.80782 47.6909 9.83557 47.6451 9.88296C47.5993 9.93035 47.5737 9.99366 47.5737 10.0596C47.5737 10.1254 47.5993 10.1888 47.6451 10.2361C47.6909 10.2835 47.7533 10.3113 47.8191 10.3136Z" fill="currentColor"/>
<path d="M70.596 14.7588H57.6805V15.5303H70.596V14.7588Z" fill="currentColor"/>
<path d="M70.5872 10.4928H57.6718V11.2643H70.5872V10.4928Z" fill="currentColor"/>
<path d="M70.596 19.2318H57.6805V20.0034H70.596V19.2318Z" fill="currentColor"/>
<path d="M70.5957 6.28235H57.6641V7.05389H70.5957V6.28235Z" fill="currentColor"/>
<path d="M70.5954 47.1652H55.2839V47.9367H70.5954V47.1652Z" fill="currentColor"/>
<path d="M70.5869 42.8992H55.2751V43.6707H70.5869V42.8992Z" fill="currentColor"/>
<path d="M70.5954 38.6885H55.2675V39.46H70.5954V38.6885Z" fill="currentColor"/>
<path d="M46.4352 37.0251C45.6884 37.0256 44.95 37.1823 44.2674 37.4849C43.5919 37.7872 42.9827 38.2199 42.4748 38.758C41.4667 39.8332 40.8947 41.2449 40.8701 42.7185C40.8537 43.4554 40.9838 44.1883 41.2528 44.8746C41.5218 45.5609 41.9244 46.1869 42.4372 46.7164C42.9594 47.2427 43.583 47.6574 44.2702 47.9353C44.9575 48.2133 45.6941 48.3487 46.4352 48.3334C47.9125 48.2983 49.3184 47.6913 50.3569 46.6401C51.3815 45.5915 51.9563 44.1844 51.9592 42.7184C51.958 41.2484 51.3977 39.8338 50.3919 38.7617C49.8854 38.2227 49.277 37.7896 48.6019 37.4876C47.9196 37.1847 47.1817 37.0272 46.4352 37.0251ZM46.4352 36.99C47.9629 36.9834 49.4359 37.5585 50.5549 38.5986C51.1164 39.1248 51.5631 39.7614 51.8668 40.4684C52.1721 41.1798 52.3306 41.9456 52.3329 42.7197C52.3351 43.4939 52.1809 44.2605 51.8797 44.9736C51.5782 45.6851 51.14 46.3304 50.5899 46.8731C50.0428 47.4119 49.3933 47.8356 48.6797 48.1193C47.9661 48.4031 47.203 48.5411 46.4353 48.5252C44.9049 48.4911 43.4457 47.8727 42.3569 46.7967C41.8151 46.2645 41.3783 45.635 41.0693 44.9412C40.7608 44.2399 40.594 43.4845 40.5785 42.7185C40.5679 41.9493 40.7171 41.1862 41.0168 40.4777C41.3164 39.7692 41.7599 39.1307 42.3193 38.6025C43.4367 37.5618 44.9082 36.9853 46.4352 36.99Z" fill="currentColor"/>
<path d="M46.4351 45.8065C45.6079 45.8122 44.8075 45.5135 44.1862 44.9673C43.8718 44.6847 43.6226 44.3373 43.4556 43.949C43.2885 43.5608 43.2078 43.1409 43.2188 42.7183C43.2337 42.299 43.3322 41.8868 43.5084 41.506C43.6845 41.1325 43.9269 40.794 44.2238 40.507C44.8171 39.9255 45.6052 39.5851 46.4352 39.5519C46.8562 39.5356 47.2761 39.605 47.6694 39.7561C48.0627 39.9072 48.4212 40.1367 48.723 40.4306C49.0298 40.7274 49.2738 41.0829 49.4404 41.4759C49.607 41.869 49.6927 42.2915 49.6925 42.7184C49.6921 43.1433 49.6024 43.5634 49.4293 43.9514C49.2563 44.3395 49.0037 44.6869 48.6879 44.9712C48.065 45.5168 47.2632 45.8141 46.4351 45.8065ZM46.4351 45.7715C46.8317 45.7672 47.2229 45.6792 47.583 45.5132C47.9431 45.3472 48.2641 45.1069 48.5249 44.8081C49.0361 44.2321 49.3186 43.4887 49.3189 42.7185C49.3168 41.9525 49.02 41.2167 48.4899 40.6637C47.947 40.1068 47.2122 39.7779 46.4352 39.7437C46.0408 39.728 45.6475 39.7949 45.2805 39.9402C44.9135 40.0855 44.5809 40.3059 44.3041 40.5873C44.0361 40.8714 43.8277 41.2064 43.6913 41.5725C43.555 41.9385 43.4935 42.3282 43.5104 42.7184C43.5342 43.4919 43.8283 44.2327 44.3417 44.8119C44.6033 45.1103 44.925 45.3501 45.2858 45.5155C45.6466 45.6809 46.0383 45.7681 46.4351 45.7715Z" fill="currentColor"/>
<path d="M46.292 45.7857C45.6341 45.756 45.0034 45.5146 44.4938 45.0975L42.8245 47.143C42.8366 47.1529 42.8488 47.1626 42.861 47.1724C42.9377 47.234 43.0158 47.2935 43.0954 47.3511L43.0956 47.3513C43.9254 47.9495 44.9007 48.3138 45.9195 48.406C45.9317 48.4071 45.9438 48.4082 45.956 48.4092C45.9812 48.4113 46.0063 48.4133 46.0315 48.415C46.055 48.4167 46.0785 48.4181 46.1021 48.4195C46.1198 48.4205 46.1375 48.4216 46.1553 48.4225L46.1689 48.423L46.292 45.7857ZM43.3645 42.7186C43.3637 42.1724 43.5093 41.6361 43.7861 41.1653L41.5087 39.8299C41.0622 40.5914 40.7984 41.4461 40.7379 42.3267L40.736 42.3569C40.7329 42.4047 40.7305 42.4526 40.7288 42.5006C40.7283 42.5151 40.7276 42.5295 40.7271 42.544C40.7254 42.6013 40.7243 42.6586 40.7243 42.7161L40.7242 42.7186L40.7243 42.7227C40.7243 42.7755 40.7251 42.8283 40.7267 42.881C40.7271 42.8944 40.7278 42.9077 40.7282 42.9211C40.7297 42.9637 40.7315 43.0063 40.734 43.0488C40.7346 43.0601 40.7354 43.0714 40.7361 43.0827C40.7392 43.1304 40.7427 43.178 40.7469 43.2255L40.7482 43.2397C40.8159 43.9792 41.0272 44.6985 41.3703 45.3572L43.7115 44.1375C43.4829 43.6995 43.3638 43.2126 43.3645 42.7186ZM52.1455 42.6844C52.1452 42.6384 52.1445 42.5924 52.1431 42.5466C52.1425 42.5263 52.1416 42.506 52.1408 42.4857C52.1391 42.4421 52.1368 42.3986 52.1341 42.3552C52.1332 42.3413 52.1324 42.3273 52.1315 42.3134C52.0767 41.5521 51.8701 40.8095 51.524 40.1292C51.1778 39.4489 50.699 38.8448 50.1158 38.3524L50.1074 38.3453C49.8113 38.0963 49.4906 37.8782 49.1503 37.6943L47.8952 40.0167C48.2708 40.2198 48.5999 40.499 48.8615 40.8365C49.1231 41.1739 49.3115 41.5622 49.4147 41.9765C49.5178 42.3908 49.5335 42.8221 49.4606 43.2428C49.3878 43.6635 49.228 44.0644 48.9915 44.4199L51.1895 45.8826C51.6932 45.1256 52.009 44.2592 52.1104 43.3555L52.1116 43.3449C52.1147 43.3169 52.1175 43.2889 52.1201 43.2609C52.1219 43.2424 52.1235 43.2239 52.1251 43.2054C52.1268 43.1851 52.1286 43.1648 52.1301 43.1444C52.1332 43.1033 52.1358 43.0621 52.138 43.0208C52.1384 43.0122 52.1387 43.0036 52.1392 42.995C52.141 42.9558 52.1425 42.9166 52.1436 42.8773L52.1442 42.8583C52.1453 42.8119 52.1459 42.7653 52.1459 42.7186C52.1459 42.7071 52.1456 42.6958 52.1455 42.6844Z" fill="currentColor"/>
<path d="M70.596 22.9957H45.9154V23.9681H70.596V22.9957Z" fill="currentColor"/>
<path d="M60.8056 25.7297H45.9154V26.7021H60.8056V25.7297Z" fill="currentColor"/>
<path d="M66.959 28.4641H45.9154V29.4365H66.959V28.4641Z" fill="currentColor"/>
<path d="M58.03 31.1981H45.9154V32.1705H58.03V31.1981Z" fill="currentColor"/>
<path d="M64.6851 33.9321H45.9154V34.9045H64.6851V33.9321Z" fill="currentColor"/>
<path d="M43.6915 23.9797C43.3566 24.0231 42.9795 24.0532 42.5943 24.0676C42.2041 24.0784 41.8136 24.0619 41.4257 24.0183L41.3759 24.0141L41.3787 23.9712C41.3964 23.6449 41.3902 23.3178 41.3601 22.9925L41.3552 22.9336L41.4257 22.9268C41.8019 22.8905 42.1781 22.8812 42.5544 22.8701C42.9306 22.8586 43.3068 22.8651 43.683 22.8896L43.7893 22.8966L43.7859 22.9925C43.7731 23.3443 43.7253 23.6862 43.6915 23.9797ZM43.6746 23.9628C43.6408 23.6038 43.593 23.2931 43.5802 22.9925L43.683 23.0953C43.3068 23.1199 42.9306 23.1264 42.5544 23.1148C42.1782 23.1037 41.8019 23.0943 41.4257 23.058L41.4913 22.9925C41.4611 23.3178 41.4549 23.6449 41.4727 23.9712L41.4257 23.9243C41.7869 23.8809 42.1508 23.8644 42.5145 23.8749C42.8817 23.8893 43.2571 23.9193 43.6746 23.9628ZM43.6915 26.7138C43.3566 26.7572 42.9795 26.7873 42.5943 26.8017C42.2041 26.8125 41.8136 26.796 41.4257 26.7523L41.3759 26.7483L41.3787 26.7053C41.3964 26.379 41.3902 26.0519 41.3601 25.7265L41.3552 25.6677L41.4257 25.6609C41.8019 25.6247 42.1781 25.6153 42.5544 25.6042C42.9306 25.5927 43.3068 25.5992 43.683 25.6237L43.7893 25.6307L43.7859 25.7265C43.7731 26.0784 43.7253 26.4202 43.6915 26.7138ZM43.6746 26.6968C43.6408 26.3379 43.593 26.0272 43.5802 25.7265L43.683 25.8294C43.3068 25.8539 42.9306 25.8604 42.5544 25.8488C42.1782 25.8377 41.8019 25.8283 41.4257 25.7921L41.4913 25.7265C41.4611 26.0519 41.4549 26.379 41.4727 26.7053L41.4257 26.6583C41.7869 26.6149 42.1508 26.5984 42.5145 26.609C42.8817 26.6234 43.2571 26.6535 43.6746 26.6968ZM43.6915 29.4479C43.3566 29.4913 42.9795 29.5214 42.5943 29.5358C42.2041 29.5466 41.8136 29.5301 41.4257 29.4865L41.3759 29.4824L41.3787 29.4394C41.3964 29.1131 41.3902 28.786 41.3601 28.4606L41.3552 28.4019L41.4257 28.3951C41.8019 28.3588 42.1781 28.3494 42.5544 28.3384C42.9306 28.3268 43.3068 28.3333 43.683 28.3578L43.7893 28.3648L43.7859 28.4607C43.7731 28.8126 43.7253 29.1544 43.6915 29.4479ZM43.6746 29.431C43.6408 29.072 43.593 28.7613 43.5802 28.4606L43.683 28.5635C43.3068 28.5881 42.9306 28.5946 42.5544 28.583C42.1782 28.5719 41.8019 28.5625 41.4257 28.5263L41.4913 28.4606C41.4611 28.786 41.4549 29.1131 41.4727 29.4394L41.4257 29.3925C41.7869 29.3491 42.1508 29.3326 42.5145 29.3431C42.8817 29.3575 43.2571 29.3876 43.6746 29.431ZM43.6915 32.1821C43.3566 32.2254 42.9795 32.2555 42.5943 32.2699C42.2041 32.2807 41.8136 32.2642 41.4257 32.2206L41.3759 32.2165L41.3787 32.1735C41.3964 31.8473 41.3902 31.5202 41.3601 31.1948L41.3552 31.136L41.4257 31.1292C41.8019 31.0929 42.1781 31.0835 42.5544 31.0725C42.9306 31.061 43.3068 31.0675 43.683 31.0919L43.7893 31.0989L43.7859 31.1948C43.7731 31.5467 43.7253 31.8885 43.6915 32.1821ZM43.6746 32.1651C43.6408 31.8061 43.593 31.4954 43.5802 31.1948L43.683 31.2976C43.3068 31.3222 42.9306 31.3287 42.5544 31.3171C42.1782 31.306 41.8019 31.2967 41.4257 31.2604L41.4913 31.1948C41.4611 31.5202 41.4549 31.8473 41.4727 32.1735L41.4257 32.1266C41.7869 32.0832 42.1508 32.0667 42.5145 32.0772C42.8817 32.0916 43.2571 32.1217 43.6746 32.1651ZM43.6915 34.9162C43.3566 34.9596 42.9795 34.9897 42.5943 35.004C42.2041 35.0148 41.8136 34.9984 41.4257 34.9547L41.3759 34.9507L41.3787 34.9077C41.3965 34.5814 41.3902 34.2543 41.3601 33.929L41.3552 33.8701L41.4257 33.8633C41.8019 33.8271 42.1781 33.8177 42.5544 33.8066C42.9306 33.7951 43.3068 33.8016 43.683 33.8261L43.7893 33.833L43.7859 33.929C43.7731 34.2808 43.7253 34.6226 43.6915 34.9162ZM43.6746 34.8993C43.6408 34.5403 43.593 34.2296 43.5802 33.929L43.683 34.0317C43.3068 34.0564 42.9306 34.0629 42.5544 34.0512C42.1782 34.0401 41.8019 34.0308 41.4257 33.9945L41.4913 33.929C41.4611 34.2543 41.4549 34.5814 41.4727 34.9077L41.4257 34.8607C41.7869 34.8174 42.1508 34.8009 42.5145 34.8114C42.8817 34.8258 43.2571 34.8559 43.6746 34.8993ZM70.6043 26.7105L64.4733 26.7721C62.4216 26.7883 60.3691 26.8153 58.3026 26.8156L55.2069 26.8239L52.1071 26.8155L45.9154 26.7756L45.8412 26.7752L45.8418 26.7021L45.8498 25.7298L45.8503 25.664L45.9154 25.6642C47.9721 25.6714 50.0288 25.6985 52.0855 25.6894C54.1422 25.6871 56.1989 25.652 58.2556 25.6343L61.3407 25.6221L64.4257 25.6349L67.5108 25.6583C68.5391 25.6662 69.5675 25.6805 70.5959 25.7012L70.6251 25.7017L70.6245 25.7298L70.6043 26.7105ZM70.5874 26.6936L70.5673 25.7298L70.5958 25.7584C69.5675 25.7777 68.5391 25.792 67.5108 25.8012L64.4257 25.8247L61.3407 25.8375L58.2556 25.8253C56.1989 25.8076 54.1422 25.7726 52.0855 25.7703C50.0288 25.7611 47.9721 25.7882 45.9154 25.7954L45.9809 25.7298L45.9889 26.7021L45.9154 26.6285L52.0639 26.5887L55.1343 26.5802L58.2086 26.5886C60.2556 26.5888 62.3165 26.6158 64.3782 26.6321L70.5874 26.6936ZM70.6043 29.4446L64.4733 29.5062C62.4216 29.5225 60.3691 29.5495 58.3026 29.5497L55.2069 29.5581L52.1071 29.5496L45.9154 29.5098L45.8412 29.5093L45.8418 29.4362L45.8498 28.4639L45.8503 28.3981L45.9154 28.3983C47.9721 28.4055 50.0288 28.4326 52.0855 28.4235C54.1422 28.4211 56.1989 28.3862 58.2556 28.3684L61.3407 28.3562L64.4257 28.369L67.5108 28.3925C68.5391 28.4003 69.5675 28.4146 70.5959 28.4353L70.6251 28.4358L70.6245 28.4639L70.6043 29.4446ZM70.5874 29.4277L70.5673 28.4639L70.5958 28.4926C69.5675 28.5118 68.5391 28.5261 67.5108 28.5354L64.4257 28.5589L61.3407 28.5716L58.2556 28.5594C56.1989 28.5416 54.1422 28.5067 52.0855 28.5043C50.0288 28.4952 47.9721 28.5223 45.9154 28.5295L45.9809 28.4639L45.9889 29.4362L45.9154 29.3626L52.0639 29.3228L55.1343 29.3143L58.2086 29.3227C60.2556 29.323 62.3165 29.3499 64.3782 29.3662L70.5874 29.4277ZM70.6043 32.1788L64.4733 32.2403C62.4216 32.2566 60.3691 32.2835 58.3026 32.2838L55.2069 32.2922L52.1071 32.2837L45.9154 32.2439L45.8412 32.2434L45.8418 32.1703L45.8498 31.1981L45.8503 31.1322L45.9154 31.1324C47.9721 31.1397 50.0288 31.1667 52.0855 31.1576C54.1422 31.1553 56.1989 31.1203 58.2556 31.1025L61.3407 31.0903L64.4257 31.1031L67.5108 31.1266C68.5391 31.1344 69.5675 31.1487 70.5959 31.1694L70.6251 31.17L70.6245 31.1981L70.6043 32.1788ZM70.5874 32.1619L70.5673 31.1981L70.5958 31.2267C69.5675 31.246 68.5391 31.2602 67.5108 31.2695L64.4257 31.2929L61.3407 31.3057L58.2556 31.2936C56.1989 31.2758 54.1422 31.2408 52.0855 31.2385C50.0288 31.2294 47.9721 31.2564 45.9154 31.2637L45.9809 31.1981L45.9889 32.1703L45.9154 32.0967L52.0639 32.0569L55.1343 32.0484L58.2086 32.0569C60.2556 32.0571 62.3165 32.084 64.3782 32.1003L70.5874 32.1619ZM70.6043 34.9129L64.4733 34.9744C62.4216 34.9907 60.3691 35.0177 58.3026 35.0179L55.2069 35.0263L52.1071 35.0179L45.9154 34.978L45.8412 34.9775L45.8418 34.9044L45.8498 33.9322L45.8503 33.8663L45.9154 33.8666C47.9721 33.8738 50.0288 33.9008 52.0855 33.8917C54.1422 33.8894 56.1989 33.8544 58.2556 33.8366L61.3407 33.8245L64.4257 33.8372L67.5108 33.8607C68.5391 33.8686 69.5675 33.8828 70.5958 33.9035L70.6251 33.9041L70.6245 33.9322L70.6043 34.9129ZM70.5874 34.896L70.5673 33.9322L70.5958 33.9608C69.5675 33.9801 68.5391 33.9944 67.5108 34.0036L64.4257 34.0271L61.3407 34.0398L58.2556 34.0277C56.1989 34.0099 54.1422 33.9749 52.0855 33.9726C50.0288 33.9635 47.9721 33.9906 45.9154 33.9978L45.9809 33.9322L45.9889 34.9044L45.9154 34.8308L52.0639 34.791L55.1343 34.7826L58.2086 34.791C60.2556 34.7912 62.3165 34.8182 64.3781 34.8345L70.5874 34.896Z" fill="currentColor"/>
</g>
<defs>
<clipPath id="clip0_73_1557">
<rect width="75" height="75" fill="currentColor"/>
</clipPath>
</defs>
</svg>
