<svg width="136" height="180" viewBox="0 0 136 180" fill="none" xmlns="http://www.w3.org/2000/svg">
<path d="M136.118 180H0V0H136.118V180ZM2.71338 177.287H133.405V2.71338H2.71338V177.287Z" fill="#A6ECC5"/>
<path d="M61.3319 66.5007H14.7268V15.729H61.3319V66.5007ZM17.5412 63.6863H58.5174V18.5434H17.5412V63.6863Z" fill="#A6ECC5"/>
<path d="M48.6127 34.4885L50.1553 39.2797C50.1256 39.2722 50.0951 39.2691 50.0645 39.2706C49.4275 39.2545 48.807 39.4743 48.3223 39.8878C48.3677 39.5974 48.3949 39.316 48.4221 39.062C48.5673 37.6193 48.6127 36.0041 48.6127 34.4885Z" fill="#A6ECC5"/>
<path d="M59.211 61.4753L51.0353 59.7329C51.0353 59.7329 46.5345 56.9834 45.8177 47.2833V47.0201C46.5994 45.7729 47.2041 44.423 47.6143 43.0094C47.7839 43.5186 48.1148 43.9588 48.5568 44.2633C48.9989 44.5678 49.528 44.7201 50.0643 44.6971C53.3038 44.6971 53.5397 40.0331 50.7721 39.3616C53.3854 34.5977 49.4109 34.1076 48.6124 34.0622C48.5943 31.2221 48.4219 28.8628 48.4219 28.8628C43.2678 31.6031 40.0555 24.9427 40.0555 24.9427C40.0555 24.9427 38.2498 29.4164 31.4442 29.9334V29.5161C30.7804 33.0357 30.6216 36.6319 30.9723 40.1963C30.755 39.9248 30.4824 39.7026 30.1727 39.5446C29.8629 39.3866 29.523 39.2963 29.1757 39.2798L30.8634 34.0531C30.8634 34.0531 25.7093 34.0894 28.5314 39.307C25.4643 39.7062 25.5913 44.697 28.9397 44.697C29.5098 44.7211 30.0707 44.5473 30.5272 44.2049C30.9837 43.8626 31.3077 43.3729 31.4442 42.8188C31.7163 43.9167 32.1216 44.9771 32.6511 45.9766V48.8621C32.6805 50.6847 32.2164 52.4812 31.3081 54.0616C27.8237 59.8873 19.7749 59.1523 19.7749 59.1523L15.501 58.6804C15.501 58.6804 25.9816 30.1332 27.6875 27.3838C29.3935 24.6343 38.6763 16.3133 48.6215 24.1987C48.6215 24.1987 53.5034 27.9099 59.211 61.4753Z" fill="#A6ECC5"/>
<path d="M20.5736 59.4779C20.0649 59.4779 19.7601 59.4522 19.7441 59.4513L19.7991 58.8505C19.8726 58.8567 27.7043 59.4938 31.0469 53.9031C31.9281 52.37 32.3787 50.6273 32.3513 48.8592V46.7041H32.9539V48.8592C32.9814 50.7365 32.5014 52.5863 31.5644 54.2133C28.6942 59.0135 22.7579 59.4779 20.5736 59.4779Z" fill="#A6ECC5"/>
<path d="M28.9439 59.2773C29.1784 59.2692 29.4006 59.1704 29.5636 59.0016C29.7266 58.8329 29.8177 58.6074 29.8177 58.3728C29.8177 58.1381 29.7266 57.9127 29.5636 57.7439C29.4006 57.5752 29.1784 57.4763 28.9439 57.4682C28.7094 57.4763 28.4872 57.5752 28.3242 57.7439C28.1612 57.9127 28.0701 58.1381 28.0701 58.3728C28.0701 58.6074 28.1612 58.8329 28.3242 59.0016C28.4872 59.1704 28.7094 59.2692 28.9439 59.2773ZM31.4404 61.8824C31.6749 61.8743 31.8971 61.7754 32.0601 61.6067C32.2231 61.4379 32.3142 61.2125 32.3142 60.9778C32.3142 60.7432 32.2231 60.5177 32.0601 60.349C31.8971 60.1802 31.6749 60.0814 31.4404 60.0733C31.2059 60.0814 30.9837 60.1802 30.8207 60.349C30.6577 60.5177 30.5666 60.7432 30.5666 60.9778C30.5666 61.2125 30.6577 61.4379 30.8207 61.6067C30.9837 61.7754 31.2059 61.8743 31.4404 61.8824ZM34.4254 64.4332C34.6599 64.4251 34.8821 64.3262 35.0451 64.1575C35.2081 63.9887 35.2992 63.7633 35.2992 63.5286C35.2992 63.294 35.2081 63.0686 35.0451 62.8998C34.8821 62.7311 34.6599 62.6322 34.4254 62.6241C34.1909 62.6322 33.9687 62.7311 33.8057 62.8998C33.6427 63.0686 33.5516 63.294 33.5516 63.5286C33.5516 63.7633 33.6427 63.9887 33.8057 64.1575C33.9687 64.3262 34.1909 64.4251 34.4254 64.4332ZM47.2337 63.5105C47.4681 63.5024 47.6903 63.4036 47.8534 63.2348C48.0164 63.0661 48.1075 62.8406 48.1075 62.606C48.1075 62.3714 48.0164 62.1459 47.8534 61.9772C47.6903 61.8084 47.4681 61.7096 47.2337 61.7015C46.9992 61.7096 46.777 61.8084 46.614 61.9772C46.451 62.1459 46.3598 62.3714 46.3598 62.606C46.3598 62.8406 46.451 63.0661 46.614 63.2348C46.777 63.4036 46.9992 63.5024 47.2337 63.5105ZM49.4588 59.3316C49.6933 59.3235 49.9155 59.2246 50.0785 59.0559C50.2415 58.8871 50.3326 58.6617 50.3326 58.427C50.3326 58.1924 50.2415 57.967 50.0785 57.7982C49.9155 57.6295 49.6933 57.5306 49.4588 57.5225C49.2243 57.5306 49.0021 57.6295 48.8391 57.7982C48.6761 57.967 48.585 58.1924 48.585 58.427C48.585 58.6617 48.6761 58.8871 48.8391 59.0559C49.0021 59.2246 49.2243 59.3235 49.4588 59.3316ZM31.9289 32.2678C32.7214 31.9872 33.5497 31.8199 34.389 31.7709C35.2876 31.6506 36.1987 31.8707 36.9433 32.3879C37.5039 33.0798 37.852 33.9194 37.9453 34.8051C38.0948 35.6367 38.079 36.4896 37.8988 37.3151C37.8444 36.4989 37.7057 35.6904 37.4849 34.9028C37.3826 34.5175 37.2543 34.1397 37.101 33.7718C36.974 33.4243 36.7814 33.1045 36.5335 32.8298C35.8952 32.4204 35.1476 32.2145 34.3897 32.2395C33.5843 32.2058 32.7605 32.2213 31.9289 32.2678ZM37.5732 38.5289C37.8522 38.7242 38.1044 38.9553 38.3234 39.2163C38.5174 39.4639 38.7392 39.6884 38.9843 39.8856C38.8941 39.9415 38.7925 39.9764 38.687 39.9879C38.5816 39.9994 38.4748 39.9872 38.3747 39.952C38.18 39.8864 38.0062 39.77 37.8714 39.6149C37.7395 39.4702 37.6437 39.2964 37.5919 39.1077C37.54 38.9189 37.5336 38.7206 37.5732 38.5289ZM41.7521 38.4006C41.9046 38.6544 41.9551 38.9566 41.8935 39.2462C41.8271 39.564 41.6376 39.8425 41.3664 40.0209C41.1028 40.1788 40.7977 40.2538 40.4909 40.2362C40.2076 40.215 39.9338 40.1251 39.693 39.9744C40.1592 39.8786 40.6115 39.7242 41.039 39.5149C41.4011 39.2396 41.6538 38.8447 41.7521 38.4006ZM41.5351 32.4306C42.2902 32.0107 43.1377 31.7844 44.0016 31.7718C44.8752 31.7188 45.7425 31.9499 46.4738 32.4306C45.6564 32.3692 44.8364 32.3504 44.017 32.3744C43.2063 32.3912 42.3995 32.4477 41.5351 32.4306ZM40.7294 34.3844C40.9422 34.6783 41.0821 35.0186 41.1372 35.3773C41.1924 35.7359 41.1614 36.1026 41.0467 36.4469C40.767 36.1913 40.5878 35.8442 40.5415 35.4681C40.4764 35.096 40.5428 34.7129 40.7294 34.3844Z" fill="#A6ECC5"/>
<path d="M34.4798 35.9405C34.7143 35.9324 34.9365 35.8336 35.0995 35.6648C35.2625 35.4961 35.3536 35.2706 35.3536 35.036C35.3536 34.8014 35.2625 34.5759 35.0995 34.4072C34.9365 34.2384 34.7143 34.1396 34.4798 34.1315C34.2453 34.1396 34.0231 34.2384 33.8601 34.4072C33.6971 34.5759 33.606 34.8014 33.606 35.036C33.606 35.2706 33.6971 35.4961 33.8601 35.6648C34.0231 35.8336 34.2453 35.9324 34.4798 35.9405ZM43.8689 35.832C44.1034 35.8239 44.3255 35.7251 44.4886 35.5563C44.6516 35.3876 44.7427 35.1621 44.7427 34.9275C44.7427 34.6929 44.6516 34.4674 44.4886 34.2986C44.3255 34.1299 44.1034 34.0311 43.8689 34.0229C43.6344 34.0311 43.4122 34.1299 43.2492 34.2986C43.0862 34.4674 42.9951 34.6929 42.9951 34.9275C42.9951 35.1621 43.0862 35.3876 43.2492 35.5563C43.4122 35.7251 43.6344 35.8239 43.8689 35.832ZM36.3793 43.611C36.9084 43.9934 37.4744 44.3217 38.069 44.5911C38.6329 44.8519 39.2417 45.0019 39.8623 45.0331C40.4765 45.0632 41.0882 44.9356 41.6391 44.6624C42.222 44.376 42.7699 44.0232 43.2719 43.611C43.0858 43.8934 42.8827 44.1643 42.6639 44.4221C42.4255 44.6725 42.1568 44.8922 41.864 45.076C41.2657 45.4724 40.5569 45.6683 39.84 45.6354C39.1472 45.5837 38.4752 45.3744 37.8755 45.0236C37.2757 44.6727 36.764 44.1896 36.3793 43.611Z" fill="#A6ECC5"/>
<path d="M48.4766 34.0532C48.4766 34.0532 48.5219 34.0532 48.6126 34.0623V34.4799L48.4766 34.0532Z" fill="#A6ECC5"/>
<path d="M31.4404 29.9304L32.7288 29.754C33.1501 29.653 33.5803 29.5905 33.9925 29.4585C34.8235 29.2243 35.6258 28.8983 36.3847 28.4866C37.1327 28.0648 37.821 27.5449 38.4314 26.9407C39.0378 26.3467 39.5362 25.6516 39.9042 24.8867L40.0433 24.5823L40.1982 24.8769C40.5996 25.6302 41.086 26.3349 41.648 26.9773C42.1966 27.6235 42.8455 28.1773 43.57 28.6173C44.2874 29.0379 45.1015 29.2655 45.9331 29.278C46.7632 29.255 47.5759 29.0351 48.3044 28.6364L48.6529 28.4787L48.6783 28.8424C48.8287 30.9971 48.9037 33.1486 48.8866 35.3081C48.9208 37.4802 48.7077 39.649 48.2512 41.7728C47.7964 43.9213 46.9105 45.9553 45.647 47.7516C44.9821 48.6491 44.1483 49.408 43.1924 49.9858C42.694 50.2463 42.165 50.4434 41.6177 50.5726C41.3424 50.626 41.0693 50.7053 40.7919 50.735L39.9528 50.7463L39.5335 50.7505L39.1232 50.6803L38.3034 50.5359C37.7713 50.3944 37.2474 50.2239 36.7341 50.0252C35.6977 49.6208 34.7613 48.9966 33.9894 48.1955C32.5223 46.553 31.5402 44.5353 31.1525 42.3674C30.7211 40.246 30.5598 38.0785 30.6725 35.9167C30.7548 33.7647 31.0116 31.6229 31.4404 29.5125C31.0814 31.6301 30.895 33.7733 30.8827 35.9211C30.8468 38.0599 31.0579 40.1957 31.5119 42.2861C31.9205 44.3673 32.8979 46.2945 34.3357 47.8537C35.0732 48.5908 35.9565 49.1658 36.9289 49.542C37.4181 49.7275 37.9169 49.8867 38.4231 50.0188L39.1916 50.1491L39.5757 50.2142L39.9623 50.206L40.7348 50.1925C40.9889 50.1637 41.236 50.087 41.4869 50.0381C41.9846 49.9177 42.4654 49.7361 42.9183 49.4973C43.8014 48.9529 44.5704 48.2422 45.1827 47.4047C45.8002 46.5537 46.3099 45.6295 46.7001 44.6532C47.1077 43.676 47.4352 42.6674 47.6797 41.6372C48.139 39.5571 48.3599 37.4314 48.3381 35.3012C48.3681 33.1625 48.3061 31.0143 48.17 28.8802L48.5438 29.0863C47.7375 29.5109 46.841 29.7357 45.9298 29.7418C45.0204 29.7133 44.134 29.4493 43.3573 28.9755C42.604 28.5001 41.9323 27.9065 41.3679 27.2174C40.7984 26.5425 40.3087 25.8041 39.9085 25.0169L40.2024 25.0071C39.8077 25.8055 39.2668 26.5228 38.6078 27.1219C37.964 27.7197 37.2432 28.2286 36.4645 28.6353C35.6838 29.0268 34.8619 29.3303 34.0141 29.54C33.5954 29.6592 33.1606 29.7082 32.7356 29.7957L31.4404 29.9304Z" fill="#A6ECC5"/>
<path d="M31.4443 42.8185C31.2312 41.9553 31.0736 41.0794 30.9724 40.196L31.4443 42.8185Z" fill="#A6ECC5"/>
<path d="M39.2112 31.9082C39.4457 31.9001 39.6679 31.8012 39.8309 31.6325C39.9939 31.4637 40.0851 31.2383 40.0851 31.0037C40.0851 30.769 39.9939 30.5436 39.8309 30.3748C39.6679 30.2061 39.4457 30.1072 39.2112 30.0991C38.9768 30.1072 38.7546 30.2061 38.5915 30.3748C38.4285 30.5436 38.3374 30.769 38.3374 31.0037C38.3374 31.2383 38.4285 31.4637 38.5915 31.6325C38.7546 31.8012 38.9768 31.9001 39.2112 31.9082Z" fill="#FB9B9B"/>
<path d="M120.32 47.7373H74.3281V50.4848H120.32V47.7373Z" fill="#A6ECC5"/>
<path d="M120.289 32.5461H74.2966V35.2936H120.289V32.5461Z" fill="#A6ECC5"/>
<path d="M120.32 63.6663H74.3281V66.4137H120.32V63.6663Z" fill="#A6ECC5"/>
<path d="M120.319 17.553H74.2693V20.3005H120.319V17.553Z" fill="#A6ECC5"/>
<path d="M120.318 163.137H65.7939V165.885H120.318V163.137Z" fill="#A6ECC5"/>
<path d="M120.288 147.946H65.7625V150.693H120.288V147.946Z" fill="#A6ECC5"/>
<path d="M120.318 132.952H65.7349V135.699H120.318V132.952Z" fill="#A6ECC5"/>
<path d="M34.2831 127.028C31.6239 127.03 28.9944 127.588 26.5635 128.666C24.1581 129.743 21.9888 131.283 20.1799 133.2C16.5903 137.028 14.5534 142.055 14.4658 147.303C14.4074 149.927 14.8706 152.537 15.8285 154.981C16.7865 157.425 18.2201 159.654 20.0463 161.54C21.9056 163.414 24.1263 164.89 26.5737 165.88C29.021 166.87 31.6439 167.352 34.2833 167.298C39.5437 167.173 44.5504 165.011 48.2485 161.268C51.8969 157.534 53.944 152.523 53.9542 147.303C53.95 142.068 51.9546 137.03 48.3729 133.213C46.5694 131.293 44.4028 129.751 41.9988 128.675C39.569 127.597 36.9414 127.036 34.2831 127.028ZM34.2831 126.904C39.7234 126.88 44.9687 128.928 48.9535 132.632C50.9531 134.506 52.5436 136.773 53.6253 139.29C54.7125 141.824 55.277 144.55 55.2848 147.307C55.2927 150.064 54.7438 152.794 53.671 155.334C52.5975 157.867 51.0371 160.165 49.0783 162.097C47.1298 164.016 44.8169 165.525 42.2759 166.535C39.7349 167.546 37.0173 168.037 34.2833 167.981C28.8338 167.859 23.6373 165.657 19.7602 161.826C17.8308 159.93 16.2754 157.689 15.1751 155.218C14.0763 152.721 13.4824 150.031 13.4274 147.303C13.3896 144.564 13.921 141.847 14.988 139.324C16.0551 136.8 17.6345 134.527 19.6262 132.646C23.6054 128.94 28.8456 126.887 34.2831 126.904Z" fill="#A6ECC5"/>
<path d="M34.2828 158.299C31.3371 158.319 28.4867 157.256 26.2742 155.311C25.1549 154.305 24.2672 153.067 23.6725 151.685C23.0777 150.302 22.79 148.807 22.8292 147.302C22.8826 145.809 23.2332 144.341 23.8606 142.985C24.4876 141.655 25.3507 140.449 26.4081 139.427C28.5208 137.357 31.3273 136.145 34.2831 136.026C35.7822 135.968 37.2775 136.216 38.678 136.754C40.0786 137.292 41.355 138.109 42.4298 139.156C43.5226 140.212 44.3915 141.478 44.9847 142.878C45.5778 144.278 45.8832 145.782 45.8825 147.303C45.8808 148.816 45.5615 150.311 44.9452 151.693C44.329 153.075 43.4295 154.312 42.305 155.325C40.0868 157.267 37.2314 158.326 34.2828 158.299ZM34.2828 158.174C35.6949 158.159 37.0879 157.846 38.3703 157.255C39.6528 156.663 40.7958 155.808 41.7244 154.744C43.5449 152.693 44.5507 150.045 44.5519 147.303C44.5445 144.575 43.4875 141.955 41.6 139.985C39.6665 138.002 37.0499 136.831 34.283 136.71C32.8786 136.653 31.4779 136.892 30.171 137.409C28.864 137.926 27.6797 138.711 26.6942 139.714C25.7396 140.725 24.9976 141.918 24.5121 143.222C24.0266 144.525 23.8075 145.913 23.8676 147.302C23.9524 150.057 24.9998 152.695 26.8279 154.757C27.7595 155.82 28.9052 156.674 30.19 157.263C31.4748 157.852 32.8696 158.162 34.2828 158.174Z" fill="#A6ECC5"/>
<path d="M33.7732 158.225C31.4304 158.119 29.1845 157.259 27.3698 155.774L21.4254 163.058C21.4684 163.093 21.512 163.128 21.5554 163.163C21.8285 163.382 22.1067 163.594 22.39 163.799L22.3908 163.8C25.3457 165.93 28.8187 167.227 32.4466 167.556C32.49 167.559 32.5334 167.563 32.5768 167.567C32.6664 167.575 32.756 167.581 32.8456 167.588C32.9292 167.594 33.0129 167.599 33.0968 167.604C33.1599 167.607 33.223 167.611 33.2862 167.614L33.3349 167.616L33.7732 158.225ZM23.3484 147.303C23.3455 145.358 23.8639 143.448 24.8495 141.771L16.7396 137.016C15.1499 139.728 14.2104 142.771 13.9949 145.907L13.9881 146.015C13.9772 146.185 13.9687 146.356 13.9625 146.526C13.9606 146.578 13.9581 146.629 13.9566 146.681C13.9504 146.885 13.9465 147.089 13.9464 147.294L13.9463 147.303L13.9465 147.317C13.9466 147.505 13.9495 147.693 13.955 147.881C13.9563 147.929 13.9588 147.976 13.9604 148.024C13.9658 148.176 13.9722 148.327 13.981 148.478C13.9833 148.519 13.9861 148.559 13.9886 148.599C13.9994 148.769 14.0119 148.938 14.027 149.108L14.0314 149.158C14.2727 151.792 15.0253 154.353 16.2471 156.699L24.5842 152.355C23.7699 150.796 23.3459 149.062 23.3484 147.303ZM54.6177 147.181C54.6167 147.017 54.6142 146.853 54.6092 146.69C54.6071 146.618 54.6039 146.546 54.601 146.473C54.5947 146.318 54.5867 146.163 54.5771 146.009C54.574 145.959 54.5711 145.909 54.5676 145.86C54.3726 143.149 53.637 140.504 52.4043 138.082C51.1716 135.659 49.4667 133.508 47.39 131.755L47.3598 131.729C46.3054 130.843 45.1634 130.066 43.9515 129.411L39.4824 137.681C40.8197 138.405 41.9916 139.399 42.9232 140.6C43.8548 141.802 44.5257 143.185 44.893 144.66C45.2604 146.135 45.3161 147.671 45.0567 149.169C44.7972 150.667 44.2283 152.095 43.3863 153.361L51.2132 158.57C53.0071 155.874 54.1314 152.789 54.4926 149.571L54.4969 149.533C54.5079 149.433 54.5178 149.334 54.5273 149.234C54.5335 149.168 54.5394 149.102 54.5449 149.036C54.5511 148.964 54.5575 148.891 54.5629 148.819C54.5737 148.673 54.583 148.526 54.5908 148.379C54.5925 148.348 54.5936 148.317 54.5951 148.287C54.6017 148.147 54.607 148.008 54.611 147.868L54.6129 147.8C54.6169 147.635 54.619 147.469 54.6192 147.303C54.6192 147.262 54.6179 147.221 54.6177 147.181Z" fill="#A6ECC5"/>
<path d="M120.32 77.0691H32.4319V80.5316H120.32V77.0691Z" fill="#A6ECC5"/>
<path d="M85.4561 86.8054H32.4319V90.2679H85.4561V86.8054Z" fill="#A6ECC5"/>
<path d="M107.369 96.5425H32.4319V100.005H107.369V96.5425Z" fill="#A6ECC5"/>
<path d="M75.5723 106.278H32.4319V109.741H75.5723V106.278Z" fill="#A6ECC5"/>
<path d="M99.2711 116.014H32.4319V119.477H99.2711V116.014Z" fill="#A6ECC5"/>
<path d="M24.5127 80.5733C23.32 80.7279 21.9773 80.8349 20.6054 80.8863C19.2159 80.9247 17.8254 80.866 16.4441 80.7106L16.2668 80.696L16.2767 80.5432C16.3399 79.3813 16.3178 78.2164 16.2104 77.0577L16.1931 76.8482L16.4441 76.824C17.7838 76.6949 19.1236 76.6616 20.4632 76.6222C21.803 76.5812 23.1427 76.6043 24.4824 76.6915L24.8611 76.7163L24.8487 77.0577C24.8033 78.3107 24.6331 79.5281 24.5127 80.5733ZM24.4524 80.513C24.332 79.2348 24.1619 78.1284 24.1164 77.0577L24.4824 77.4239C23.1428 77.5114 21.803 77.5346 20.4633 77.4933C19.1236 77.4538 17.7838 77.4204 16.4441 77.2912L16.6776 77.0577C16.5703 78.2164 16.5482 79.3813 16.6114 80.5432L16.4441 80.3759C17.7303 80.2214 19.0263 80.1626 20.3212 80.2C21.6289 80.2514 22.9656 80.3584 24.4524 80.513ZM24.5127 90.3096C23.32 90.464 21.9773 90.5712 20.6054 90.6224C19.2159 90.6609 17.8254 90.6022 16.4441 90.4467L16.2668 90.4323L16.2767 90.2792C16.3399 89.1174 16.3178 87.9524 16.2104 86.7938L16.1931 86.5845L16.4441 86.5601C17.7838 86.4312 19.1236 86.3977 20.4632 86.3583C21.803 86.3173 23.1427 86.3404 24.4824 86.4277L24.8611 86.4525L24.8487 86.7939C24.8033 88.0468 24.6331 89.2642 24.5127 90.3096ZM24.4524 90.2491C24.332 88.9708 24.1619 87.8645 24.1164 86.7938L24.4824 87.16C23.1428 87.2475 21.803 87.2706 20.4633 87.2293C19.1236 87.1899 17.7838 87.1564 16.4441 87.0273L16.6776 86.7938C16.5703 87.9524 16.5482 89.1174 16.6114 90.2792L16.4441 90.112C17.7303 89.9574 19.0263 89.8987 20.3212 89.9363C21.6289 89.9875 22.9656 90.0947 24.4524 90.2491ZM24.5127 100.046C23.32 100.2 21.9773 100.308 20.6054 100.359C19.2159 100.397 17.8254 100.338 16.4441 100.183L16.2668 100.169L16.2767 100.016C16.3399 98.8537 16.3178 97.6887 16.2104 96.5301L16.1931 96.3208L16.4441 96.2967C17.7838 96.1675 19.1236 96.134 20.4632 96.0946C21.803 96.0536 23.1427 96.0768 24.4824 96.164L24.8611 96.1888L24.8487 96.5302C24.8033 97.7833 24.6331 99.0005 24.5127 100.046ZM24.4524 99.9854C24.332 98.7071 24.1619 97.6008 24.1164 96.5301L24.4824 96.8963C23.1428 96.984 21.803 97.0071 20.4633 96.9656C19.1236 96.9262 17.7838 96.8927 16.4441 96.7638L16.6776 96.5301C16.5703 97.6887 16.5482 98.8537 16.6114 100.016L16.4441 99.8483C17.7303 99.6937 19.0263 99.635 20.3212 99.6726C21.6289 99.7238 22.9656 99.831 24.4524 99.9854ZM24.5127 109.782C23.32 109.937 21.9773 110.044 20.6054 110.095C19.2159 110.133 17.8254 110.075 16.4441 109.919L16.2668 109.905L16.2767 109.752C16.3399 108.59 16.3178 107.425 16.2104 106.267L16.1931 106.057L16.4441 106.033C17.7838 105.904 19.1236 105.87 20.4632 105.831C21.803 105.79 23.1427 105.813 24.4824 105.9L24.8611 105.925L24.8487 106.267C24.8033 107.52 24.6331 108.737 24.5127 109.782ZM24.4524 109.722C24.332 108.443 24.1619 107.337 24.1164 106.267L24.4824 106.633C23.1428 106.72 21.803 106.743 20.4633 106.702C19.1236 106.663 17.7838 106.629 16.4441 106.5L16.6776 106.267C16.5703 107.425 16.5482 108.59 16.6114 109.752L16.4441 109.585C17.7303 109.43 19.0263 109.371 20.3212 109.409C21.6289 109.46 22.9656 109.567 24.4524 109.722ZM24.5127 119.518C23.32 119.673 21.9773 119.78 20.6054 119.831C19.2159 119.87 17.8254 119.811 16.4441 119.656L16.2668 119.641L16.2767 119.488C16.3399 118.326 16.3178 117.161 16.2104 116.003L16.1931 115.793L16.4441 115.769C17.7838 115.64 19.1236 115.607 20.4632 115.567C21.803 115.526 23.1427 115.549 24.4824 115.636L24.8611 115.661L24.8487 116.003C24.8033 117.256 24.6331 118.473 24.5127 119.518ZM24.4524 119.458C24.332 118.18 24.1619 117.073 24.1164 116.003L24.4824 116.369C23.1428 116.457 21.803 116.48 20.4633 116.438C19.1236 116.399 17.7838 116.366 16.4441 116.236L16.6776 116.003C16.5703 117.161 16.5482 118.326 16.6114 119.488L16.4441 119.321C17.7303 119.167 19.0263 119.108 20.3212 119.145C21.6289 119.197 22.9656 119.304 24.4524 119.458ZM120.35 90.2978L98.5173 90.5172C91.211 90.5749 83.9019 90.6711 76.5433 90.672L65.5192 90.7017L54.4809 90.6716L32.432 90.5298L32.1677 90.5282L32.1698 90.2677L32.1983 86.8055L32.2002 86.5712L32.4319 86.5718C39.7559 86.5975 47.0799 86.6939 54.4039 86.6616C61.7279 86.6534 69.0518 86.5286 76.3758 86.4653L87.3618 86.4221L98.3477 86.4675L109.334 86.551C112.996 86.5789 116.658 86.6298 120.32 86.7036L120.424 86.7054L120.422 86.8055L120.35 90.2978ZM120.29 90.2376L120.218 86.8055L120.32 86.9075C116.658 86.9761 112.996 87.0269 109.334 87.0599L98.3477 87.1436L87.3617 87.1891L76.3758 87.1456C69.0518 87.0825 61.7278 86.9578 54.4039 86.9496C47.0799 86.917 39.7559 87.0134 32.4319 87.0391L32.6654 86.8056L32.6939 90.2678L32.4319 90.0057L54.3268 89.8639L65.2606 89.8338L76.2084 89.8637C83.4978 89.8646 90.8366 89.9605 98.1783 90.0185L120.29 90.2376ZM120.35 100.034L98.5173 100.253C91.211 100.311 83.9019 100.407 76.5433 100.408L65.5192 100.438L54.4809 100.408L32.432 100.266L32.1677 100.265L32.1698 100.004L32.1983 96.5418L32.2002 96.3072L32.4319 96.3081C39.7559 96.3338 47.0799 96.4302 54.4039 96.3978C61.7279 96.3894 69.0518 96.2649 76.3758 96.2016L87.3618 96.1582L98.3477 96.2038L109.334 96.2873C112.996 96.3152 116.658 96.366 120.32 96.4397L120.424 96.4417L120.422 96.5418L120.35 100.034ZM120.29 99.9739L120.218 96.5418L120.32 96.6438C116.658 96.7124 112.996 96.7632 109.334 96.7962L98.3477 96.8799L87.3617 96.9253L76.3758 96.8819C69.0518 96.8185 61.7278 96.694 54.4039 96.6856C47.0799 96.6533 39.7559 96.7496 32.4319 96.7753L32.6654 96.5418L32.6939 100.004L32.4319 99.7419L54.3268 99.6001L65.2606 99.57L76.2084 99.5999C83.4978 99.6008 90.8366 99.6967 98.1783 99.7548L120.29 99.9739ZM120.35 109.77L98.5173 109.99C91.211 110.048 83.9019 110.144 76.5433 110.144L65.5192 110.174L54.4809 110.144L32.432 110.002L32.1677 110.001L32.1698 109.74L32.1983 106.278L32.2002 106.044L32.4319 106.044C39.7559 106.07 47.0799 106.166 54.4039 106.134C61.7279 106.126 69.0518 106.001 76.3758 105.938L87.3618 105.894L98.3477 105.94L109.334 106.024C112.996 106.052 116.658 106.102 120.32 106.176L120.424 106.178L120.422 106.278L120.35 109.77ZM120.29 109.71L120.218 106.278L120.32 106.38C116.658 106.449 112.996 106.5 109.334 106.532L98.3477 106.616L87.3617 106.661L76.3757 106.618C69.0517 106.555 61.7278 106.43 54.4038 106.422C47.0798 106.39 39.7559 106.486 32.4319 106.512L32.6654 106.278L32.6939 109.74L32.4319 109.478L54.3268 109.336L65.2605 109.306L76.2084 109.336C83.4977 109.337 90.8366 109.433 98.1783 109.491L120.29 109.71ZM120.35 119.507L98.5173 119.726C91.211 119.784 83.9019 119.88 76.5433 119.881L65.5192 119.911L54.4809 119.88L32.432 119.739L32.1677 119.737L32.1698 119.476L32.1983 116.014L32.2002 115.78L32.4319 115.781C39.7559 115.806 47.0799 115.903 54.4039 115.87C61.7279 115.862 69.0518 115.737 76.3758 115.674L87.3617 115.631L98.3476 115.676L109.334 115.76C112.996 115.788 116.658 115.839 120.32 115.912L120.424 115.914L120.422 116.014L120.35 119.507ZM120.29 119.446L120.218 116.014L120.32 116.116C116.658 116.185 112.996 116.236 109.334 116.269L98.3477 116.352L87.3617 116.398L76.3757 116.354C69.0517 116.291 61.7278 116.166 54.4038 116.158C47.0798 116.126 39.7558 116.222 32.4318 116.248L32.6653 116.014L32.6939 119.476L32.4318 119.215L54.3268 119.073L65.2605 119.043L76.2084 119.073C83.4977 119.073 90.8366 119.169 98.1783 119.227L120.29 119.446Z" fill="#A6ECC5"/>
</svg>
