<svg width="75" height="75" viewBox="0 0 75 75" fill="none" xmlns="http://www.w3.org/2000/svg">
<path d="M55.374 62.8385C55.374 62.8385 55.2579 62.849 55.0362 62.8649C55.2236 62.9863 55.3265 62.9625 55.374 62.8385ZM55.06 60.4076L55.374 62.8385C55.5113 62.4953 55.2157 61.3736 55.06 60.4076Z" fill="#9BDEFB"/>
<path d="M13.9227 39.4324L15.4747 44.9303C15.6592 45.5806 15.6755 46.2672 15.5222 46.9256C15.2077 48.4141 15.01 49.9249 14.9309 51.4442C14.6459 55.5933 14.931 56.8286 15.9128 56.6069C16.8946 56.3851 16.6413 53.7247 16.6413 53.7247C16.9122 54.7852 17.4376 55.7636 18.1721 56.5752C18.3069 56.7244 18.4747 56.84 18.6622 56.9129C18.8496 56.9857 19.0514 57.0138 19.2516 56.9949C20.2308 56.884 19.7493 55.96 19.7308 55.8624C19.9744 56.2926 20.3455 56.6367 20.7929 56.8471C20.9893 56.965 21.2129 57.03 21.442 57.0355C21.671 57.0411 21.8976 56.987 22.0995 56.8787C22.7039 56.533 22.3106 55.8652 22.2816 55.8177C22.5188 55.9657 22.7929 56.044 23.0725 56.0435C23.3521 56.0431 23.6259 55.9639 23.8626 55.8151C24.7283 55.018 23.955 54.4795 23.4139 54.2288C22.994 54.0451 22.6132 53.7826 22.2922 53.4554C21.086 52.1886 21.3948 51.014 21.4397 50.5126C21.4467 50.3813 21.4998 50.2567 21.5896 50.1606C21.6793 50.0646 21.8001 50.0032 21.9306 49.9873C22.0241 49.9759 22.119 49.9863 22.2079 50.0175C22.2968 50.0488 22.3773 50.1001 22.4432 50.1675C22.5091 50.2349 22.5585 50.3165 22.5877 50.4061C22.6169 50.4957 22.625 50.5908 22.6115 50.6841C22.6032 50.9439 22.6626 51.2015 22.7839 51.4314C22.9051 51.6614 23.084 51.8559 23.303 51.9959C23.6094 52.1977 23.9747 52.2907 24.3403 52.2598C25.4304 52.1727 24.7521 50.9454 24.7521 50.9454C24.7521 50.9454 23.8784 49.507 24.116 48.5621C24.3562 47.6066 22.9652 46.1602 22.0784 45.2338C21.4456 44.5729 21.0589 43.7148 20.983 42.8029L20.3945 35.8587L30.9625 36.5371C39.6672 44.5528 45.7984 36.7799 45.7984 36.7799C47.1868 38.8439 48.9789 39.4298 48.9789 39.4298C51.65 41.4278 58.3883 37.416 58.3883 37.416C58.3883 37.416 63.3556 39.1738 63.3371 44.1358C63.3172 45.2653 63.0472 46.3764 62.5466 47.3891C62.0459 48.4018 61.3271 49.2909 60.4417 49.9926C58.5361 51.5366 55.4876 53.6297 52.9696 53.6297L46.3765 52.6029C45.2811 52.4208 44.1805 52.2519 43.0904 52.046C41.9835 51.9025 40.9618 51.437 39.9153 51.1011C39.712 51.0378 39.5062 50.9744 39.3029 50.9111C40.1739 50.1879 41.037 49.4568 41.9318 48.7679C42.8555 48.0342 43.8057 47.3347 44.7717 46.659C45.7324 45.9755 46.7222 45.3367 47.7278 44.7165C48.2267 44.405 48.7361 44.1094 49.2534 43.8217C49.7654 43.5288 50.2863 43.2507 50.8159 42.9877C49.7164 43.4288 48.65 43.9483 47.6249 44.5423C46.5929 45.1282 45.5979 45.7749 44.6186 46.4426C44.1409 46.7937 43.6553 47.1315 43.1907 47.4984L42.4887 48.0421C42.2564 48.2295 42.0294 48.4195 41.8024 48.6096C41.3432 48.9843 40.9103 49.3882 40.4643 49.7762C40.0657 50.1483 39.6751 50.5284 39.2897 50.9058C38.4346 50.6419 37.5768 50.3911 36.7163 50.1457C35.6448 49.8395 34.5758 49.5333 33.4989 49.2562C31.3452 48.694 29.1888 48.1292 26.9982 47.7386C28.0829 47.984 29.1598 48.2638 30.2314 48.5594C31.3056 48.8471 32.3772 49.1445 33.4462 49.4515C35.5814 50.0639 37.7219 50.6709 39.8361 51.3519C40.912 51.6924 41.925 52.1452 43.0482 52.281C44.1462 52.4763 45.2442 52.6531 46.3474 52.8036C48.5513 53.1124 50.7578 53.3948 52.9696 53.6297C52.9696 53.6297 49.6757 55.8467 52.9696 60.4076C54.0597 61.9173 54.6905 62.6405 55.0363 62.8649C52.5526 63.0496 36.7401 64.0447 19.8613 60.8352C17.9538 60.4914 16.1726 59.6449 14.7013 58.3832C11.6977 55.7491 8.86829 50.2697 13.9227 39.4324ZM53.1359 62.6378C53.2385 62.6342 53.3356 62.5909 53.4069 62.517C53.4782 62.4432 53.518 62.3446 53.518 62.2419C53.518 62.1393 53.4782 62.0407 53.4069 61.9668C53.3356 61.893 53.2385 61.8497 53.1359 61.846C53.0334 61.8497 52.9362 61.893 52.865 61.9668C52.7937 62.0407 52.7539 62.1393 52.7539 62.2419C52.7539 62.3446 52.7937 62.4432 52.865 62.517C52.9362 62.5909 53.0334 62.6342 53.1359 62.6378ZM51.7423 61.1176C51.8449 61.1139 51.942 61.0706 52.0133 60.9967C52.0845 60.9229 52.1244 60.8243 52.1244 60.7217C52.1244 60.619 52.0845 60.5204 52.0133 60.4466C51.942 60.3727 51.8449 60.3294 51.7423 60.3257C51.6398 60.3294 51.5426 60.3727 51.4714 60.4466C51.4001 60.5204 51.3603 60.619 51.3603 60.7217C51.3603 60.8243 51.4001 60.9229 51.4714 60.9967C51.5426 61.0706 51.6398 61.1139 51.7423 61.1176ZM51.1722 53.8646C51.0695 53.868 50.9721 53.9112 50.9006 53.985C50.8292 54.0589 50.7892 54.1577 50.7892 54.2605C50.7892 54.3633 50.8292 54.462 50.9006 54.5359C50.9721 54.6098 51.0695 54.653 51.1722 54.6564C51.275 54.653 51.3724 54.6098 51.4438 54.5359C51.5153 54.462 51.5553 54.3633 51.5553 54.2605C51.5553 54.1577 51.5153 54.0589 51.4438 53.985C51.3724 53.9112 51.275 53.868 51.1722 53.8646ZM50.6021 58.8371C50.7047 58.8335 50.8018 58.7902 50.8731 58.7163C50.9443 58.6425 50.9841 58.5438 50.9841 58.4412C50.9841 58.3386 50.9443 58.24 50.8731 58.1661C50.8018 58.0923 50.7047 58.049 50.6021 58.0453C50.4996 58.049 50.4024 58.0923 50.3312 58.1661C50.2599 58.24 50.2201 58.3386 50.2201 58.4412C50.2201 58.5438 50.2599 58.6425 50.3312 58.7163C50.4024 58.7902 50.4996 58.8335 50.6021 58.8371ZM50.3488 56.5567C50.4513 56.5531 50.5485 56.5097 50.6197 56.4359C50.691 56.362 50.7308 56.2634 50.7308 56.1608C50.7308 56.0582 50.691 55.9596 50.6197 55.8857C50.5485 55.8119 50.4513 55.7685 50.3488 55.7649C50.2462 55.7685 50.1491 55.8119 50.0778 55.8857C50.0065 55.9596 49.9667 56.0582 49.9667 56.1608C49.9667 56.2634 50.0065 56.362 50.0778 56.4359C50.1491 56.5097 50.2462 56.5531 50.3488 56.5567ZM22.3634 28.7641C21.9675 30.5588 21.5725 32.3536 21.1784 34.1484C26.4492 35.0986 29.2117 35.1962 29.466 34.4414C29.5399 34.2302 29.4106 33.9478 29.0833 33.5994C26.9882 29.9186 25.4218 25.9612 24.4301 21.8436C24.3852 22.0442 24.3377 22.2422 24.2928 22.4401L24.0632 23.356C23.9075 23.9657 23.7333 24.5727 23.5564 25.1772C23.3769 25.7789 23.1948 26.3834 22.9942 26.9798C22.7963 27.579 22.5931 28.1755 22.3634 28.7641Z" fill="#9BDEFB"/>
<path d="M18.6999 14.8625C21.2443 12.136 21.8698 12.0305 23.6145 11.8035C23.2766 15.2505 23.6857 18.6738 24.4089 21.7539C24.3271 21.9704 24.2505 22.1868 24.1687 22.4032L23.8678 23.298C23.6672 23.8945 23.4851 24.4989 23.303 25.1033C23.1288 25.7077 22.9546 26.3121 22.7989 26.9245C22.6405 27.5342 22.4875 28.1439 22.3634 28.7641L21.5505 30.5087L13.379 27.5104C13.379 27.5104 15.216 18.5999 18.6999 14.8625ZM21.0833 29.3184C21.1859 29.3147 21.283 29.2714 21.3543 29.1976C21.4255 29.1237 21.4654 29.0251 21.4654 28.9225C21.4654 28.8198 21.4255 28.7212 21.3543 28.6474C21.283 28.5735 21.1859 28.5302 21.0833 28.5266C20.9807 28.5302 20.8836 28.5735 20.8123 28.6474C20.7411 28.7212 20.7012 28.8198 20.7012 28.9225C20.7012 29.0251 20.7411 29.1237 20.8123 29.1976C20.8836 29.2714 20.9807 29.3147 21.0833 29.3184ZM20.5053 13.622C20.6689 13.6035 20.8326 13.5983 20.9936 13.5798C21.3113 13.56 21.6302 13.5777 21.9437 13.6326C22.2521 13.6832 22.5452 13.8022 22.8015 13.9809C23.0648 14.1675 23.2771 14.4171 23.4191 14.7068C23.3651 14.3632 23.1923 14.0494 22.9309 13.82C22.6659 13.5873 22.3415 13.4328 21.9939 13.3739C21.8241 13.3433 21.6518 13.3282 21.4792 13.329C21.3087 13.3347 21.1387 13.3497 20.9698 13.3739C20.8062 13.4109 20.6399 13.4452 20.4789 13.4953C20.3232 13.556 20.1648 13.6114 20.0117 13.6801C20.1806 13.6669 20.3416 13.6405 20.5053 13.622ZM19.373 28.7483C19.4756 28.7446 19.5727 28.7013 19.644 28.6275C19.7152 28.5536 19.755 28.455 19.755 28.3524C19.755 28.2497 19.7152 28.1511 19.644 28.0773C19.5727 28.0034 19.4756 27.9601 19.373 27.9565C19.2704 27.9601 19.1733 28.0034 19.102 28.0773C19.0308 28.1511 18.991 28.2497 18.991 28.3524C18.991 28.455 19.0308 28.5536 19.102 28.6274C19.1733 28.7013 19.2704 28.7446 19.373 28.7483ZM17.7102 28.2257C17.8127 28.222 17.9099 28.1787 17.9811 28.1049C18.0524 28.031 18.0922 27.9324 18.0922 27.8298C18.0922 27.7271 18.0524 27.6285 17.9811 27.5547C17.9099 27.4808 17.8127 27.4375 17.7102 27.4339C17.6076 27.4375 17.5105 27.4808 17.4392 27.5547C17.368 27.6285 17.3281 27.7271 17.3281 27.8298C17.3281 27.9324 17.368 28.031 17.4392 28.1049C17.5105 28.1787 17.6076 28.222 17.7102 28.2257ZM15.9999 27.5605C16.1024 27.5569 16.1995 27.5136 16.2708 27.4397C16.3421 27.3659 16.3819 27.2673 16.3819 27.1646C16.3819 27.062 16.3421 26.9634 16.2708 26.8896C16.1995 26.8157 16.1024 26.7724 15.9999 26.7687C15.8973 26.7724 15.8002 26.8157 15.7289 26.8896C15.6577 26.9634 15.6179 27.062 15.6179 27.1646C15.6179 27.2673 15.6577 27.3659 15.7289 27.4397C15.8002 27.5136 15.8973 27.5569 15.9999 27.5605ZM14.3846 27.038C14.4871 27.0343 14.5842 26.991 14.6555 26.9171C14.7268 26.8433 14.7666 26.7447 14.7666 26.6421C14.7666 26.5394 14.7268 26.4408 14.6555 26.367C14.5842 26.2931 14.4871 26.2498 14.3846 26.2461C14.282 26.2498 14.1849 26.2931 14.1136 26.367C14.0424 26.4408 14.0026 26.5394 14.0026 26.6421C14.0026 26.7447 14.0424 26.8433 14.1136 26.9171C14.1849 26.991 14.282 27.0343 14.3846 27.038ZM38.3052 15.591V14.6091C38.4557 14.076 41.2244 13.6801 41.2244 13.6801C41.2244 13.6801 45.5582 14.2291 46.5718 21.7671L48.9789 27.7849L42.6444 32.5991L41.5675 30.5087C41.9047 29.8205 42.1683 29.0986 42.354 28.355C42.5367 27.6107 42.6699 26.855 42.7526 26.093C42.8295 25.331 42.8656 24.5654 42.8608 23.7994C42.8599 23.035 42.8088 22.2715 42.7077 21.5137C42.7051 21.8964 42.7077 22.2765 42.6945 22.6566C42.6892 23.0366 42.6761 23.4167 42.6576 23.7968C42.618 24.5543 42.5705 25.3118 42.4886 26.064C42.4121 26.8189 42.2933 27.5658 42.1561 28.3101C42.0743 28.6796 42.0056 29.0544 41.8948 29.416C41.813 29.7882 41.6757 30.1419 41.5675 30.5087L40.8839 31.1026C40.8839 31.1026 36.5369 19.558 30.9625 13.6616C33.9107 15.1924 38.3052 15.591 38.3052 15.591ZM47.8782 27.7981C47.9808 27.7944 48.0779 27.7511 48.1492 27.6773C48.2204 27.6034 48.2603 27.5048 48.2603 27.4022C48.2603 27.2996 48.2204 27.201 48.1492 27.1271C48.0779 27.0533 47.9808 27.01 47.8782 27.0063C47.7757 27.01 47.6786 27.0533 47.6074 27.1272C47.5362 27.201 47.4964 27.2996 47.4964 27.4022C47.4964 27.5048 47.5362 27.6034 47.6074 27.6772C47.6786 27.7511 47.7757 27.7944 47.8782 27.7981ZM46.548 28.7483C46.6506 28.7446 46.7477 28.7013 46.819 28.6275C46.8902 28.5536 46.9301 28.455 46.9301 28.3524C46.9301 28.2498 46.8902 28.1511 46.819 28.0773C46.7477 28.0034 46.6506 27.9601 46.548 27.9565C46.4455 27.9602 46.3484 28.0035 46.2772 28.0774C46.206 28.1512 46.1662 28.2498 46.1662 28.3524C46.1662 28.4549 46.206 28.5535 46.2772 28.6274C46.3484 28.7012 46.4455 28.7446 46.548 28.7483ZM45.0911 29.6985C45.1936 29.6948 45.2908 29.6515 45.362 29.5777C45.4333 29.5038 45.4731 29.4052 45.4731 29.3026C45.4731 29.1999 45.4333 29.1013 45.362 29.0275C45.2908 28.9536 45.1936 28.9103 45.0911 28.9067C44.9885 28.9104 44.8915 28.9537 44.8203 29.0276C44.749 29.1014 44.7093 29.2 44.7093 29.3026C44.7093 29.4051 44.7491 29.5037 44.8203 29.5776C44.8915 29.6514 44.9885 29.6948 45.0911 29.6985ZM43.7608 30.6486C43.8634 30.645 43.9605 30.6017 44.0318 30.5278C44.103 30.454 44.1428 30.3554 44.1428 30.2527C44.1428 30.1501 44.103 30.0515 44.0318 29.9777C43.9605 29.9038 43.8634 29.8605 43.7608 29.8568C43.6583 29.8606 43.5612 29.9039 43.49 29.9777C43.4188 30.0516 43.3791 30.1502 43.3791 30.2527C43.3791 30.3553 43.4189 30.4539 43.4901 30.5277C43.5613 30.6016 43.6583 30.6449 43.7608 30.6486ZM42.5573 30.807C42.4545 30.8104 42.3571 30.8536 42.2857 30.9275C42.2142 31.0013 42.1742 31.1001 42.1742 31.2029C42.1742 31.3057 42.2142 31.4045 42.2857 31.4783C42.3571 31.5522 42.4545 31.5954 42.5573 31.5988C42.66 31.5955 42.7575 31.5523 42.829 31.4784C42.9005 31.4045 42.9405 31.3057 42.9405 31.2029C42.9405 31.1001 42.9005 31.0013 42.829 30.9274C42.7575 30.8535 42.66 30.8104 42.5573 30.807Z" fill="#9BDEFB"/>
<path d="M44.2544 15.7476C44.1393 14.1699 44.0128 12.593 43.8749 11.0171C43.7317 9.44183 43.6026 7.86493 43.4477 6.29063L43.4315 6.39354L43.6458 5.84055C43.6937 5.64642 43.7545 5.45555 43.7877 5.25669C43.8583 4.84994 43.844 4.43298 43.7455 4.03206C43.6289 3.62674 43.4072 3.25944 43.103 2.96733C43.0291 2.89413 42.9466 2.83128 42.8683 2.76326C42.7832 2.7053 42.7015 2.64116 42.6125 2.58968C42.434 2.47859 42.2433 2.38853 42.0442 2.32131L42.1339 2.37148C41.4585 1.78491 40.7124 1.285 39.913 0.883365C39.1165 0.464768 38.2556 0.182392 37.3659 0.0479297C36.9158 -0.0107067 36.4603 -0.0155615 36.009 0.0334727C35.5631 0.0863006 35.1234 0.182066 34.696 0.319434C33.8285 0.593783 33.0656 1.12667 32.5094 1.84671C31.986 2.55977 31.5505 3.33329 31.2122 4.15055C30.8567 4.95203 30.5558 5.77549 30.2389 6.58678C29.9263 7.39841 29.5557 8.18653 29.1301 8.94504C28.92 9.32348 28.6853 9.68775 28.4275 10.0355C28.1876 10.3832 27.8909 10.688 27.5498 10.9372L27.5411 10.9429C27.5178 10.958 27.5014 10.9818 27.4956 11.0089C27.4898 11.0361 27.495 11.0644 27.5101 11.0877L27.5177 11.098C28.1639 11.873 28.9146 12.5545 29.7485 13.1228C30.5916 13.6746 31.4869 14.1421 32.4215 14.5185C33.3598 14.8816 34.324 15.1736 35.3061 15.3923C36.2896 15.6178 37.2891 15.7665 38.2956 15.8371C38.3271 15.8391 38.3586 15.8349 38.3884 15.8247C38.4183 15.8145 38.4458 15.7986 38.4694 15.7777C38.4931 15.7569 38.5124 15.7317 38.5263 15.7034C38.5402 15.6751 38.5484 15.6443 38.5504 15.6129L38.5509 15.5997L38.5509 15.5917L38.5564 14.6193C38.5529 14.6589 38.5546 14.6382 38.5556 14.6399C38.5582 14.6355 38.5603 14.6291 38.5648 14.6221C38.576 14.6049 38.5885 14.5884 38.6022 14.573C38.643 14.5333 38.6891 14.4995 38.7392 14.4727C38.8615 14.4069 38.9927 14.3592 39.1287 14.3311C39.429 14.2677 39.7352 14.2371 40.0421 14.2398L40.2808 14.2394C40.376 14.2398 40.4712 14.233 40.5654 14.2192C40.7539 14.193 40.9369 14.137 41.1078 14.0534C41.7302 13.7014 42.2273 13.164 42.5298 12.5162C42.8417 11.9142 43.0775 11.2756 43.2316 10.6153L43.0426 10.8204C43.2432 10.7619 43.4275 10.6576 43.5809 10.5158C43.6667 10.4322 43.7339 10.3313 43.778 10.2199C43.8222 10.1085 43.8422 9.98894 43.8369 9.86921C43.8245 9.66488 43.7669 9.46585 43.6683 9.28649C43.5822 9.12012 43.4769 8.96438 43.3547 8.82242C43.3486 8.81524 43.3419 8.80856 43.3347 8.80244L43.3164 8.787C43.2316 8.72102 43.1556 8.64434 43.0905 8.55887C43.0235 8.47139 42.9681 8.37572 42.9254 8.27416C42.8806 8.16959 42.8464 8.06079 42.8233 7.94939C42.8005 7.84097 42.7883 7.73062 42.7867 7.61985L42.6672 7.83404C42.6961 7.81425 42.722 7.79051 42.7443 7.76352C42.7595 7.74596 42.7689 7.73227 42.781 7.71607C42.7994 7.68917 42.8161 7.66115 42.831 7.63219C42.857 7.58257 42.879 7.531 42.8969 7.47795C42.9295 7.38383 42.9547 7.28734 42.9724 7.18934C43.0055 7.00752 43.0255 6.82357 43.0323 6.63889C43.0491 6.2809 43.0376 5.92216 42.998 5.56598C42.9576 5.21301 42.894 4.86307 42.8076 4.51845C42.7232 4.17294 42.6185 3.83269 42.4943 3.49943C42.4756 3.44996 42.4415 3.40784 42.397 3.37929C42.3525 3.35075 42.3 3.33731 42.2472 3.34098C42.1945 3.34464 42.1443 3.36522 42.1042 3.39965C42.0641 3.43407 42.0361 3.48052 42.0245 3.53209L42.0232 3.53812C41.9225 3.98877 41.7762 4.42801 41.5867 4.84908C41.4044 5.26993 41.1611 5.66161 40.8646 6.01151C40.5804 6.3544 40.2092 6.61456 39.7899 6.76474C39.364 6.89744 38.9096 6.90984 38.477 6.80057L38.4682 6.79855C38.4454 6.79335 38.4219 6.79268 38.3988 6.79657C38.3758 6.80047 38.3538 6.80886 38.334 6.82127C38.3143 6.83368 38.2971 6.84986 38.2836 6.8689C38.2701 6.88793 38.2605 6.90944 38.2552 6.93219L38.252 6.9508C38.0997 8.22883 37.9953 9.50598 37.9546 10.7899C37.9367 11.4314 37.9443 12.0744 37.981 12.7157C38.0021 13.3596 38.1025 13.9984 38.2801 14.6176C38.2822 14.6243 38.2869 14.6299 38.2932 14.6331C38.2994 14.6363 38.3066 14.6369 38.3133 14.6348C38.3198 14.6325 38.3251 14.6279 38.3283 14.6218C38.3315 14.6157 38.3323 14.6087 38.3305 14.6021C38.1846 13.9823 38.1157 13.3469 38.1255 12.7103C38.1195 12.0737 38.1425 11.4366 38.1907 10.801C38.2744 9.53009 38.4197 8.25905 38.612 7.00282L38.3871 7.15299C38.886 7.29733 39.4158 7.29644 39.9143 7.15041C40.4075 6.98639 40.8476 6.69297 41.1886 6.30077C41.5218 5.92438 41.7976 5.50089 42.0072 5.04398C42.2213 4.59357 42.3883 4.12227 42.5056 3.63757L42.0346 3.67625C42.1441 3.99082 42.2353 4.31146 42.3079 4.63655C42.3808 4.96198 42.4355 5.2912 42.4718 5.62269C42.5069 5.95135 42.5161 6.28227 42.4992 6.61237C42.4929 6.77185 42.4751 6.93068 42.4462 7.08764C42.4332 7.15907 42.4147 7.22939 42.3909 7.29799C42.3814 7.32655 42.3696 7.3543 42.3556 7.38095C42.3509 7.39028 42.3457 7.39933 42.3399 7.40807C42.3388 7.40912 42.3379 7.41034 42.3372 7.41168C42.3429 7.4077 42.3268 7.4173 42.3684 7.3864L42.2488 7.60067C42.2479 7.75414 42.2631 7.90727 42.2942 8.05755C42.3241 8.20499 42.3688 8.34905 42.4275 8.48755C42.487 8.62977 42.5642 8.76392 42.6572 8.88682C42.7517 9.01201 42.8623 9.12424 42.986 9.22061L42.9478 9.18527C43.0382 9.29301 43.1164 9.41046 43.1809 9.53545C43.2418 9.64383 43.2783 9.76422 43.2878 9.88818C43.2909 9.93217 43.284 9.97629 43.2675 10.0172C43.251 10.0581 43.2253 10.0947 43.1925 10.1241C43.1017 10.2019 42.995 10.2589 42.8798 10.2912L42.8704 10.2947C42.8264 10.3113 42.7871 10.3383 42.7558 10.3734C42.7245 10.4085 42.7023 10.4507 42.6908 10.4963C42.5425 11.1065 42.3229 11.6971 42.0368 12.2561C41.7931 12.8031 41.3874 13.2622 40.8746 13.5715C40.753 13.6334 40.6222 13.6751 40.4873 13.6952C40.4203 13.7059 40.3527 13.7116 40.2848 13.7124L40.0344 13.7156C39.6886 13.7169 39.344 13.7562 39.0068 13.8326C38.8237 13.8738 38.6476 13.9416 38.4841 14.0338C38.3915 14.0861 38.307 14.1517 38.2332 14.2283C38.1923 14.2735 38.1563 14.3229 38.1257 14.3756C38.1092 14.4054 38.0949 14.4364 38.0829 14.4683C38.0659 14.5128 38.0563 14.5598 38.0543 14.6074L38.0598 15.5917L38.315 15.3464C36.3499 15.2237 34.4117 14.8255 32.5573 14.1634C31.6343 13.8233 30.7468 13.3933 29.9077 12.8798C29.0808 12.3472 28.332 11.7023 27.6824 10.9638L27.6503 11.1245C28.0116 10.8523 28.3258 10.5227 28.5805 10.1489C28.8395 9.79247 29.0749 9.41945 29.2851 9.03223C29.7019 8.2605 30.0719 7.46437 30.393 6.64815C30.7218 5.8371 31.0312 5.02318 31.3942 4.23234C31.7346 3.43825 32.1791 2.69301 32.7161 2.01626C33.2556 1.36013 33.9832 0.884985 34.8009 0.654762C35.2091 0.537723 35.6277 0.460308 36.0508 0.423587C36.4695 0.391699 36.8906 0.409619 37.3051 0.476971C38.9757 0.734183 40.5224 1.64648 41.8248 2.71379L41.8259 2.71467C41.8523 2.73621 41.8824 2.75291 41.9146 2.76401C42.2417 2.87528 42.5414 3.05475 42.794 3.29053C43.045 3.52522 43.2296 3.82205 43.329 4.15099C43.4146 4.49058 43.4299 4.84409 43.374 5.18981C43.347 5.36588 43.2928 5.54028 43.2531 5.71587L43.0611 6.22976L43.0561 6.24317C43.0455 6.27178 43.0417 6.30246 43.0449 6.33279C43.2172 7.90461 43.4154 9.47384 43.5995 11.0447C43.789 12.6149 43.9898 14.1842 44.2019 15.7526C44.2023 15.756 44.2034 15.7594 44.205 15.7624C44.2067 15.7654 44.209 15.7681 44.2117 15.7702C44.2145 15.7724 44.2176 15.774 44.2209 15.7749C44.2242 15.7759 44.2277 15.7761 44.2312 15.7757C44.2379 15.7748 44.244 15.7714 44.2483 15.7662C44.2526 15.761 44.2548 15.7543 44.2544 15.7476ZM41.5676 30.5095C41.2978 30.7308 41.0084 30.9272 40.7031 31.0964C40.407 31.2617 40.0892 31.3848 39.7589 31.4621C39.432 31.5412 39.0926 31.5548 38.7604 31.5021C38.4178 31.447 38.0839 31.3475 37.7669 31.2063C38.043 31.4419 38.3687 31.612 38.7198 31.704C38.8983 31.7516 39.0818 31.7777 39.2664 31.7819C39.4516 31.7794 39.636 31.7585 39.8169 31.7194C40.53 31.5463 41.1536 31.1153 41.5676 30.5095ZM32.8426 31.0471C32.5326 31.1505 32.209 31.2072 31.8824 31.2153C31.562 31.2237 31.2417 31.1962 30.9274 31.1334C30.7693 31.1043 30.613 31.0656 30.4595 31.0176C30.3014 30.9824 30.1537 30.9141 29.9977 30.8665C29.8449 30.8104 29.6958 30.7429 29.5411 30.6845C29.3911 30.6166 29.2419 30.5453 29.0838 30.4842C29.2098 30.5944 29.3433 30.6968 29.4786 30.798C29.6219 30.8849 29.763 30.9801 29.9147 31.0551C30.2188 31.2105 30.5425 31.324 30.877 31.3924C31.2147 31.4586 31.5611 31.4678 31.9019 31.4196C32.2419 31.377 32.5656 31.2488 32.8426 31.0471ZM13.8401 27.6777C13.5499 28.101 13.2845 28.5408 13.0454 28.9949C12.815 29.4567 12.6303 29.9398 12.4938 30.4374C12.2137 31.4371 12.1298 32.4815 12.2468 33.513C12.3083 34.027 12.4123 34.535 12.5579 35.0318L12.9794 36.5073C13.2576 37.4917 13.5586 38.4696 13.8496 39.4505L13.8467 39.4299L13.8468 39.4325L13.8468 39.435C13.847 39.4411 13.8479 39.4472 13.8496 39.4531C14.3611 41.1465 14.8508 42.8461 15.3187 44.5519C15.3757 44.7655 15.4428 44.9773 15.4859 45.1903C15.5289 45.4041 15.5542 45.6211 15.5615 45.8391C15.5724 46.2763 15.5168 46.7126 15.3967 47.1331C15.2048 48.0001 15.0612 48.877 14.9664 49.7599C14.8639 50.641 14.7958 51.5248 14.7445 52.4097C14.6798 53.2983 14.6742 54.1902 14.7277 55.0795C14.746 55.3058 14.7784 55.5306 14.8247 55.7528C14.8682 55.9877 14.9538 56.2128 15.0774 56.4172C15.1502 56.5294 15.2495 56.622 15.3665 56.6868C15.4876 56.7482 15.6232 56.7752 15.7586 56.7649C15.8215 56.7606 15.884 56.7515 15.9455 56.7377C16.0119 56.721 16.0758 56.6955 16.1355 56.662C16.2476 56.5943 16.3434 56.5027 16.4159 56.3936C16.6436 55.9855 16.7673 55.5275 16.7758 55.0602C16.8047 54.6116 16.7982 54.1614 16.7565 53.7138L16.5294 53.7551C16.7943 54.7358 17.2722 55.646 17.929 56.4208C18.088 56.6261 18.2879 56.796 18.5162 56.9197C18.7509 57.0403 19.0175 57.0843 19.2784 57.0455C19.4092 57.0288 19.5351 56.9853 19.6483 56.9177C19.7056 56.8821 19.7553 56.8356 19.7946 56.7808C19.8339 56.7259 19.8619 56.6639 19.8772 56.5982C19.9078 56.3443 19.8613 56.087 19.7437 55.8599L19.7421 55.8559C19.7409 55.8528 19.7385 55.8503 19.7354 55.8489C19.7323 55.8475 19.7288 55.8474 19.7256 55.8485C19.7225 55.8497 19.7199 55.8521 19.7184 55.8551C19.7169 55.8581 19.7167 55.8616 19.7178 55.8648C19.8195 56.0889 19.8524 56.3382 19.8123 56.581C19.7692 56.69 19.6934 56.7829 19.5953 56.8469C19.4972 56.9109 19.3816 56.9429 19.2645 56.9385C19.027 56.9628 18.7877 56.9144 18.5784 56.7997C18.3707 56.6779 18.1908 56.514 18.0503 56.3185C17.4378 55.5449 16.9957 54.6507 16.7529 53.6944C16.7456 53.6665 16.7281 53.6424 16.7039 53.6268C16.6797 53.6111 16.6506 53.605 16.6222 53.6097C16.5938 53.6144 16.5681 53.6295 16.5502 53.6521C16.5324 53.6747 16.5236 53.7032 16.5256 53.7319L16.5259 53.7357C16.5578 54.1698 16.5556 54.6058 16.5194 55.0395C16.5054 55.4597 16.3945 55.871 16.1953 56.2413C16.1453 56.3169 16.0792 56.3807 16.0019 56.4281C15.9649 56.4484 15.9256 56.464 15.8848 56.4746C15.8383 56.4847 15.7912 56.4914 15.7438 56.4946C15.6564 56.5022 15.5686 56.4847 15.4908 56.444C15.413 56.4034 15.3484 56.3413 15.3048 56.2652C15.1183 55.8884 15.0162 55.4755 15.0056 55.0552C14.9496 54.1787 14.9477 53.2996 14.9997 52.4229C15.0412 51.5417 15.1027 50.6617 15.1843 49.7829C15.2714 48.9057 15.3773 48.0292 15.5476 47.1657C15.658 46.7308 15.7032 46.2818 15.6815 45.8336C15.6684 45.6097 15.6369 45.3872 15.5872 45.1684C15.5354 44.9494 15.4692 44.739 15.4096 44.5262C14.9169 42.8274 14.4456 41.1227 13.9956 39.4119L13.9984 39.4324L13.9985 39.4299C13.9986 39.4237 13.9978 39.4175 13.9963 39.4115L13.9956 39.4092C13.7301 38.4211 13.4747 37.4303 13.1965 36.4458L12.7832 34.968C12.6351 34.4844 12.5275 33.9893 12.4615 33.4878C12.3414 32.4813 12.4032 31.4614 12.6439 30.4768C12.7667 29.9841 12.9322 29.503 13.1383 29.039C13.3428 28.5732 13.6121 28.1382 13.8626 27.6915C13.8643 27.6885 13.8648 27.685 13.8639 27.6816C13.8631 27.6783 13.8609 27.6754 13.858 27.6737C13.8551 27.6719 13.8516 27.6713 13.8482 27.6721C13.8449 27.6728 13.842 27.6749 13.8401 27.6777ZM22.2602 55.8338L22.2627 55.8365L22.2663 55.8397L22.2684 55.8409C22.3878 55.9181 22.5155 55.9816 22.6491 56.0303C22.7856 56.079 22.9285 56.1074 23.0733 56.1146C23.2201 56.123 23.3673 56.11 23.5104 56.0759C23.6585 56.043 23.8004 55.9864 23.9305 55.9082L23.935 55.9049L23.9406 55.8999C24.096 55.7729 24.2245 55.6164 24.3187 55.4392C24.3686 55.338 24.3951 55.2269 24.3963 55.114C24.3976 55.0012 24.3735 54.8895 24.3259 54.7872C24.2318 54.5991 24.0919 54.4377 23.9189 54.318C23.7629 54.2051 23.5966 54.1068 23.4224 54.0246C23.1138 53.8708 22.8289 53.6734 22.5763 53.4386C22.3324 53.1987 22.1222 52.9267 21.9514 52.6302C21.7871 52.3374 21.6793 52.0164 21.6336 51.6837C21.5955 51.3416 21.6042 50.9958 21.6594 50.656L21.6743 50.5203C21.6768 50.4919 21.6826 50.4638 21.6913 50.4366C21.7083 50.3831 21.7374 50.3343 21.7762 50.2937C21.8159 50.2545 21.8652 50.2263 21.9192 50.212C21.9731 50.1977 22.0299 50.1978 22.0839 50.2122C22.1422 50.2182 22.198 50.2386 22.2464 50.2717C22.2948 50.3049 22.3341 50.3495 22.3607 50.4017C22.4167 50.5522 22.4435 50.7119 22.4397 50.8724C22.4826 51.2783 22.6755 51.6537 22.9806 51.9249C23.2764 52.1886 23.6529 52.3443 24.0486 52.3665C24.2453 52.3829 24.4433 52.3586 24.6302 52.295C24.7313 52.2608 24.8214 52.2004 24.8916 52.1201C24.9617 52.0398 25.0094 51.9423 25.0297 51.8376C25.0583 51.6424 25.0378 51.4432 24.97 51.258C24.9412 51.1678 24.9063 51.0797 24.8656 50.9942C24.8252 50.9058 24.7724 50.8278 24.7332 50.7499C24.562 50.4341 24.4216 50.1025 24.3139 49.7598C24.1998 49.4277 24.1598 49.0747 24.1968 48.7256L24.2219 48.6029L24.2477 48.4549C24.2616 48.3549 24.2632 48.2537 24.2527 48.1533C24.2265 47.9604 24.1739 47.7721 24.0964 47.5936C23.9448 47.2492 23.7558 46.9226 23.5327 46.6196C23.0933 46.0337 22.6204 45.4736 22.1165 44.9421C21.6767 44.4125 21.3869 43.7747 21.2773 43.095C21.2305 42.7678 21.2169 42.3866 21.1866 42.0279L21.1064 40.938C21.0433 40.2123 20.9913 39.4856 20.9188 38.7607C20.7893 37.3095 20.6258 35.8612 20.4743 34.4121L20.2185 32.242C20.18 31.8904 20.1955 31.5349 20.2645 31.188C20.3455 30.8369 20.466 30.4961 20.6239 30.1722C20.6265 30.1661 20.6267 30.1593 20.6246 30.153C20.6224 30.1468 20.618 30.1416 20.6121 30.1384C20.6063 30.1353 20.5995 30.1345 20.5931 30.1361C20.5867 30.1377 20.5811 30.1417 20.5775 30.1472L20.5766 30.1486C20.1554 30.771 19.9395 31.5096 19.9593 32.2609L20.0717 34.4459C20.1669 35.9002 20.2492 37.3553 20.3658 38.8075C20.4164 39.5342 20.4874 40.2593 20.5474 40.9852L20.6517 42.073C20.6919 42.439 20.709 42.7872 20.7733 43.1803C20.91 43.9457 21.2578 44.6577 21.7776 45.2361C22.299 45.7762 22.8061 46.268 23.2612 46.8256C23.4886 47.0957 23.6845 47.3908 23.8451 47.7053C23.9215 47.8573 23.9768 48.0191 24.0094 48.1862C24.0221 48.2663 24.0252 48.3477 24.0185 48.4286L24.0047 48.5509L23.9827 48.6973C23.9605 49.0764 24.0167 49.4561 24.1476 49.8126C24.2658 50.1629 24.4148 50.502 24.5929 50.826C24.6867 50.9763 24.7607 51.1381 24.8133 51.3072C24.8698 51.4661 24.8862 51.6364 24.8613 51.8032C24.798 52.1275 24.3997 52.1919 24.0677 52.1505C23.7307 52.1098 23.4176 51.9558 23.1797 51.7137C22.9484 51.4798 22.8132 51.1678 22.8005 50.8392C22.8146 50.6352 22.7881 50.4303 22.7226 50.2366C22.673 50.1225 22.5967 50.0221 22.5 49.9439C22.4033 49.8657 22.2892 49.8119 22.1674 49.7872C22.0475 49.7603 21.9232 49.7593 21.8029 49.7843C21.6745 49.8136 21.5564 49.8772 21.4612 49.9681C21.3693 50.0555 21.2988 50.1628 21.2552 50.2819C21.2335 50.3406 21.2184 50.4015 21.2102 50.4635L21.1943 50.5993C21.1294 50.9791 21.1199 51.3663 21.1663 51.7488C21.2262 52.1389 21.3589 52.5143 21.5576 52.8553C21.7556 53.1885 22.0027 53.4899 22.2905 53.7493C22.5798 54.0035 22.9069 54.2113 23.2599 54.3652C23.4194 54.4294 23.5725 54.5084 23.7172 54.6012C23.8501 54.6823 23.9618 54.7938 24.0432 54.9265C24.0779 54.9873 24.098 55.0553 24.102 55.1251C24.106 55.195 24.0937 55.2648 24.0662 55.3292C23.9964 55.4783 23.9011 55.614 23.7845 55.7303L23.7946 55.722C23.6921 55.7961 23.5788 55.8539 23.4587 55.8933C23.3348 55.9359 23.2052 55.9603 23.0743 55.9654C22.9413 55.971 22.8082 55.9583 22.6787 55.9276C22.5462 55.8978 22.4174 55.8532 22.2947 55.7946L22.3004 55.7989L22.2976 55.7964C22.2925 55.792 22.286 55.7897 22.2793 55.7899C22.2726 55.7901 22.2662 55.7929 22.2614 55.7976C22.2567 55.8024 22.2539 55.8088 22.2537 55.8155C22.2535 55.8222 22.2558 55.8287 22.2602 55.8338ZM51.039 32.2067C50.843 32.1205 50.6368 32.0595 50.4255 32.0252C50.2173 31.9974 50.0073 31.985 49.7973 31.9881C49.3779 31.9692 48.9578 31.9576 48.5369 31.9533C48.5336 31.9533 48.5304 31.9545 48.5279 31.9567C48.5255 31.9589 48.5239 31.9619 48.5236 31.9652C48.5233 31.9685 48.5242 31.9718 48.5261 31.9744C48.5281 31.9771 48.531 31.9789 48.5343 31.9795C48.9474 32.0597 49.3613 32.1326 49.776 32.1981C49.9812 32.2432 50.1893 32.2732 50.3989 32.2877C50.6128 32.2965 50.827 32.278 51.0364 32.2329C51.0392 32.2323 51.0417 32.2307 51.0437 32.2285C51.0456 32.2264 51.0468 32.2236 51.047 32.2207C51.0473 32.2179 51.0467 32.2149 51.0453 32.2124C51.0439 32.2099 51.0417 32.2079 51.039 32.2067Z" fill="#9BDEFB"/>
<path d="M22.9341 56.1994C22.1739 55.6705 21.4988 55.0286 20.9323 54.2959C20.6526 53.9248 20.4126 53.5253 20.2165 53.1041C20.0278 52.6768 19.9011 52.2248 19.8404 51.7617C19.8797 52.2304 19.9859 52.691 20.1556 53.1296C20.3346 53.5664 20.559 53.9832 20.8252 54.373C21.3702 55.1505 22.0311 55.8398 22.7849 56.4171C22.7988 56.4275 22.8145 56.4351 22.8313 56.4395C22.8481 56.4438 22.8656 56.4448 22.8828 56.4424C22.8999 56.4399 22.9165 56.4341 22.9314 56.4253C22.9463 56.4165 22.9594 56.4049 22.9698 56.391C22.9802 56.3771 22.9878 56.3614 22.9922 56.3446C22.9965 56.3278 22.9975 56.3103 22.995 56.2931C22.9926 56.276 22.9868 56.2594 22.978 56.2445C22.9692 56.2296 22.9575 56.2165 22.9437 56.2061L22.9391 56.2028L22.9341 56.1994ZM20.6425 57.0027C20.3579 56.6581 20.1003 56.2919 19.8721 55.9076C19.6356 55.522 19.4185 55.1248 19.2218 54.7175C19.0251 54.3097 18.8598 53.8874 18.7274 53.4545C18.5878 53.0219 18.5179 52.5698 18.5204 52.1152C18.496 52.5721 18.5444 53.03 18.6637 53.4717C18.7763 53.9155 18.9226 54.35 19.1013 54.7715C19.2804 55.1931 19.4805 55.6054 19.7009 56.007C19.9179 56.4167 20.167 56.8085 20.4459 57.1789C20.4676 57.2064 20.4993 57.2242 20.5341 57.2283C20.5689 57.2324 20.6039 57.2225 20.6314 57.2009C20.6589 57.1792 20.6766 57.1475 20.6807 57.1127C20.6849 57.0779 20.675 57.0429 20.6533 57.0154L20.6495 57.0108L20.6425 57.0027ZM17.4453 55.6483C17.3046 55.2754 17.1806 54.8938 17.049 54.5078L16.8446 53.9323C16.7745 53.7403 16.6962 53.5532 16.6449 53.3639C16.437 52.5864 16.3047 51.7906 16.2499 50.9877C16.2401 51.8 16.3089 52.6114 16.4555 53.4104C16.5489 53.8155 16.633 54.2001 16.707 54.5982C16.781 54.9931 16.8503 55.3957 16.9389 55.7972L16.9393 55.7988C16.9546 55.8672 16.9964 55.9267 17.0555 55.9643C17.1146 56.0019 17.1862 56.0145 17.2546 55.9994C17.323 55.9843 17.3826 55.9427 17.4204 55.8837C17.4582 55.8247 17.4711 55.7531 17.4562 55.6847C17.4534 55.6723 17.4497 55.6602 17.4453 55.6483ZM34.5916 62.7361C34.5916 62.7361 36.7852 74.6926 32.5569 74.3126C28.3286 73.9325 28.2799 63.4913 28.518 62.1557" fill="#9BDEFB"/>
<path d="M37.1128 62.9018C36.8174 63.3132 36.5954 63.7725 36.4565 64.2594C36.3079 64.7443 36.2046 65.2419 36.1479 65.7459C36.0807 66.2453 36.0786 66.7653 36.0534 67.246C36.0307 67.735 35.9905 68.2244 35.9309 68.7112C35.827 69.6853 35.6488 70.65 35.398 71.5969C35.2747 72.0664 35.1039 72.522 34.8882 72.9569C34.6699 73.3756 34.3704 73.8028 33.8697 73.9137C34.1292 73.9119 34.3805 73.8221 34.5823 73.659C34.7857 73.4979 34.9634 73.3068 35.1093 73.0922C35.3936 72.6668 35.6224 72.2068 35.79 71.7233C36.1233 70.7678 36.3464 69.7774 36.455 68.7713C36.5061 68.2697 36.5457 67.7666 36.5516 67.2612C36.5487 66.7476 36.5396 66.2718 36.5569 65.7794C36.5741 65.2903 36.6243 64.8028 36.707 64.3203C36.7808 63.832 36.9171 63.3553 37.1128 62.9018ZM52.9698 60.4083C54.5372 60.5976 56.1111 60.726 57.6892 60.819C58.4785 60.8659 59.2698 60.8853 60.0632 60.8772C60.4601 60.8727 60.8576 60.86 61.2573 60.8255C61.6738 60.8062 62.0848 60.7221 62.4754 60.5762L62.4276 60.5923C63.2265 60.458 64.0379 60.3542 64.8466 60.2786C65.6526 60.1929 66.4625 60.1493 67.2731 60.1481C67.4749 60.1467 67.6749 60.1601 67.8759 60.1652C68.0756 60.1773 68.2741 60.1968 68.4724 60.2149C68.6655 60.2498 68.867 60.2637 69.0531 60.3147L69.6523 60.4624C70.5032 60.6141 71.3784 60.5536 72.2005 60.2864C72.6078 60.1643 73.0034 60.0057 73.3823 59.8125C73.7705 59.6212 74.1314 59.3787 74.4551 59.0914C74.6328 58.9362 74.7827 58.7518 74.8986 58.5463C74.9666 58.4178 75.0014 58.2744 75 58.1291L74.9873 57.9494L74.9567 57.7791C74.8585 57.3462 74.6767 56.9366 74.4216 56.5732C73.9212 55.8726 73.2647 55.298 72.5041 54.8946C71.7595 54.5003 70.9629 54.2131 70.1379 54.0415L70.1549 54.046C69.0901 53.7349 67.9904 53.5585 66.8817 53.5209C66.6011 53.5157 66.3203 53.5281 66.0412 53.558L65.6249 53.6258C65.495 53.6482 65.3659 53.675 65.2338 53.6874C64.7044 53.7508 64.1696 53.7539 63.6396 53.6968C63.108 53.645 62.5841 53.5323 62.0783 53.3608C61.8286 53.2781 61.5904 53.1641 61.3693 53.0217L61.2172 52.9041C61.1584 52.8605 61.1015 52.8126 61.0408 52.7739C60.9194 52.7007 60.7924 52.6373 60.6609 52.5844C60.1414 52.4003 59.602 52.278 59.0539 52.2202C58.5118 52.1569 57.9668 52.1219 57.421 52.1152C57.9643 52.1557 58.5049 52.224 59.04 52.3139C59.5732 52.3944 60.0952 52.5372 60.5952 52.7394C60.7141 52.7936 60.8286 52.8571 60.9375 52.9294C60.9897 52.9662 61.0351 53.0093 61.0844 53.0482L61.2493 53.1881C61.4791 53.352 61.7289 53.4861 61.9925 53.5871C62.511 53.7888 63.0529 53.9243 63.6053 53.9903C64.1574 54.0651 64.7162 54.077 65.271 54.0258C65.4106 54.0164 65.5492 53.9921 65.6882 53.9718L66.0797 53.919C66.3429 53.8984 66.6071 53.8941 66.8708 53.9063C67.9396 53.9795 68.9969 54.1725 70.0227 54.4817L70.0259 54.4827L70.0398 54.4862C70.8192 54.6554 71.5709 54.9335 72.2727 55.3125C72.9618 55.685 73.5552 56.2119 74.0065 56.8522C74.2211 57.1624 74.3735 57.5112 74.4554 57.8794L74.4784 58.0113L74.4859 58.1381C74.4855 58.1981 74.4695 58.2571 74.4394 58.309C74.3496 58.4583 74.2362 58.592 74.1035 58.7049C73.5 59.2033 72.8022 59.5749 72.0518 59.7976C71.3117 60.0471 70.5216 60.111 69.7511 59.9838L69.1568 59.8429C68.9466 59.7887 68.7368 59.7756 68.5269 59.7405C68.3176 59.7229 68.1081 59.7045 67.8993 59.6938C67.6911 59.6902 67.4821 59.6784 67.2745 59.6817C65.6222 59.7104 63.976 59.892 62.3572 60.2243C62.3428 60.2271 62.3288 60.2315 62.3154 60.2376L62.3093 60.2404C61.9614 60.3751 61.5954 60.4575 61.2232 60.4849C60.8378 60.5289 60.4468 60.5523 60.0552 60.5674C59.2716 60.5993 58.4844 60.5911 57.697 60.586C56.9095 60.5775 56.1214 60.5544 55.3336 60.5224C54.5459 60.4877 53.7577 60.4534 52.9698 60.4083Z" fill="#9BDEFB"/>
<path d="M74.0028 59.1242C73.9324 58.6805 73.7439 58.2639 73.457 57.9182C73.1793 57.5637 72.8591 57.2447 72.5037 56.9683C71.7791 56.4369 70.9827 56.0111 70.1384 55.7035L69.5095 55.4685L68.8674 55.2785C68.4412 55.1414 68.0046 55.0536 67.5708 54.9504C67.1381 54.8386 66.6962 54.785 66.2582 54.706C66.0332 54.6717 65.8319 54.6265 65.5874 54.6012C65.3564 54.5836 65.1244 54.5829 64.8933 54.599C64.0318 54.6431 63.1681 54.5906 62.3183 54.4424C61.9039 54.3721 61.5002 54.2487 61.1173 54.0752C61.0249 54.032 60.9351 53.9835 60.8484 53.9299C60.7602 53.8793 60.6547 53.8076 60.5546 53.7553C60.3514 53.6449 60.1403 53.5497 59.9231 53.4704C59.4948 53.3194 59.0516 53.2144 58.601 53.1573C58.1598 53.0908 57.7156 53.0465 57.2699 53.0246C56.3788 52.9596 55.4838 53.0762 54.6392 53.3674C55.4964 53.1781 56.3812 53.1493 57.2489 53.2825C57.6822 53.3338 58.1125 53.4056 58.5398 53.4978C58.9616 53.5753 59.3747 53.6947 59.7729 53.854C59.9666 53.9351 60.1542 54.0305 60.3339 54.1392C60.4268 54.1938 60.5027 54.2482 60.6034 54.3112C60.7025 54.3763 60.8051 54.4358 60.911 54.4892C61.3264 54.6928 61.7664 54.8418 62.2201 54.9325C63.1075 55.1011 64.0114 55.1661 64.9138 55.1262C65.1226 55.1089 65.3324 55.1071 65.5415 55.1206C65.736 55.1381 65.9672 55.1845 66.1782 55.215C66.6091 55.2867 67.0442 55.3416 67.4693 55.4384C67.8961 55.5275 68.3278 55.6014 68.7456 55.7235L69.3778 55.8894L69.9984 56.0893C70.8267 56.3509 71.6184 56.7168 72.3545 57.1779C72.7189 57.4126 73.0531 57.691 73.3498 58.007C73.426 58.0842 73.4958 58.1676 73.5584 58.2563C73.6271 58.3406 73.6886 58.4305 73.7423 58.525C73.8641 58.7077 73.9523 58.9106 74.0028 59.1242Z" fill="#9BDEFB"/>
<path d="M67.7476 55.235C67.7476 55.235 68.2992 59.3455 66.5256 60.7321C66.5256 60.7321 64.3968 60.8025 64.321 60.7321C64.321 60.7321 66.1342 56.9642 65.0947 54.8539" fill="#9BDEFB"/>
<path d="M61.1571 52.9812C61.1571 52.9812 61.0533 50.8719 59.1019 51.016" stroke="#9BDEFB" stroke-width="0.968" stroke-linecap="round" stroke-linejoin="round"/>
<path d="M67.3177 31.8183C67.8721 31.2106 68.409 30.5885 68.9447 29.9653L70.5296 28.0777C71.0534 27.4448 71.5546 26.7934 72.0606 26.1458C72.5639 25.496 73.0776 24.8548 73.6018 24.2223C73.6083 24.2145 73.6117 24.2046 73.6114 24.1945C73.6112 24.1844 73.6073 24.1747 73.6005 24.1673L73.5963 24.1627C73.5331 24.0706 73.4897 23.9664 73.4689 23.8566C73.44 23.7412 73.4174 23.6242 73.4012 23.5063C73.3649 23.2702 73.3405 23.0317 73.3194 22.7929L73.1991 21.3586C73.1639 20.8798 73.1325 20.4006 73.0883 19.9222L72.9556 18.4865L72.9549 18.478C72.9537 18.4658 72.9502 18.4539 72.9445 18.443C72.9387 18.4321 72.9309 18.4225 72.9215 18.4147C72.912 18.4068 72.9011 18.4009 72.8894 18.3973C72.8777 18.3936 72.8653 18.3923 72.8531 18.3935C72.8445 18.3943 72.836 18.3963 72.8279 18.3994C72.4056 18.5633 71.983 18.7264 71.5663 18.907C71.5632 18.9083 71.5608 18.9107 71.5594 18.9138C71.5581 18.9168 71.5579 18.9202 71.559 18.9233C71.56 18.9265 71.5622 18.9291 71.5651 18.9307C71.568 18.9323 71.5714 18.9328 71.5746 18.9321C72.0166 18.8275 72.4527 18.7053 72.8892 18.5839L72.7615 18.4969C72.7746 18.9791 72.7832 19.461 72.8148 19.942C72.8404 20.4233 72.8864 20.9033 72.9402 21.3827C72.9922 21.8622 73.0528 22.3412 73.1377 22.8175C73.1817 23.0554 73.2285 23.2928 73.2836 23.5292C73.311 23.6474 73.3436 23.7645 73.3767 23.8822C73.4038 24.0088 73.4603 24.1272 73.5417 24.2278L73.5362 24.1683C73.0171 24.8051 72.4872 25.433 71.9466 26.0521C71.409 26.6736 70.8667 27.2913 70.3469 27.9275L68.8011 29.8472C68.2931 30.4932 67.7865 31.1402 67.2973 31.8015C67.2953 31.8043 67.2944 31.8077 67.2948 31.811C67.2952 31.8144 67.2969 31.8175 67.2995 31.8196C67.3022 31.8218 67.3055 31.8228 67.3089 31.8226C67.3123 31.8223 67.3154 31.8208 67.3177 31.8183Z" fill="#9BDEFB"/>
<path d="M72.6603 23.9509C72.5664 23.8081 72.4458 23.6849 72.3051 23.588C72.1699 23.4867 72.0294 23.3928 71.8842 23.3065C71.5951 23.133 71.294 22.9826 70.9921 22.8354C70.388 22.5409 69.7626 22.2971 69.1395 22.0509C68.5139 21.8107 67.8812 21.5911 67.2414 21.3921L65.3184 20.8129C65.3097 20.8102 65.3005 20.8101 65.2917 20.8125C65.283 20.8148 65.2751 20.8195 65.2689 20.8261C64.6482 21.5172 64.0051 22.1878 63.348 22.8444L61.3706 24.806C60.7098 25.4573 60.0424 26.101 59.3685 26.7371C59.0322 27.0557 58.6862 27.3628 58.3418 27.671C58.0079 27.9793 57.6508 28.2614 57.2735 28.5147L57.2592 28.5236C57.2365 28.5377 57.2204 28.5601 57.2143 28.586C57.2082 28.612 57.2127 28.6392 57.2267 28.6619L57.2327 28.6705L57.9469 29.5913L57.9491 29.5941C57.9597 29.6077 57.975 29.6169 57.9919 29.6198C58.5178 29.711 59.0467 29.7871 59.5743 29.8698C59.5777 29.8704 59.5812 29.8696 59.584 29.8676C59.5868 29.8657 59.5888 29.8627 59.5894 29.8593C59.5901 29.8559 59.5894 29.8525 59.5875 29.8496C59.5857 29.8467 59.5827 29.8447 59.5794 29.8439C59.0598 29.7206 58.5415 29.5907 58.0202 29.4759L58.0651 29.5044L57.3997 28.5478L57.3589 28.7036C57.7644 28.4564 58.1488 28.1761 58.5082 27.8655C58.8667 27.5662 59.2118 27.2524 59.5543 26.9367C60.2432 26.3091 60.8954 25.6447 61.5453 24.9793C62.194 24.3127 62.8258 23.6302 63.4476 22.939L64.3871 21.909C64.6986 21.5642 65.0174 21.2262 65.3393 20.8912L65.29 20.9045C65.9261 21.1078 66.5518 21.3455 67.1791 21.5746L69.0586 22.2657C69.6867 22.4913 70.305 22.7406 70.9217 22.9919C71.2288 23.1205 71.5318 23.2582 71.8282 23.4076C72.1318 23.5386 72.4068 23.7279 72.6377 23.9646L72.6387 23.9658C72.6408 23.9683 72.6438 23.97 72.647 23.9704C72.6503 23.9709 72.6536 23.9701 72.6563 23.9682C72.659 23.9663 72.6609 23.9635 72.6617 23.9603C72.6624 23.9571 72.6619 23.9538 72.6603 23.9509Z" fill="#9BDEFB"/>
<path d="M69.2435 20.8211C70.0449 20.2188 70.8386 19.6071 71.6247 18.986L71.4848 18.9149C71.4323 19.6536 71.4397 20.3954 71.507 21.133C71.5397 21.506 71.6035 21.8756 71.6978 22.2379C71.7475 22.4241 71.8162 22.6046 71.9029 22.7767C71.993 22.9655 72.1335 23.1257 72.309 23.2396C72.3372 23.2565 72.3707 23.2621 72.4028 23.2554C72.4349 23.2487 72.4633 23.23 72.4823 23.2033C72.5013 23.1765 72.5095 23.1435 72.5052 23.111C72.5009 23.0784 72.4845 23.0487 72.4592 23.0277L72.4573 23.0261C72.027 22.6696 71.5771 22.3511 71.1183 22.0405C70.6585 21.7327 70.1866 21.4429 69.7019 21.1748C68.7348 20.6277 67.6836 20.2449 66.5912 20.042L66.589 20.0416C66.5823 20.0406 66.5754 20.0412 66.569 20.0435C66.5626 20.0457 66.5569 20.0494 66.5523 20.0544C66.2728 20.3567 65.9931 20.6588 65.7182 20.9656C66.0202 20.6854 66.3173 20.4004 66.6147 20.1157L66.5758 20.1281C67.1072 20.2537 67.6272 20.4229 68.1308 20.634C68.6305 20.8542 69.1184 21.1004 69.5923 21.3717C70.5405 21.9148 71.4425 22.5349 72.2891 23.2257L72.4373 23.0123C72.1775 22.7983 72.0002 22.5007 71.9356 22.1704C71.8407 21.8225 71.775 21.4674 71.7391 21.1086C71.6659 20.383 71.6382 19.6535 71.6561 18.9244L71.6562 18.9202C71.6566 18.9039 71.6522 18.8877 71.6436 18.8737C71.635 18.8598 71.6226 18.8486 71.6078 18.8415C71.593 18.8344 71.5765 18.8317 71.5602 18.8338C71.544 18.8359 71.5287 18.8426 71.5161 18.8532C70.7507 19.4995 69.9931 20.1554 69.2435 20.8211ZM72.3153 19.4554C72.2758 20.1039 72.301 20.7547 72.3904 21.3982C72.4323 21.7206 72.4915 22.0404 72.5677 22.3564C72.6331 22.6789 72.754 22.9875 72.9252 23.2685C72.853 22.9557 72.8013 22.6385 72.7703 22.319L72.6519 21.3636C72.5742 20.7219 72.4618 20.0849 72.3153 19.4554Z" fill="#9BDEFB"/>
<path d="M70.2875 22.1457C69.7282 21.785 69.1364 21.4774 68.5198 21.2269C68.2118 21.1027 67.9012 20.9839 67.5814 20.8884C67.2629 20.7818 66.9314 20.719 66.596 20.7017C66.9107 20.8138 67.2067 20.9532 67.5104 21.0817C67.8115 21.2151 68.1149 21.3431 68.4189 21.4706C69.0286 21.7306 69.6524 21.956 70.2875 22.1457ZM58.0061 29.5479C58.5051 29.2503 58.9777 28.9105 59.4187 28.5322C59.8673 28.163 60.2831 27.7556 60.6615 27.3146C60.1621 27.6118 59.6895 27.9516 59.2489 28.3303C58.8006 28.7 58.3848 29.1073 58.0061 29.5479Z" fill="#9BDEFB"/>
<path d="M41.8527 7.45196C41.8527 7.45196 41.5333 6.84341 39.9827 6.91014M41.8527 12.0762C41.5259 12.0216 41.2257 11.8624 40.9972 11.6225C40.7687 11.3826 40.6243 11.075 40.5858 10.7459M42.011 9.73238C42.011 9.73238 41.7577 10.4608 42.3911 10.3025" stroke="#9BDEFB" stroke-width="0.968" stroke-linecap="round" stroke-linejoin="round"/>
<path d="M40.8075 8.38617C40.7049 8.38262 40.6077 8.33935 40.5363 8.2655C40.465 8.19164 40.4251 8.09296 40.4251 7.99027C40.4251 7.88758 40.465 7.7889 40.5363 7.71504C40.6077 7.64118 40.7049 7.59791 40.8075 7.59436C40.9102 7.59791 41.0074 7.64118 41.0787 7.71504C41.1501 7.7889 41.19 7.88758 41.19 7.99027C41.19 8.09296 41.1501 8.19164 41.0787 8.2655C41.0074 8.33935 40.9102 8.38262 40.8075 8.38617ZM11.3203 52.0904C11.1402 51.9739 10.9942 51.8116 10.8972 51.6202C10.787 51.4324 10.6911 51.2337 10.5953 51.0339C10.4067 50.6267 10.1979 50.2292 9.96943 49.8429C9.5132 49.0253 8.81841 48.3663 7.97783 47.9539C7.11529 47.5816 6.15817 47.4873 5.23956 47.6842C4.79315 47.7732 4.35619 47.9044 3.93456 48.0759C3.51525 48.2408 3.11275 48.4377 2.7053 48.6017L2.81589 48.735C3.57964 47.3866 4.42584 46.0876 5.27498 44.7905C6.1264 43.4946 6.93752 42.1746 7.75321 40.8574C8.5655 39.5381 9.35555 38.2054 10.1096 36.8512C10.4924 36.1776 10.8726 35.5023 11.2385 34.8186C11.6111 34.1388 11.9729 33.4525 12.324 32.7598C12.3271 32.7539 12.3277 32.747 12.3259 32.7405C12.324 32.7341 12.3198 32.7286 12.3141 32.7251C12.3083 32.7217 12.3015 32.7205 12.2949 32.7219C12.2883 32.7233 12.2826 32.7272 12.2787 32.7327C11.8329 33.3685 11.3977 34.0107 10.9732 34.6594C10.5421 35.304 10.1252 35.9573 9.71105 36.6121C8.87105 37.9148 8.06708 39.2391 7.28532 40.5767C6.50697 41.9163 5.72408 43.2533 4.98145 44.6144C4.23658 45.9741 3.48873 47.3321 2.65844 48.6406C2.64826 48.6566 2.64336 48.6754 2.64442 48.6944C2.64548 48.7134 2.65245 48.7316 2.66436 48.7464C2.67627 48.7612 2.69251 48.7719 2.71081 48.777C2.72911 48.7821 2.74857 48.7814 2.76643 48.7749L2.76907 48.7739C3.57994 48.4351 4.42959 48.1978 5.29869 48.0676C6.14155 47.9631 6.99715 48.0698 7.78859 48.3779C8.17196 48.549 8.52538 48.7805 8.83541 49.0636C9.14958 49.3567 9.43184 49.6822 9.67746 50.0347C9.92788 50.3908 10.1574 50.767 10.3936 51.146C10.5141 51.334 10.6357 51.5234 10.774 51.7041C10.9029 51.8984 11.0867 52.0501 11.302 52.1399C11.3082 52.142 11.3151 52.1416 11.3211 52.1388C11.3271 52.1361 11.3318 52.1311 11.3344 52.125C11.3369 52.1189 11.3371 52.1121 11.3349 52.1059C11.3326 52.0997 11.3281 52.0945 11.3222 52.0915L11.3203 52.0904ZM34.9721 65.5063C34.9721 65.5063 37.3166 65.509 37.1128 65.8257C37.1128 65.8257 36.8905 67.4635 36.5922 67.4727H34.9721M27.8395 11.2883C27.3673 11.1136 26.8762 10.995 26.3763 10.9351C25.8749 10.8662 25.3652 10.8864 24.8708 10.9946C24.366 11.1046 23.9093 11.3724 23.5669 11.7593C23.4865 11.8689 23.4314 11.995 23.4057 12.1285C23.3761 12.2529 23.3541 12.3789 23.3398 12.506C23.3099 12.758 23.2977 13.0099 23.292 13.2616C23.3186 15.2684 23.528 17.2687 23.9175 19.2375C24.2736 21.2101 24.7412 23.1608 25.3181 25.0804C25.8885 27.0026 26.5892 28.8836 27.4154 30.7104C28.2307 32.5429 29.2338 34.286 30.4087 35.9116C31.0163 36.7119 31.725 37.4302 32.5172 38.0484C33.317 38.6584 34.1969 39.1553 35.1321 39.5253L35.8407 39.7832L36.5696 39.9768C36.8133 40.0388 37.0602 40.0874 37.3092 40.1224L37.6812 40.1859C37.8056 40.2033 37.9317 40.2079 38.0569 40.2194C39.0606 40.3205 40.0738 40.2702 41.0626 40.0702C41.5576 39.9735 42.0457 39.8446 42.5238 39.6842C42.9975 39.5101 43.4591 39.3049 43.9057 39.0699L44.2408 38.8935C44.3599 38.8373 44.4706 38.7649 44.5698 38.6784C44.7617 38.5075 44.9377 38.3194 45.0955 38.1166C45.2543 37.9184 45.4028 37.7136 45.5433 37.5025C45.6136 37.3971 45.6808 37.2891 45.7461 37.1791C45.7772 37.1221 45.8102 37.0682 45.8391 37.0075C45.8553 36.9771 45.8697 36.9458 45.8822 36.9138C45.889 36.8959 45.8957 36.8824 45.9024 36.861C45.909 36.8345 45.914 36.8077 45.9174 36.7806C45.9197 36.7618 45.9153 36.7426 45.9051 36.7266L45.8983 36.716C45.5867 36.2284 45.2777 35.7379 44.9778 35.2439C44.8292 34.997 44.6782 34.7479 44.5468 34.4984L44.5225 34.4517C44.5806 34.5039 44.4401 34.3738 44.4521 34.3865L44.446 34.3839L44.4337 34.3786L44.4093 34.3681L44.3115 34.3259C44.2465 34.2975 44.1806 34.2712 44.1175 34.2385C43.9893 34.1776 43.8631 34.1129 43.7402 34.0418C42.7471 33.4788 41.9383 32.6402 41.4115 31.6273C41.1596 31.1272 40.9539 30.5703 40.7155 30.0447L40.0105 28.4524C39.5285 27.3962 39.0401 26.3428 38.5247 25.3022C37.509 23.2139 36.3916 21.1786 35.1726 19.1962C33.9806 17.1981 32.5839 15.3296 31.0051 13.6207C31.0001 13.6156 30.9942 13.6114 30.9878 13.6083C30.3979 13.3232 29.8342 12.9867 29.3032 12.6028C29.0366 12.4117 28.7801 12.2068 28.5348 11.9889C28.2888 11.77 28.0565 11.536 27.8395 11.2883ZM27.8241 11.3098C28.0347 11.5623 28.2611 11.8012 28.502 12.0251C28.7437 12.2498 28.997 12.4618 29.2609 12.6601C29.7881 13.0599 30.3495 13.4124 30.9385 13.7136L30.9214 13.7013C32.4705 15.4223 33.8373 17.2991 34.9999 19.3016C36.192 21.2864 37.2655 23.3406 38.2842 25.4201C38.796 26.459 39.2811 27.5108 39.7598 28.5654L40.4598 30.1554C40.6981 30.6866 40.894 31.2207 41.1672 31.755C41.7232 32.8106 42.5731 33.6827 43.6141 34.2657C43.7427 34.3391 43.8748 34.4059 44.0089 34.4687C44.0748 34.5024 44.1437 34.5296 44.2116 34.5588L44.3138 34.6022L44.3393 34.613L44.3521 34.6184L44.3585 34.6212C44.3754 34.6348 44.2368 34.509 44.2969 34.5653L44.3231 34.6149C44.4634 34.8777 44.6149 35.1238 44.7664 35.3728C45.0709 35.8683 45.3827 36.3574 45.6982 36.8452L45.6791 36.7806C45.6776 36.7821 45.6765 36.7839 45.6757 36.7859C45.6749 36.7878 45.6746 36.7899 45.6746 36.792L45.661 36.8266C45.6509 36.8528 45.6394 36.8784 45.6264 36.9033C45.6023 36.9558 45.5707 37.0092 45.5425 37.0622C45.4814 37.1679 45.4178 37.273 45.3505 37.3763C45.2165 37.5831 45.0736 37.785 44.922 37.9788C44.775 38.1725 44.6107 38.3526 44.4313 38.5168C44.3429 38.5959 44.2436 38.662 44.1364 38.713L43.8099 38.8898C43.3744 39.1255 42.9237 39.3322 42.4609 39.5086C41.9928 39.6715 41.5146 39.8038 41.0293 39.9045C40.0573 40.114 39.0591 40.1742 38.069 40.0828C37.9453 40.0724 37.8208 40.069 37.6978 40.0528L37.33 39.993C37.0837 39.9605 36.8393 39.9145 36.598 39.8552L35.8758 39.6698L35.1729 39.4203C34.2434 39.0613 33.3678 38.5761 32.5706 37.9784C31.7791 37.372 31.076 36.6581 30.4817 35.8575C29.3196 34.2327 28.3407 32.4844 27.5627 30.6446C26.0076 26.9646 24.856 23.1268 24.1283 19.1986C23.9437 18.2179 23.7861 17.2321 23.6641 16.2421C23.5301 15.2547 23.4569 14.2599 23.445 13.2635C23.447 13.0153 23.4555 12.7671 23.4811 12.5222C23.4894 12.285 23.5529 12.053 23.6667 11.8448C23.9876 11.4715 24.4172 11.2078 24.8953 11.0907C25.3775 10.9733 25.8765 10.9417 26.3696 10.9975C26.8648 11.0453 27.3529 11.1501 27.8241 11.3098Z" fill="#9BDEFB"/>
<path d="M24.4089 21.754C24.4144 21.7842 24.4215 21.8142 24.43 21.8437C24.4538 21.7355 24.4775 21.6246 24.4987 21.5138C24.467 21.593 24.4379 21.6748 24.4089 21.754Z" fill="#9BDEFB"/>
<path d="M21.7151 34.1115V35.8588" stroke="#9BDEFB" stroke-width="0.968" stroke-miterlimit="10"/>
<path d="M44.5047 37.2049C44.402 37.2013 44.3048 37.1581 44.2334 37.0842C44.1621 37.0104 44.1222 36.9117 44.1222 36.809C44.1222 36.7063 44.1621 36.6076 44.2334 36.5338C44.3048 36.4599 44.402 36.4166 44.5047 36.4131C44.6073 36.4166 44.7045 36.4599 44.7759 36.5338C44.8472 36.6076 44.8871 36.7063 44.8871 36.809C44.8871 36.9117 44.8472 37.0104 44.7759 37.0842C44.7045 37.1581 44.6073 37.2013 44.5047 37.2049ZM42.9369 38.3926C42.8342 38.3891 42.737 38.3458 42.6656 38.272C42.5943 38.1981 42.5544 38.0994 42.5544 37.9967C42.5544 37.894 42.5943 37.7953 42.6656 37.7215C42.737 37.6476 42.8342 37.6044 42.9369 37.6008C43.0395 37.6044 43.1367 37.6476 43.2081 37.7215C43.2794 37.7953 43.3193 37.894 43.3193 37.9967C43.3193 38.0994 43.2794 38.1981 43.2081 38.272C43.1367 38.3458 43.0395 38.3891 42.9369 38.3926ZM40.799 39.3428C40.6963 39.3392 40.5991 39.296 40.5278 39.2221C40.4564 39.1483 40.4165 39.0496 40.4165 38.9469C40.4165 38.8442 40.4564 38.7455 40.5278 38.6717C40.5991 38.5978 40.6963 38.5545 40.799 38.551C40.9016 38.5545 40.9988 38.5978 41.0702 38.6717C41.1415 38.7455 41.1814 38.8442 41.1814 38.9469C41.1814 39.0496 41.1415 39.1483 41.0702 39.2221C40.9988 39.296 40.9016 39.3392 40.799 39.3428ZM38.186 39.5328C38.0833 39.5293 37.9861 39.486 37.9147 39.4122C37.8434 39.3383 37.8035 39.2396 37.8035 39.1369C37.8035 39.0342 37.8434 38.9355 37.9147 38.8617C37.9861 38.7878 38.0833 38.7446 38.186 38.741C38.2886 38.7446 38.3859 38.7878 38.4572 38.8617C38.5286 38.9355 38.5684 39.0342 38.5684 39.1369C38.5684 39.2396 38.5286 39.3383 38.4572 39.4122C38.3859 39.486 38.2886 39.5293 38.186 39.5328ZM35.573 38.8202C35.4704 38.8167 35.3731 38.7734 35.3018 38.6995C35.2304 38.6257 35.1905 38.527 35.1905 38.4243C35.1905 38.3216 35.2304 38.2229 35.3018 38.1491C35.3731 38.0752 35.4704 38.0319 35.573 38.0284C35.6756 38.0319 35.7729 38.0752 35.8442 38.1491C35.9156 38.2229 35.9555 38.3216 35.9555 38.4243C35.9555 38.527 35.9156 38.6257 35.8442 38.6995C35.7729 38.7734 35.6756 38.8167 35.573 38.8202ZM33.2926 37.5375C33.1899 37.5339 33.0927 37.4907 33.0213 37.4168C32.95 37.3429 32.9101 37.2443 32.9101 37.1416C32.9101 37.0389 32.95 36.9402 33.0213 36.8663C33.0927 36.7925 33.1899 36.7492 33.2926 36.7457C33.3952 36.7492 33.4925 36.7925 33.5638 36.8663C33.6352 36.9402 33.675 37.0389 33.675 37.1416C33.675 37.2443 33.6352 37.3429 33.5638 37.4168C33.4925 37.4907 33.3952 37.5339 33.2926 37.5375ZM31.1547 35.5896C31.0521 35.586 30.9548 35.5428 30.8835 35.4689C30.8121 35.3951 30.7722 35.2964 30.7722 35.1937C30.7722 35.091 30.8121 34.9923 30.8835 34.9185C30.9548 34.8446 31.0521 34.8013 31.1547 34.7978C31.2573 34.8013 31.3545 34.8446 31.4259 34.9185C31.4972 34.9923 31.5371 35.091 31.5371 35.1937C31.5371 35.2964 31.4972 35.3951 31.4259 35.4689C31.3545 35.5428 31.2573 35.586 31.1547 35.5896ZM29.3018 32.7866C29.1992 32.783 29.102 32.7398 29.0306 32.6659C28.9592 32.5921 28.9194 32.4934 28.9194 32.3907C28.9194 32.288 28.9592 32.1893 29.0306 32.1154C29.102 32.0416 29.1992 31.9983 29.3018 31.9948C29.4045 31.9983 29.5017 32.0416 29.5731 32.1154C29.6444 32.1893 29.6843 32.288 29.6843 32.3907C29.6843 32.4934 29.6444 32.5921 29.5731 32.6659C29.5017 32.7398 29.4045 32.783 29.3018 32.7866ZM27.9716 30.2211C27.869 30.2176 27.7717 30.1743 27.7004 30.1004C27.629 30.0266 27.5891 29.9279 27.5891 29.8252C27.5891 29.7225 27.629 29.6238 27.7004 29.55C27.7717 29.4761 27.869 29.4328 27.9716 29.4293C28.0742 29.4328 28.1715 29.4761 28.2428 29.55C28.3142 29.6238 28.3541 29.7225 28.3541 29.8252C28.3541 29.9279 28.3142 30.0266 28.2428 30.1004C28.1715 30.1743 28.0742 30.2176 27.9716 30.2211ZM26.9264 27.3706C26.8238 27.367 26.7265 27.3238 26.6552 27.2499C26.5838 27.176 26.544 27.0774 26.544 26.9747C26.544 26.872 26.5838 26.7733 26.6552 26.6994C26.7265 26.6256 26.8238 26.5823 26.9264 26.5788C27.029 26.5823 27.1263 26.6256 27.1976 26.6994C27.269 26.7733 27.3088 26.872 27.3088 26.9747C27.3088 27.0774 27.269 27.176 27.1976 27.2499C27.1263 27.3238 27.029 27.367 26.9264 27.3706ZM26.1187 24.7576C26.0161 24.754 25.9189 24.7108 25.8475 24.6369C25.7762 24.5631 25.7363 24.4644 25.7363 24.3617C25.7363 24.259 25.7762 24.1603 25.8475 24.0865C25.9189 24.0126 26.0161 23.9693 26.1187 23.9658C26.2214 23.9693 26.3186 24.0126 26.39 24.0865C26.4613 24.1603 26.5012 24.259 26.5012 24.3617C26.5012 24.4644 26.4613 24.5631 26.39 24.6369C26.3186 24.7108 26.2214 24.754 26.1187 24.7576ZM25.3111 22.0496C25.2085 22.0461 25.1112 22.0028 25.0399 21.9289C24.9685 21.8551 24.9286 21.7564 24.9286 21.6537C24.9286 21.551 24.9685 21.4523 25.0399 21.3785C25.1112 21.3046 25.2085 21.2613 25.3111 21.2578C25.4137 21.2613 25.511 21.3046 25.5823 21.3785C25.6537 21.4523 25.6936 21.551 25.6936 21.6537C25.6936 21.7564 25.6537 21.8551 25.5823 21.9289C25.511 22.0028 25.4137 22.0461 25.3111 22.0496ZM24.6935 19.0565C24.5908 19.053 24.4936 19.0097 24.4222 18.9359C24.3509 18.862 24.311 18.7633 24.311 18.6606C24.311 18.5579 24.3509 18.4593 24.4222 18.3854C24.4936 18.3115 24.5908 18.2683 24.6935 18.2647C24.7961 18.2683 24.8934 18.3115 24.9647 18.3854C25.0361 18.4593 25.076 18.5579 25.076 18.6606C25.076 18.7633 25.0361 18.862 24.9647 18.9359C24.8934 19.0097 24.7961 19.053 24.6935 19.0565ZM24.4084 16.5386C24.3058 16.535 24.2086 16.4918 24.1372 16.4179C24.0658 16.3441 24.026 16.2454 24.026 16.1427C24.026 16.04 24.0658 15.9413 24.1372 15.8674C24.2086 15.7936 24.3058 15.7503 24.4084 15.7468C24.5111 15.7503 24.6083 15.7936 24.6797 15.8674C24.751 15.9413 24.7909 16.04 24.7909 16.1427C24.7909 16.2454 24.751 16.3441 24.6797 16.4179C24.6083 16.4918 24.5111 16.535 24.4084 16.5386ZM24.2184 13.6881C24.1158 13.6845 24.0185 13.6412 23.9472 13.5674C23.8758 13.4935 23.836 13.3948 23.836 13.2921C23.836 13.1895 23.8758 13.0908 23.9472 13.0169C24.0185 12.9431 24.1158 12.8998 24.2184 12.8962C24.321 12.8998 24.4183 12.9431 24.4896 13.0169C24.561 13.0908 24.6008 13.1895 24.6008 13.2921C24.6008 13.3948 24.561 13.4935 24.4896 13.5674C24.4183 13.6412 24.321 13.6845 24.2184 13.6881ZM10.5042 49.3355C10.4016 49.3319 10.3043 49.2887 10.233 49.2148C10.1616 49.141 10.1217 49.0423 10.1217 48.9396C10.1217 48.8369 10.1616 48.7382 10.233 48.6643C10.3043 48.5905 10.4016 48.5472 10.5042 48.5437C10.6068 48.5472 10.7041 48.5905 10.7754 48.6643C10.8468 48.7382 10.8867 48.8369 10.8867 48.9396C10.8867 49.0423 10.8468 49.141 10.7754 49.2148C10.7041 49.2887 10.6068 49.3319 10.5042 49.3355ZM9.36398 48.0686C9.26135 48.065 9.16412 48.0218 9.09277 47.9479C9.02142 47.874 8.98154 47.7754 8.98154 47.6727C8.98154 47.57 9.02142 47.4713 9.09277 47.3974C9.16412 47.3236 9.26135 47.2803 9.36398 47.2768C9.46661 47.2803 9.56385 47.3236 9.63519 47.3974C9.70654 47.4713 9.74641 47.57 9.74641 47.6727C9.74641 47.7754 9.70654 47.874 9.63519 47.9479C9.56385 48.0218 9.46661 48.065 9.36398 48.0686ZM7.71701 47.3084C7.61438 47.3049 7.51714 47.2616 7.44579 47.1878C7.37445 47.1139 7.33458 47.0152 7.33458 46.9125C7.33458 46.8098 7.37445 46.7112 7.44579 46.6373C7.51714 46.5634 7.61438 46.5202 7.71701 46.5166C7.81964 46.5202 7.91687 46.5634 7.98822 46.6373C8.05957 46.7112 8.09945 46.8098 8.09945 46.9125C8.09945 47.0152 8.05957 47.1139 7.98822 47.1878C7.91687 47.2616 7.81964 47.3049 7.71701 47.3084ZM5.94335 47.1818C5.84072 47.1782 5.74348 47.1349 5.67213 47.0611C5.60079 46.9872 5.56091 46.8885 5.56091 46.7858C5.56091 46.6832 5.60079 46.5845 5.67213 46.5106C5.74348 46.4368 5.84072 46.3935 5.94335 46.3899C6.04597 46.3935 6.14322 46.4368 6.21456 46.5106C6.2859 46.5845 6.32578 46.6832 6.32578 46.7858C6.32578 46.8885 6.2859 46.9872 6.21456 47.0611C6.14322 47.1349 6.04597 47.1782 5.94335 47.1818ZM4.48641 47.5618C4.38378 47.5583 4.28654 47.515 4.2152 47.4411C4.14385 47.3673 4.10398 47.2686 4.10398 47.1659C4.10398 47.0632 4.14385 46.9645 4.2152 46.8907C4.28654 46.8168 4.38378 46.7736 4.48641 46.77C4.58904 46.7736 4.68628 46.8168 4.75762 46.8907C4.82897 46.9645 4.86884 47.0632 4.86884 47.1659C4.86884 47.2686 4.82897 47.3673 4.75762 47.4411C4.68628 47.515 4.58904 47.5583 4.48641 47.5618ZM2.3406 49.9531C1.32161 49.9531 1.31992 48.3695 2.3406 48.3695C3.35958 48.3695 3.36127 49.9531 2.3406 49.9531Z" fill="#9BDEFB"/>
<path d="M48.4899 28.1573L51.0133 32.2351L51.0192 32.2447L51.03 32.2475C52.129 32.5417 53.2493 32.7496 54.3807 32.8696C54.9475 32.9259 55.5168 32.9537 56.0864 32.953C56.658 32.9461 57.228 32.891 57.7904 32.7883L57.8382 32.7792L57.8439 32.7293C57.8623 32.4155 57.9104 32.1041 57.9877 31.7994C58.0741 31.5003 58.2091 31.2175 58.3874 30.9623C58.7473 30.45 59.2646 30.0693 59.8606 29.878L59.8969 29.8663L59.909 29.8299L60.6615 27.5661L60.8496 27.0001L60.9437 26.7171L60.9907 26.5756C61.0041 26.5349 61.0224 26.4959 61.0454 26.4597C61.0911 26.3875 61.1547 26.3285 61.23 26.2882C61.3053 26.2479 61.3898 26.2278 61.4752 26.2298C61.5605 26.2318 61.6439 26.2559 61.7173 26.2997C61.7906 26.3435 61.8513 26.4055 61.8936 26.4797C61.9359 26.5536 61.9582 26.6373 61.9582 26.7225C61.9509 26.8155 61.9353 26.9076 61.9116 26.9978L61.7888 27.5815L61.5433 28.7487L61.2977 29.916C61.2804 29.9755 61.2758 30.0379 61.2842 30.0993C61.2938 30.1508 61.3157 30.1993 61.348 30.2406C61.3804 30.2819 61.4222 30.3148 61.4699 30.3365C61.5176 30.3582 61.5699 30.3681 61.6223 30.3653C61.6747 30.3626 61.7256 30.3472 61.7708 30.3206C61.8315 30.285 61.879 30.2306 61.9063 30.1657L61.956 30.0169L62.0482 29.7334L62.7859 27.4649L62.9703 26.8977C63.0007 26.8076 63.0327 26.6988 63.0616 26.624C63.1025 26.5295 63.1729 26.4508 63.2623 26.3998C63.3517 26.3487 63.4552 26.3279 63.5574 26.3406C63.6595 26.3534 63.7548 26.3989 63.8289 26.4703C63.903 26.5418 63.952 26.6354 63.9684 26.737C63.9793 26.8229 63.9717 26.9101 63.9463 26.9929L63.883 27.2843L63.7564 27.8671L63.5033 29.0326L63.2503 30.1982L63.1867 30.4931C63.1733 30.5664 63.184 30.642 63.217 30.7088C63.2501 30.7756 63.3038 30.8299 63.3702 30.8638C63.4754 30.902 63.5833 30.9326 63.6929 30.9554C63.767 30.9653 63.8424 30.951 63.9077 30.9146C63.9731 30.8783 64.025 30.8218 64.0558 30.7536L64.7932 28.472L65.159 27.3368L65.2504 27.053C65.272 26.9757 65.3134 26.9055 65.3706 26.8493C65.4263 26.7939 65.4954 26.754 65.5711 26.7334C65.6469 26.7128 65.7267 26.7123 65.8027 26.7318C65.8786 26.7506 65.948 26.7894 66.0037 26.8442C66.0593 26.8991 66.0992 26.9679 66.119 27.0435C66.1414 27.1206 66.1454 27.2018 66.1307 27.2806L66.0685 27.5676L65.8122 28.7325L65.304 31.0702C65.2916 31.1472 65.3044 31.226 65.3405 31.295C65.3767 31.364 65.4342 31.4195 65.5044 31.4531C65.5747 31.4868 65.6539 31.4968 65.7304 31.4817C65.8068 31.4665 65.8762 31.4271 65.9284 31.3692C65.9722 31.3174 66.0033 31.2561 66.0195 31.1902L66.0654 31.0484L66.1573 30.7647L66.525 29.63L66.8926 28.4952L67.075 27.9378C67.1054 27.8646 67.1542 27.8004 67.2166 27.7517C67.2791 27.7029 67.3532 27.6711 67.4316 27.6594C67.51 27.6477 67.5901 27.6565 67.6641 27.6849C67.7381 27.7134 67.8035 27.7605 67.8539 27.8217C67.9045 27.8831 67.9387 27.9564 67.9531 28.0346C67.9651 28.1184 67.9587 28.2038 67.9345 28.285L67.6898 29.4524L67.2004 31.7872L67.1086 32.2249L67.3921 31.8795L68.346 30.7173L68.1566 30.6263C68.0192 31.2553 67.8295 31.8718 67.5894 32.4693C67.4715 32.7645 67.3238 33.0469 67.1486 33.3122C67.0637 33.4393 66.9624 33.5545 66.8473 33.655C66.7246 33.7519 66.5937 33.8378 66.4559 33.9116C66.1799 34.0626 65.8807 34.1668 65.5706 34.2199C65.4161 34.2466 65.2596 34.2598 65.1028 34.2594C64.9405 34.2591 64.7735 34.2603 64.6096 34.2695C63.9533 34.3117 63.3035 34.4235 62.6708 34.6029L62.6482 34.6091L62.6318 34.6241C61.8576 35.2962 61.0093 35.878 60.1035 36.3582C59.211 36.872 58.3099 37.3706 57.3971 37.8464C56.4833 38.3195 55.5601 38.7768 54.6121 39.1732C53.6826 39.6056 52.6884 39.8824 51.6692 39.9925C50.6468 40.0711 49.6228 39.8606 48.7142 39.3851C47.8121 38.8927 47.0133 38.2312 46.3614 37.4368C45.7012 36.6466 45.1223 35.792 44.6334 34.8858C44.1388 33.9816 43.6967 33.0496 43.3095 32.0945C43.6855 33.0549 44.1165 33.9929 44.6006 34.9038C45.0803 35.8192 45.6511 36.684 46.3042 37.4851C46.9544 38.2967 47.7549 38.9756 48.6619 39.4845C49.5849 39.9844 50.6322 40.2086 51.6789 40.1302C52.7141 40.0234 53.7246 39.7472 54.6701 39.3126C55.626 38.9175 56.5539 38.4625 57.4725 37.9919C58.3898 37.5186 59.295 37.0226 60.1913 36.5116C61.1106 36.0287 61.972 35.4427 62.7587 34.765L62.7197 34.7861C63.34 34.6128 63.9769 34.5059 64.6198 34.467C64.7805 34.4588 64.9387 34.4583 65.1014 34.4592C65.2699 34.4604 65.4381 34.4469 65.6042 34.419C65.9366 34.3634 66.2574 34.2532 66.5537 34.0928C66.703 34.0136 66.8449 33.9212 66.9778 33.8169C67.1088 33.7045 67.2241 33.5749 67.3204 33.4316C67.5049 33.1546 67.6604 32.8594 67.7847 32.5507C68.0315 31.9415 68.2267 31.3127 68.3683 30.6709L68.4694 30.2273L68.1789 30.5799L67.2229 31.7404L67.4147 31.8326L67.9137 29.5002L68.1633 28.3341C68.1939 28.2234 68.2012 28.1076 68.1848 27.994C68.1587 27.8452 68.0852 27.7088 67.9751 27.6054C67.865 27.5019 67.7244 27.4369 67.5743 27.4201C67.4241 27.4033 67.2726 27.4357 67.1424 27.5123C67.0122 27.5889 66.9103 27.7057 66.8521 27.8451C66.7792 28.051 66.725 28.2275 66.6606 28.4201L66.2883 29.5531L65.916 30.6861L65.8229 30.9693C65.8031 31.0482 65.7747 31.1246 65.7382 31.1973C65.7233 31.2139 65.7034 31.2252 65.6815 31.2295C65.6596 31.2338 65.6368 31.2309 65.6167 31.2213C65.5966 31.2116 65.5802 31.1957 65.5698 31.1759C65.5595 31.1561 65.5559 31.1335 65.5595 31.1114L66.0654 28.7876L66.3168 27.6217L66.3797 27.3257C66.4009 27.2082 66.3944 27.0873 66.3607 26.9728C66.3279 26.8556 66.2646 26.7492 66.1773 26.6644C66.09 26.5796 65.9818 26.5195 65.8636 26.4901C65.6867 26.4461 65.4997 26.4724 65.3417 26.5634C65.1838 26.6544 65.0673 26.803 65.0166 26.9781L64.9263 27.2623L64.5653 28.399L63.8462 30.6602C63.8358 30.6834 63.8183 30.7026 63.7962 30.715C63.7741 30.7274 63.7485 30.7324 63.7234 30.7292C63.6655 30.7152 63.5157 30.6773 63.4724 30.6611C63.4496 30.6495 63.431 30.6309 63.4195 30.6079C63.4081 30.585 63.4043 30.5589 63.4088 30.5337L63.4698 30.2454L63.718 29.0789L63.9663 27.9124L64.0904 27.3291L64.1525 27.0375C64.1829 26.9288 64.1907 26.8151 64.1755 26.7033C64.1515 26.5576 64.0811 26.4237 63.9746 26.3214C63.8681 26.2192 63.7314 26.1542 63.5848 26.1362C63.4383 26.1183 63.2899 26.1483 63.1619 26.2217C63.0339 26.2952 62.9331 26.4081 62.8747 26.5437C62.8327 26.6547 62.8108 26.7375 62.7778 26.8358L62.5957 27.4036L61.8675 29.675L61.7764 29.9589L61.7327 30.0932C61.7213 30.1208 61.7013 30.1439 61.6756 30.1591C61.6497 30.1742 61.6196 30.1807 61.5898 30.1776C61.5599 30.1746 61.5319 30.1621 61.5096 30.142C61.4876 30.1215 61.4726 30.0946 61.4667 30.0651C61.4629 30.0275 61.4671 29.9896 61.4789 29.9537L61.7195 28.7857L61.9602 27.6177L62.0805 27.0337C62.1068 26.9315 62.1232 26.8271 62.1296 26.7218C62.1289 26.5783 62.0817 26.439 61.9951 26.3246C61.9084 26.2102 61.787 26.1271 61.649 26.0876C61.5111 26.0481 61.3641 26.0545 61.23 26.1056C61.096 26.1568 60.9822 26.2501 60.9057 26.3715C60.8756 26.4194 60.8516 26.4709 60.8342 26.5247L60.7878 26.6664L60.6949 26.9497L60.5092 27.5163L59.7662 29.7827L59.8145 29.7348C59.1887 29.9384 58.6465 30.3408 58.2704 30.8809C58.0845 31.1495 57.944 31.4468 57.8547 31.761C57.7763 32.0738 57.7279 32.3934 57.7101 32.7154L57.7635 32.6564C57.2093 32.7595 56.6479 32.8188 56.0844 32.8339C55.5189 32.8414 54.9535 32.8205 54.3901 32.7714C53.2619 32.6654 52.1437 32.4717 51.0456 32.192L51.0622 32.2044L48.4899 28.1573Z" fill="#9BDEFB"/>
</svg>
