<svg width="75" height="75" viewBox="0 0 75 75" fill="none" xmlns="http://www.w3.org/2000/svg">
<g clip-path="url(#clip0_73_1635)">
<path d="M47.974 9.20447C48.1914 9.54396 48.3426 9.92198 48.4197 10.3184C48.4573 10.5146 48.477 10.7138 48.4785 10.9137C48.4795 11.1128 48.4613 11.3116 48.4242 11.5072L48.4388 11.4767C48.3761 11.5718 48.3443 11.6842 48.348 11.7983C48.3479 11.9062 48.3706 12.0129 48.4148 12.1112C48.4604 12.2041 48.5183 12.2902 48.587 12.3673C48.6464 12.4431 48.7041 12.5201 48.7585 12.5985C48.8128 12.6755 48.8623 12.7558 48.9068 12.8389C48.9276 12.8779 48.9452 12.9185 48.9593 12.9605C48.9692 12.9855 48.972 13.0127 48.9675 13.0393C48.9144 13.0952 48.8455 13.1333 48.7702 13.1484C48.6838 13.1696 48.595 13.1791 48.5062 13.1766C48.4841 13.176 48.4628 13.1842 48.4468 13.1995C48.4308 13.2148 48.4215 13.2358 48.4209 13.258L48.421 13.2655C48.4261 13.3425 48.4244 13.4199 48.4162 13.4966C48.4123 13.5315 48.405 13.5658 48.3944 13.5991C48.3894 13.6139 48.3818 13.6276 48.372 13.6396L48.3156 13.7035C48.297 13.7878 48.273 13.8708 48.2437 13.9519C48.2296 13.9908 48.2127 14.0286 48.1931 14.065C48.1778 14.0958 48.1571 14.1236 48.1319 14.147L48.1285 14.1497C48.1261 14.1515 48.1239 14.1536 48.1221 14.156C47.9868 14.3365 47.9231 14.5611 47.9433 14.7863C47.9488 14.8313 47.95 14.8768 47.9469 14.922C47.9419 14.9608 47.928 14.9978 47.9062 15.0301C47.8553 15.1001 47.7865 15.1547 47.707 15.1882C47.5294 15.2587 47.34 15.2944 47.1491 15.2932C46.9526 15.2985 46.756 15.2857 46.5618 15.2551C46.4569 15.234 46.3491 15.2321 46.2436 15.2497C46.1411 15.2742 46.0421 15.3115 45.9487 15.3606C45.7641 15.456 45.6024 15.5909 45.475 15.7559C45.2354 16.0886 45.0982 16.4848 45.0803 16.8954C45.1271 16.4963 45.2843 16.1185 45.5338 15.8049C45.6613 15.6568 45.8177 15.5366 45.9933 15.4518C46.0792 15.4105 46.1698 15.3798 46.263 15.3603C46.3563 15.3485 46.4509 15.354 46.5421 15.3765C46.9475 15.4754 47.3723 15.458 47.7685 15.3265C47.875 15.2823 47.9672 15.2092 48.0348 15.1153C48.0696 15.0641 48.0923 15.0055 48.1011 14.944C48.1064 14.8888 48.1062 14.8332 48.1006 14.778C48.0863 14.5969 48.1365 14.4165 48.2422 14.2692L48.2324 14.2782C48.2757 14.2419 48.3116 14.1973 48.3378 14.1471C48.3619 14.1038 48.3828 14.0588 48.4002 14.0124C48.4346 13.9232 48.4617 13.8313 48.4812 13.7376L48.4248 13.8014C48.4556 13.7884 48.4831 13.7685 48.5052 13.7432C48.5273 13.7179 48.5435 13.6879 48.5524 13.6555C48.5669 13.6101 48.5766 13.5634 48.5813 13.5159C48.5899 13.4282 48.5908 13.3399 48.5839 13.2521L48.4988 13.341C48.6042 13.3432 48.7093 13.3308 48.8114 13.3041C48.9274 13.2795 49.0309 13.2137 49.1028 13.1187C49.1173 13.0865 49.1251 13.0517 49.1258 13.0163C49.1265 12.981 49.1201 12.9459 49.107 12.9131C49.0896 12.8626 49.0679 12.8137 49.0423 12.7669C48.9939 12.6784 48.9399 12.5931 48.8809 12.5115C48.8233 12.4304 48.7631 12.352 48.7014 12.2752C48.6394 12.2076 48.5864 12.1321 48.5439 12.0506C48.5049 11.9716 48.4832 11.885 48.4803 11.7968C48.4757 11.7144 48.4928 11.6323 48.5298 11.5587L48.537 11.5475C48.5408 11.5416 48.5434 11.535 48.5444 11.5281C48.6082 11.12 48.5911 10.7032 48.4941 10.3018C48.396 9.90442 48.2191 9.53116 47.974 9.20447Z" fill="#CABDFF"/>
<path d="M46.5093 19.0277C46.3969 18.729 46.3475 18.4099 46.3642 18.0909C46.3747 17.9397 46.4195 17.793 46.4951 17.662C46.5682 17.5432 46.6885 17.4139 46.7778 17.2737C46.8711 17.1314 46.9437 16.9763 46.9934 16.8133C47.0414 16.645 47.0472 16.4674 47.0103 16.2964C46.9903 16.2147 46.9626 16.135 46.9276 16.0586C46.9 15.9871 46.8824 15.9122 46.8752 15.8358C46.8597 15.6761 46.87 15.515 46.9056 15.3586C46.8372 15.5099 46.7986 15.673 46.792 15.8391C46.7898 15.9251 46.7999 16.011 46.8219 16.0941C46.8475 16.1681 46.867 16.2442 46.88 16.3214C46.9072 16.6284 46.82 16.9345 46.6354 17.1803C46.5538 17.3158 46.4485 17.4233 46.3553 17.5826C46.2737 17.7369 46.2314 17.9091 46.2322 18.0839C46.2363 18.4182 46.3322 18.7449 46.5093 19.0277ZM48.0938 9.05922C48.0793 9.16319 47.9614 9.21116 47.87 9.26525C47.7711 9.31742 47.677 9.3782 47.5886 9.44689C47.4134 9.5893 47.2691 9.7664 47.1645 9.96723C47.0685 10.1703 46.99 10.3814 46.9298 10.598C46.8602 10.812 46.8047 11.0304 46.7639 11.2518C46.7513 11.3572 46.7301 11.4614 46.7007 11.5634C46.6597 11.6532 46.6007 11.7336 46.5274 11.7994C46.3633 11.935 46.1829 12.0493 45.9905 12.1395L45.6976 12.2896L45.3953 12.4302C45.2857 12.5036 45.1931 12.5998 45.1237 12.7124C45.0542 12.8249 45.0096 12.9511 44.9927 13.0825C44.9592 13.313 44.9487 13.5463 44.9613 13.7789C44.9637 13.8961 44.9738 14.0131 44.9915 14.129C45.0087 14.2459 45.0398 14.364 45.0609 14.4631C45.0815 14.5596 45.0893 14.6583 45.0841 14.7568C45.0805 14.8617 45.0706 14.9662 45.0546 15.0699C45.0243 15.2704 44.9522 15.4623 44.8431 15.6328C44.7273 15.8024 44.5757 15.944 44.3992 16.0476C44.2226 16.1512 44.0255 16.2141 43.8219 16.232C43.7221 16.2435 43.6212 16.239 43.5228 16.2187C43.421 16.186 43.3214 16.147 43.2243 16.102C43.0028 16.024 42.7658 16.0015 42.5337 16.0364C42.3118 16.0825 42.0971 16.1585 41.8953 16.2623C41.6995 16.3535 41.4898 16.4107 41.2751 16.4315C41.061 16.4468 40.8464 16.4119 40.6479 16.3298C40.4431 16.2561 40.2418 16.1651 40.04 16.0756C39.636 15.8965 39.233 15.7126 38.8526 15.498C38.6641 15.3958 38.4875 15.2729 38.3259 15.1315C38.2529 15.0665 38.1928 14.9881 38.1489 14.9005C38.1313 14.8676 38.1215 14.831 38.1202 14.7936C38.1189 14.7562 38.1261 14.7191 38.1413 14.6849C38.2056 14.6131 38.2793 14.5505 38.3605 14.4989L38.6309 14.3052C38.8107 14.1729 38.9876 14.0365 39.1618 13.8961C39.5222 13.6243 39.8589 13.3219 40.1682 12.9923C40.3179 12.8194 40.4572 12.6374 40.5853 12.4476C40.7185 12.2534 40.8278 12.0437 40.911 11.8231C40.9968 11.5983 41.0473 11.3615 41.0607 11.1211C41.0687 10.8785 41.0565 10.6753 41.0837 10.4673L41.0848 10.4482C41.0851 10.4524 41.0851 10.4565 41.0846 10.4606L41.0855 10.4536L41.0876 10.438L41.0926 10.4056L41.1038 10.34L41.1309 10.208C41.1514 10.1203 41.1731 10.0325 41.2 9.94621C41.2514 9.77358 41.3157 9.60512 41.3924 9.44228C41.5349 9.12025 41.7492 8.83561 42.0186 8.61047C42.2993 8.39018 42.6179 8.22405 42.9585 8.12045C43.3071 8.00965 43.6658 7.93412 44.0293 7.89498C44.3965 7.84843 44.7669 7.83108 45.1368 7.84311C45.5084 7.85875 45.8778 7.9083 46.2405 7.99115C46.6059 8.07 46.9614 8.18982 47.3004 8.34836C47.4705 8.42595 47.6321 8.5211 47.7827 8.63226C47.8579 8.68673 47.9269 8.74939 47.9885 8.8191C48.0528 8.88263 48.0905 8.96856 48.0938 9.05922ZM48.1276 9.06328C48.1271 8.96263 48.0876 8.86612 48.0177 8.79424C47.9553 8.72135 47.8851 8.65561 47.8084 8.5982C47.6563 8.4842 47.4949 8.38326 47.326 8.29645C46.9876 8.12409 46.6342 7.98321 46.2703 7.87554C45.5362 7.65764 44.7698 7.57082 44.0059 7.619C43.6189 7.63718 43.2353 7.70001 42.8625 7.80625C42.4775 7.90998 42.1167 8.08922 41.8007 8.33369C41.4839 8.58767 41.2314 8.91368 41.0639 9.28498C40.9797 9.46462 40.9092 9.65043 40.8529 9.84081C40.8237 9.93539 40.8001 10.0315 40.7778 10.1281L40.7482 10.2743L40.7356 10.3487L40.7299 10.3865L40.7273 10.4061L40.7259 10.4167L40.7235 10.4466L40.7246 10.4276C40.7086 10.6537 40.7041 10.8806 40.711 11.1072C40.7031 11.312 40.6635 11.5143 40.5936 11.7068C40.5232 11.9039 40.4294 12.0917 40.3141 12.266C40.1971 12.4464 40.0694 12.6197 39.9319 12.7848C39.6394 13.1073 39.323 13.4069 38.9854 13.6812C38.8186 13.8243 38.6491 13.9638 38.4768 14.0998L38.2162 14.3053C38.1135 14.3773 38.0234 14.466 37.9495 14.5677C37.9096 14.6354 37.8938 14.7148 37.9048 14.7928C37.9102 14.8622 37.9293 14.9298 37.9612 14.9915C38.0211 15.1009 38.1015 15.1975 38.198 15.2761C38.3765 15.4192 38.57 15.5422 38.7751 15.643C39.1746 15.8473 39.5872 16.0088 39.9923 16.1865C40.196 16.273 40.3995 16.3614 40.612 16.4343C40.826 16.516 41.055 16.5507 41.2834 16.5358C41.5096 16.5164 41.7309 16.4589 41.9381 16.3655C42.1328 16.2719 42.3392 16.2053 42.5517 16.1676C42.7596 16.1447 42.97 16.1746 43.1635 16.2548C43.2645 16.3083 43.3688 16.355 43.4759 16.3946C43.5928 16.426 43.7139 16.4383 43.8346 16.4311C44.0737 16.4219 44.3076 16.3592 44.5197 16.2477C44.7317 16.1362 44.9165 15.9786 45.0606 15.7864C45.2029 15.5891 45.2986 15.3617 45.3404 15.1215C45.3617 15.0059 45.376 14.8891 45.3833 14.7717C45.3916 14.6478 45.3829 14.5234 45.3574 14.4019C45.3326 14.2836 45.3072 14.1862 45.2926 14.0827C45.2782 13.9785 45.2691 13.8736 45.2655 13.7684C45.2499 13.5567 45.2549 13.344 45.2804 13.1334C45.2944 13.0385 45.3223 12.9463 45.363 12.8596C45.3998 12.7828 45.4546 12.7162 45.5228 12.6655C45.6034 12.6226 45.7211 12.5678 45.8146 12.5111L46.1017 12.3384C46.3033 12.2263 46.4897 12.0886 46.6564 11.9287C46.7426 11.8396 46.8091 11.7332 46.8515 11.6164C46.8778 11.5031 46.8943 11.3876 46.9007 11.2714C46.9267 11.0529 46.9671 10.8364 47.0216 10.6232C47.0648 10.4072 47.1309 10.1964 47.2187 9.99453C47.3112 9.79544 47.4463 9.61945 47.6143 9.4792C47.7002 9.41095 47.7919 9.35041 47.8883 9.29828C47.9377 9.27172 47.9855 9.24225 48.0315 9.21001C48.0568 9.19366 48.0784 9.17216 48.0949 9.14688C48.1115 9.12161 48.1226 9.09314 48.1276 9.06328ZM43.179 24.8926C43.052 25.1015 42.9068 25.2985 42.7449 25.4812C42.5898 25.6583 42.4106 25.8126 42.2128 25.9395C42.0167 26.0659 41.8074 26.17 41.5886 26.2501C41.3693 26.3376 41.1399 26.3967 40.9059 26.4261L40.886 26.4282C40.8772 26.4291 40.8688 26.4318 40.8611 26.4361C40.8534 26.4404 40.8467 26.4462 40.8414 26.4532C40.533 26.8513 40.1897 27.2205 39.8155 27.5565L39.8848 27.5292C39.5026 27.4698 39.1277 27.3823 38.7538 27.2992C38.3802 27.2127 38.0138 27.0998 37.6474 26.9879C36.9115 26.7709 36.1885 26.5077 35.4462 26.2515C35.4423 26.2502 35.438 26.2503 35.4342 26.2519C35.4303 26.2534 35.4272 26.2563 35.4253 26.26C35.4234 26.2637 35.4229 26.268 35.4239 26.272C35.4249 26.2761 35.4273 26.2796 35.4307 26.282C36.0782 26.7361 36.7886 27.0919 37.5389 27.3379C37.9165 27.4561 38.3019 27.5472 38.6922 27.6106C39.0819 27.6766 39.4768 27.7073 39.872 27.7022L39.8855 27.7022C39.8962 27.7021 39.9068 27.6996 39.9165 27.6949C39.9261 27.6902 39.9346 27.6834 39.9413 27.6749C40.249 27.2764 40.5917 26.9065 40.9654 26.57L40.9009 26.597C41.1614 26.6167 41.4234 26.593 41.6762 26.5268C41.93 26.4576 42.1684 26.3402 42.3784 26.1808C42.5904 26.0262 42.7718 25.8331 42.9133 25.6114C43.0524 25.3952 43.1529 25.1563 43.2105 24.9054C43.2115 24.9014 43.2111 24.8973 43.2093 24.8936C43.2075 24.89 43.2046 24.8871 43.2009 24.8854C43.1972 24.8838 43.193 24.8835 43.1892 24.8846C43.1853 24.8857 43.1819 24.8882 43.1797 24.8915L43.179 24.8926Z" fill="#CABDFF"/>
<path d="M38.1281 15.0606C37.8186 15.2271 37.5301 15.4302 37.2686 15.6658C37.0034 15.8919 36.7557 16.138 36.5277 16.4019C36.303 16.6688 36.1078 16.9614 35.8839 17.2264C35.6579 17.4902 35.4186 17.7422 35.1671 17.9815C34.9154 18.2222 34.6699 18.4692 34.4415 18.7307C34.2093 18.989 33.977 19.2475 33.7612 19.5196C33.327 20.0649 32.9354 20.6431 32.5897 21.2491C32.5877 21.2527 32.587 21.2569 32.5878 21.2609C32.5886 21.265 32.5908 21.2686 32.5941 21.2712C32.5973 21.2737 32.6013 21.275 32.6054 21.2749C32.6095 21.2747 32.6134 21.2731 32.6164 21.2703C33.1199 20.7921 33.5957 20.285 34.0412 19.7516C34.2633 19.4865 34.4725 19.2109 34.6858 18.9385C34.9016 18.6681 35.1062 18.3882 35.3074 18.1046C35.5073 17.8212 35.7273 17.5526 35.9655 17.301C36.2045 17.0506 36.4794 16.8342 36.732 16.5991C37.2304 16.1211 37.68 15.6034 38.1474 15.0888L38.1484 15.0877C38.151 15.0848 38.1526 15.0809 38.1528 15.0769C38.153 15.0729 38.1518 15.0689 38.1494 15.0657C38.147 15.0625 38.1435 15.0602 38.1396 15.0593C38.1357 15.0584 38.1316 15.0589 38.1281 15.0606Z" fill="#CABDFF"/>
<path d="M36.5047 25.419C37.205 25.7315 37.9251 25.9971 38.6602 26.2141C38.192 25.9758 37.7221 25.7432 37.2506 25.5164L36.7043 25.2504L36.5047 25.419Z" fill="#CABDFF"/>
<path d="M39.4664 27.576C39.3739 27.7874 39.3112 28.0106 39.2799 28.2394C39.2416 28.4672 39.2353 28.6992 39.2613 28.9287C39.3542 28.7175 39.417 28.4941 39.4478 28.2653C39.4859 28.0375 39.4921 27.8055 39.4664 27.576Z" fill="#CABDFF"/>
<path d="M28.3264 30.6287C30.2603 29.6469 32.134 28.5493 33.9375 27.3419C36.6573 28.1294 39.6694 28.9305 39.6694 28.9305C39.6122 29.2933 39.695 29.6644 39.9008 29.9677C40.1065 30.271 40.4196 30.4836 40.776 30.5619C45.0629 31.5103 46.9753 32.4398 47.6909 32.8695C47.9187 33.0048 48.1499 33.1349 48.3895 33.2513C49.1358 33.6142 50.8407 34.8296 50.4412 38.2208C50.0605 41.4494 48.823 47.1636 48.2263 49.8306L48.2246 49.8204C47.3003 49.8846 46.3724 49.8794 45.4488 49.805C44.9855 49.7807 44.5243 49.7247 44.0686 49.6372C43.6141 49.544 43.1691 49.4088 42.7393 49.2332C42.3105 49.0605 41.8951 48.8556 41.4967 48.6204C41.2944 48.5091 41.1074 48.3756 40.9154 48.2472C40.7335 48.1068 40.5431 47.9767 40.3714 47.8226C39.6628 47.2242 39.0569 46.5122 38.5781 45.7153L38.5713 45.7188L41.0955 39.1075C35.549 38.7549 33.878 37.9846 33.878 37.9846C28.9825 36.7298 28.0833 33.4516 28.3264 30.6287ZM40.2541 47.9613C40.4335 48.1153 40.6208 48.2599 40.8151 48.3944C41.0139 48.5211 41.2094 48.6529 41.4185 48.7607C41.8287 48.99 42.2602 49.1781 42.707 49.3222C43.5959 49.6125 44.509 49.8216 45.4352 49.947C46.3652 50.052 47.3056 50.0151 48.2246 49.8375C48.024 50.7277 47.8966 51.2754 47.8966 51.2754C41.9574 53.0181 38.0035 47.2063 38.0035 47.2063L38.5679 45.729C38.9647 46.5862 39.5397 47.3475 40.2541 47.9613ZM47.1163 51.005C47.1824 51.0028 47.2451 50.9749 47.2911 50.9272C47.3372 50.8795 47.363 50.8156 47.3632 50.749C47.3635 50.6825 47.338 50.6184 47.2923 50.5704C47.2466 50.5223 47.1841 50.494 47.118 50.4914C47.052 50.4936 46.9893 50.5214 46.9433 50.5692C46.8972 50.6169 46.8713 50.6808 46.8711 50.7474C46.8709 50.8139 46.8963 50.878 46.9421 50.926C46.9878 50.9741 47.0503 51.0024 47.1163 51.005ZM46.0148 51.1436C46.0809 51.1415 46.1436 51.1136 46.1896 51.0659C46.2357 51.0181 46.2616 50.9542 46.2618 50.8877C46.262 50.8211 46.2366 50.7571 46.1908 50.709C46.1451 50.6609 46.0826 50.6327 46.0166 50.6301C45.9505 50.6322 45.8878 50.6601 45.8418 50.7078C45.7957 50.7556 45.7698 50.8194 45.7696 50.886C45.7694 50.9526 45.7948 51.0166 45.8406 51.0647C45.8863 51.1127 45.9488 51.141 46.0148 51.1436ZM44.8114 51.0974C44.8774 51.0952 44.9401 51.0674 44.9861 51.0196C45.0322 50.9719 45.0581 50.908 45.0583 50.8414C45.0585 50.7749 45.0331 50.7108 44.9873 50.6628C44.9416 50.6147 44.8791 50.5864 44.8131 50.5838C44.747 50.586 44.6844 50.6139 44.6383 50.6616C44.5922 50.7093 44.5664 50.7732 44.5662 50.8398C44.5659 50.9064 44.5914 50.9704 44.6371 51.0185C44.6829 51.0665 44.7453 51.0948 44.8114 51.0974ZM43.5263 50.8252C43.5925 50.8235 43.6554 50.7959 43.7017 50.7483C43.7481 50.7006 43.7742 50.6368 43.7747 50.5701C43.7751 50.5034 43.7498 50.4392 43.7041 50.391C43.6584 50.3427 43.5958 50.3143 43.5297 50.3117C43.4635 50.3134 43.4006 50.341 43.3542 50.3886C43.3079 50.4362 43.2817 50.5001 43.2813 50.5668C43.2808 50.6335 43.3062 50.6977 43.3519 50.7459C43.3976 50.7941 43.4601 50.8226 43.5263 50.8252ZM42.2242 50.3664C42.2903 50.3643 42.3529 50.3364 42.399 50.2887C42.4451 50.2409 42.4709 50.177 42.4711 50.1105C42.4714 50.0439 42.4459 49.9799 42.4002 49.9318C42.3544 49.8838 42.292 49.8555 42.2259 49.8529C42.1599 49.855 42.0972 49.8829 42.0511 49.9306C42.0051 49.9784 41.9792 50.0423 41.979 50.1088C41.9788 50.1754 42.0042 50.2395 42.0499 50.2875C42.0957 50.3356 42.1582 50.3638 42.2242 50.3664ZM40.8814 49.5601C40.9474 49.558 41.0101 49.5301 41.0561 49.4824C41.1022 49.4346 41.128 49.3708 41.1283 49.3042C41.1285 49.2376 41.103 49.1736 41.0573 49.1255C41.0116 49.0775 40.9491 49.0492 40.8831 49.0466C40.817 49.0487 40.7543 49.0766 40.7083 49.1244C40.6622 49.1721 40.6364 49.236 40.6361 49.3025C40.6359 49.3691 40.6614 49.4332 40.7071 49.4812C40.7528 49.5293 40.8153 49.5576 40.8814 49.5601ZM39.7425 48.6512C39.8085 48.649 39.8712 48.6211 39.9172 48.5734C39.9633 48.5256 39.9891 48.4618 39.9894 48.3952C39.9896 48.3286 39.9642 48.2646 39.9184 48.2165C39.8727 48.1685 39.8102 48.1402 39.7442 48.1376C39.6781 48.1397 39.6154 48.1676 39.5694 48.2154C39.5233 48.2631 39.4975 48.327 39.4972 48.3936C39.497 48.4601 39.5225 48.5242 39.5682 48.5722C39.614 48.6203 39.6764 48.6486 39.7425 48.6512ZM38.7073 47.4751C38.7733 47.473 38.836 47.4451 38.882 47.3974C38.9281 47.3496 38.954 47.2857 38.9542 47.2192C38.9544 47.1526 38.929 47.0885 38.8832 47.0405C38.8375 46.9924 38.775 46.9641 38.709 46.9616C38.6429 46.9637 38.5802 46.9916 38.5342 47.0393C38.4881 47.0871 38.4622 47.1509 38.462 47.2175C38.4618 47.2841 38.4872 47.3481 38.533 47.3962C38.5787 47.4442 38.6412 47.4725 38.7073 47.4751ZM47.903 22.4618C48.1781 22.9858 48.4847 23.4924 48.8211 23.9789C48.9905 24.2216 49.1671 24.4594 49.3508 24.6924C49.4413 24.8098 49.5377 24.9229 49.6314 25.0378C49.7194 25.1518 49.8126 25.2606 49.8927 25.3815C50.225 25.8586 50.5173 26.3627 50.7665 26.8886C51.0219 27.4129 51.245 27.9579 51.4513 28.4998L51.4528 28.5038C51.4587 28.5192 51.4671 28.5335 51.4777 28.5461L52.2666 29.484L52.3493 29.5983C52.3843 29.6479 52.4236 29.6942 52.4669 29.7367C52.5559 29.8223 52.6637 29.8856 52.7816 29.9213C53.0049 29.9781 53.2402 29.9654 53.4562 29.8848C53.6353 29.8136 53.8258 29.7761 54.0184 29.7741C54.2107 29.7808 54.4002 29.8223 54.5778 29.8967C54.7554 29.9772 54.9152 30.0925 55.0481 30.2358C55.1809 30.3791 55.2842 30.5476 55.3517 30.7315L55.3528 30.7343C55.3586 30.7499 55.3703 30.7625 55.3853 30.7693L55.5732 30.8552C55.6335 30.8881 55.6947 30.9198 55.7536 30.9552C55.8709 31.0261 55.9817 31.1075 56.0844 31.1985C56.1868 31.2885 56.2776 31.3911 56.3548 31.5038C56.4299 31.6134 56.4836 31.7364 56.5131 31.8662L56.5134 31.8677C56.5155 31.8795 56.5212 31.8904 56.5297 31.8989C56.6152 31.9852 56.701 32.0711 56.7775 32.1645C56.8546 32.256 56.9237 32.3541 56.9841 32.4576C57.0417 32.558 57.0809 32.668 57.0997 32.7824C57.1097 32.8334 57.1091 32.8859 57.0978 32.9366C57.0866 32.9872 57.0651 33.035 57.0346 33.0769C57.0233 33.0891 57.0165 33.1048 57.0151 33.1214L57.0149 33.1244C57.0142 33.1591 57.0053 33.1931 56.9888 33.2236C56.9724 33.254 56.9488 33.2801 56.9203 33.2994C56.8518 33.3266 56.7757 33.3274 56.7067 33.3015C56.5412 33.2413 56.3858 33.1559 56.2458 33.0485L55.7924 32.72C55.6353 32.6027 55.4636 32.5069 55.2816 32.4349C55.0797 32.3662 54.8604 32.3702 54.6612 32.4462C54.4767 32.5138 54.3012 32.6037 54.1383 32.714C53.8213 32.9283 53.5359 33.157 53.2234 33.3255C52.9362 33.504 52.5958 33.575 52.2618 33.526C51.9347 33.4351 51.6431 33.2456 51.4261 32.9829C50.923 32.4441 50.4295 31.8846 49.9317 31.3332L48.4389 29.6742L46.9365 28.0229C45.9344 26.9224 44.9224 25.8303 43.9007 24.7468C43.8977 24.7436 43.8935 24.7417 43.8891 24.7415C43.8847 24.7413 43.8804 24.7428 43.8771 24.7457C43.8738 24.7486 43.8718 24.7527 43.8714 24.7572C43.871 24.7616 43.8724 24.766 43.8751 24.7694C44.8104 25.9297 45.7621 27.0757 46.73 28.2074C47.6962 29.3407 48.6663 30.4706 49.6622 31.5784C50.1599 32.1335 50.6597 32.683 51.1828 33.2222C51.4511 33.5297 51.8068 33.7468 52.2016 33.844C52.2527 33.8557 52.3049 33.8618 52.3572 33.8622C52.4092 33.8671 52.4615 33.8686 52.5137 33.8667C52.6167 33.8609 52.7188 33.8449 52.8186 33.819C53.0118 33.7692 53.197 33.6921 53.3688 33.5901C53.7055 33.3948 53.9956 33.1469 54.2881 32.9372C54.4306 32.8352 54.5841 32.7499 54.7457 32.6828C54.8928 32.6164 55.0587 32.605 55.2135 32.6508C55.3793 32.7093 55.5368 32.7891 55.6823 32.8882C55.8369 32.9864 55.9906 33.0908 56.145 33.1946C56.3048 33.3076 56.4811 33.3947 56.6677 33.4528C56.776 33.4862 56.893 33.4761 56.994 33.4244C57.0425 33.3915 57.082 33.3468 57.109 33.2945C57.136 33.2422 57.1496 33.1839 57.1485 33.125L57.1287 33.1724C57.1721 33.1152 57.203 33.0494 57.2192 32.9792C57.2355 32.9091 57.2367 32.8363 57.2229 32.7656C57.2003 32.6359 57.1544 32.5114 57.0875 32.3982C57.0221 32.2893 56.9474 32.1863 56.8643 32.0903C56.7829 31.994 56.6933 31.9068 56.6041 31.8193L56.6207 31.8519C56.5876 31.706 56.5262 31.5681 56.4399 31.4462C56.3583 31.3261 56.2627 31.2164 56.1551 31.1192C56.0484 31.0227 55.9332 30.9362 55.8109 30.8606L55.625 30.7533L55.433 30.6586L55.4665 30.6965C55.3276 30.2836 55.0343 29.9416 54.6491 29.743C54.4551 29.6452 54.2435 29.588 54.0269 29.5749C53.8104 29.5618 53.5935 29.593 53.3893 29.6666C53.2176 29.7231 53.0331 29.7265 52.8595 29.6764C52.7824 29.649 52.7128 29.6035 52.6565 29.5438C52.6283 29.5129 52.6027 29.4798 52.5801 29.4446L52.487 29.3068C52.2303 28.9793 51.9725 28.6667 51.7106 28.35L51.7369 28.3962C51.5297 27.8376 51.29 27.2918 51.0189 26.7616C50.7555 26.225 50.4439 25.7138 50.088 25.2344C49.9997 25.1135 49.8963 25.0025 49.7991 24.8879C49.7018 24.7789 49.6024 24.6724 49.508 24.5607C49.3164 24.3402 49.1317 24.1133 48.9538 23.8802C48.5911 23.4197 48.2527 22.9385 47.9326 22.4449C47.9314 22.443 47.9299 22.4413 47.9281 22.44C47.9262 22.4387 47.9242 22.4378 47.922 22.4372C47.9199 22.4367 47.9176 22.4366 47.9154 22.437C47.9132 22.4373 47.9111 22.4381 47.9092 22.4393C47.9056 22.4417 47.903 22.4452 47.9019 22.4494C47.9007 22.4535 47.9011 22.4579 47.903 22.4618Z" fill="#CABDFF"/>
<path d="M56.5669 31.859C56.4754 31.717 56.358 31.5937 56.2208 31.4957C56.0876 31.3924 55.9358 31.3158 55.7739 31.2701C55.8651 31.4124 55.9826 31.5358 56.12 31.6334C56.2535 31.7364 56.4051 31.813 56.5669 31.859ZM57.0817 33.1246C56.8979 32.8536 56.6816 32.6064 56.4376 32.3889C56.3166 32.2791 56.1891 32.1768 56.0558 32.0825C55.9231 31.9836 55.7754 31.9067 55.6184 31.8549C55.7429 31.9632 55.8552 32.0756 55.9723 32.1863C56.0873 32.2986 56.2057 32.4068 56.3239 32.516C56.5613 32.7373 56.8146 32.9408 57.0817 33.1246Z" fill="#CABDFF"/>
<path d="M55.4091 30.7139C54.8293 30.712 54.2527 30.8013 53.7004 30.9787C53.5097 31.0462 53.3015 31.0438 53.1124 30.9718C52.9234 30.8998 52.7657 30.7629 52.6672 30.5852C52.4419 30.1725 52.1017 29.5099 51.5941 28.448" stroke="#CABDFF" stroke-width="0.968" stroke-linecap="round" stroke-linejoin="round"/>
<path d="M38.3973 46.1773C38.0583 45.7261 37.7537 45.2496 37.4862 44.752C37.2237 44.2557 36.9899 43.7445 36.7861 43.2209C36.5847 42.6969 36.4061 42.1647 36.2502 41.6243C36.0949 41.0861 35.9664 40.5403 35.8653 39.9891L35.7093 40.1757L36.737 40.1337C37.0807 40.1101 37.4182 40.1125 37.769 40.0588C37.9427 40.034 38.1148 39.999 38.2845 39.954C38.4593 39.9118 38.6259 39.8403 38.7772 39.7427C38.8169 39.718 38.8532 39.6882 38.8853 39.6542L38.9342 39.6027C38.9481 39.5829 38.9599 39.561 38.9724 39.5403C38.9967 39.4984 39.0124 39.4521 39.0188 39.4041C39.0252 39.356 39.022 39.3072 39.0095 39.2604C38.9552 39.0898 38.8459 38.9424 38.6989 38.8415C38.8207 38.9576 38.9045 39.1082 38.9393 39.2734C38.9451 39.3502 38.9258 39.4269 38.8843 39.4916C38.8428 39.5563 38.7814 39.6056 38.7095 39.6319C38.5619 39.7023 38.4048 39.7506 38.2434 39.7752C38.0788 39.8046 37.9127 39.8243 37.7459 39.8345C37.4159 39.8615 37.0672 39.8433 36.7271 39.8454L35.7019 39.8505C35.6597 39.8508 35.6194 39.8678 35.5897 39.898C35.56 39.9282 35.5435 39.969 35.5437 40.0115C35.5438 40.0201 35.5446 40.0286 35.5459 40.0371C35.637 40.6054 35.7646 41.1672 35.928 41.7188C36.0888 42.2696 36.284 42.8097 36.5123 43.3357C36.7406 43.8621 37.0106 44.3692 37.3198 44.8519L37.562 45.2062C37.6426 45.3241 37.7384 45.4316 37.8256 45.5443C38.0032 45.7668 38.1941 45.9781 38.3973 46.1773ZM38.1523 47.4088C38.1071 47.3414 38.0695 47.2691 38.0405 47.1932L38.034 47.1843L38.0312 47.1786C38.0277 47.1713 38.0218 47.1655 38.0145 47.1621C38.0073 47.1587 37.999 47.1579 37.9913 47.1598C37.9835 47.1618 37.9766 47.1664 37.9718 47.1728C37.9669 47.1793 37.9644 47.1872 37.9647 47.1953L37.9653 47.2126C37.9827 47.6099 38.0218 48.006 38.0823 48.399C38.1444 48.7908 38.2209 49.1804 38.3177 49.566C38.4122 49.9537 38.5326 50.3345 38.6783 50.7058C38.7512 50.8935 38.837 51.0759 38.935 51.2516C39.0264 51.4341 39.1583 51.5929 39.3204 51.7157C39.2125 51.5536 39.1316 51.3747 39.081 51.1863C39.0206 51.0018 38.9727 50.8127 38.9225 50.6243L38.6448 49.4847L38.3641 48.3405C38.2632 47.9599 38.1611 47.5786 38.0419 47.1996L37.9761 47.2336L37.98 47.2382L37.9735 47.2293C38.0238 47.2979 38.0841 47.3584 38.1523 47.4088ZM32.3004 37.4446C32.0491 37.5402 31.8203 37.6876 31.6286 37.8771C31.5266 37.9773 31.4492 38.1 31.4025 38.2355C31.3579 38.3804 31.3605 38.5358 31.4097 38.6791C31.5189 38.9435 31.7026 39.1698 31.9381 39.3301C32.1552 39.4909 32.3864 39.6314 32.6289 39.7498C32.636 39.7535 32.6436 39.7563 32.6513 39.7583L32.6582 39.7599C32.9294 39.8262 33.2006 39.8816 33.4737 39.9354C33.7467 39.9888 34.0211 40.0369 34.3005 40.0696L34.1713 39.9528C34.3051 40.5285 34.4614 41.0989 34.6152 41.6699L34.6402 41.5728C33.8112 42.5765 32.9534 43.5538 32.0504 44.4897C31.1497 45.4276 30.2466 46.3635 29.3701 47.3236C28.4822 48.2733 27.6132 49.2403 26.7631 50.2247C25.9116 51.2077 25.0673 52.1973 24.2543 53.2156C24.2516 53.219 24.2503 53.2234 24.2506 53.2277C24.2509 53.2321 24.2529 53.2362 24.2561 53.2391C24.2594 53.242 24.2636 53.2436 24.2679 53.2436C24.2722 53.2435 24.2764 53.2417 24.2795 53.2387C25.2086 52.3267 26.1064 51.386 26.997 50.4388C27.8894 49.4931 28.7624 48.5298 29.6163 47.5489C30.4819 46.5788 31.3209 45.5843 32.1622 44.592C33.0013 43.5976 33.8857 42.6446 34.7987 41.718C34.81 41.7066 34.8183 41.6926 34.823 41.6772C34.8276 41.6618 34.8285 41.6456 34.8255 41.6298L34.8238 41.6208C34.7105 41.0403 34.5998 40.4592 34.4665 39.8834C34.4595 39.8533 34.4436 39.826 34.4209 39.8052C34.3982 39.7844 34.3698 39.771 34.3394 39.7668L34.3372 39.7666C33.7994 39.6941 33.2556 39.5944 32.7184 39.4869L32.7477 39.497C32.5162 39.3932 32.2934 39.2707 32.0816 39.1306C31.8741 39.0061 31.7049 38.8261 31.5929 38.6106C31.5515 38.5009 31.5417 38.3817 31.5647 38.2666C31.5877 38.1516 31.6424 38.0455 31.7227 37.9604C31.8888 37.7638 32.0893 37.5996 32.3143 37.4758L32.3153 37.4753C32.319 37.4731 32.3217 37.4696 32.323 37.4655C32.3242 37.4613 32.3239 37.4569 32.322 37.453C32.3201 37.4491 32.3169 37.4461 32.3129 37.4445C32.3089 37.443 32.3044 37.443 32.3004 37.4446ZM37.8178 51.7098L37.1447 49.506L36.4655 47.3049L35.7871 45.1048C35.5657 44.3733 35.3313 43.6336 35.1571 42.9048L35.1563 42.9017C35.1494 42.873 35.135 42.8467 35.1144 42.8256C35.0938 42.8046 35.0679 42.7896 35.0395 42.7823C35.0111 42.775 34.9813 42.7755 34.9532 42.784C34.9251 42.7925 34.8998 42.8085 34.8801 42.8303L32.3542 45.6244C31.5151 46.5583 30.6795 47.4956 29.8476 48.4361C29.0158 49.3767 28.1881 50.3211 27.3647 51.2695L26.136 52.6978C25.7272 53.1745 25.3186 53.6516 24.9158 54.1338C25.3533 53.6832 25.785 53.2274 26.2165 52.7713L27.5087 51.401C28.3671 50.4846 29.2201 49.5634 30.0677 48.6371C30.9171 47.7126 31.7622 46.7841 32.6029 45.8516L35.1189 43.0485L34.842 42.974C35.0372 43.7364 35.2795 44.458 35.5147 45.1922C35.7565 45.9219 36.0027 46.6496 36.2533 47.3755C36.5059 48.1009 36.7592 48.8259 37.0226 49.5473C37.2846 50.2693 37.5443 50.9919 37.8178 51.7098Z" fill="#CABDFF"/>
<path d="M38.8601 51.7539C38.6899 51.7186 38.5174 51.696 38.3439 51.6863C38.1693 51.6813 37.9946 51.6879 37.821 51.7063C37.4697 51.7402 37.126 51.8301 36.8027 51.9726C36.64 52.0438 36.4825 52.1265 36.3312 52.2199C36.1821 52.3177 36.0396 52.4255 35.9048 52.5425C35.3587 53.019 34.9697 53.6518 34.7896 54.3564C34.6988 54.7088 34.6622 55.0731 34.6812 55.4366C34.6957 55.8015 34.7684 56.1616 34.8965 56.5032C35.0191 56.8472 35.1944 57.1699 35.4158 57.4595C35.8567 58.0429 36.4632 58.4776 37.155 58.7058C37.8469 58.9341 38.5912 58.9451 39.2894 58.7375C39.978 58.5307 40.5877 58.1174 41.0372 57.5528C41.4782 56.9978 41.7397 56.3201 41.7866 55.6108C41.6792 56.2877 41.3796 56.9188 40.9239 57.4279C40.4682 57.937 39.8759 58.3025 39.2185 58.4801C38.5724 58.6439 37.893 58.6161 37.2622 58.4001C36.6353 58.183 36.0866 57.7832 35.6856 57.2515C35.2837 56.7191 35.0459 56.0794 35.002 55.412C34.958 54.7447 35.1098 54.079 35.4385 53.4977C35.6022 53.2043 35.8098 52.938 36.0537 52.7079C36.1749 52.591 36.3036 52.4823 36.4391 52.3827C36.5782 52.287 36.7232 52.2005 36.8733 52.1236C37.174 51.9636 37.4982 51.8529 37.8335 51.7957C38.172 51.7328 38.5176 51.7188 38.8601 51.7539Z" fill="#CABDFF"/>
<path d="M22.4379 57.9852C20.9847 57.9789 19.8119 56.7413 19.8184 55.2211C19.8249 53.7008 21.0083 52.4735 22.4615 52.4798C23.9147 52.4861 25.0875 53.7236 25.081 55.2439C25.0745 56.7642 23.8911 57.9915 22.4379 57.9852Z" fill="#CABDFF"/>
<path d="M34.8493 55.5807C33.2305 55.3355 31.6048 55.1937 29.9773 55.0772C29.1632 55.0247 28.3488 54.9765 27.5331 54.9482C26.7176 54.9151 25.9007 54.904 25.0823 54.9151C25.8918 55.037 26.7027 55.1369 27.5151 55.2148C28.3272 55.2974 29.1407 55.3601 29.9544 55.4186C31.5826 55.524 33.2125 55.6041 34.8493 55.5807ZM35.3871 57.126C33.6674 56.8012 31.9364 56.5796 30.2028 56.3833C29.3353 56.2908 28.4674 56.2026 27.5973 56.1342C26.7278 56.061 25.8559 56.0098 24.9815 55.9807C25.8415 56.1423 26.7038 56.282 27.5685 56.3998C28.4327 56.5223 29.2991 56.625 30.1659 56.7234C31.9007 56.9088 33.6383 57.0689 35.3871 57.126ZM41.5289 56.6025C41.7643 56.7995 42.012 56.9742 42.2614 57.1458C42.5128 57.314 42.768 57.4752 43.027 57.6295C43.2868 57.7822 43.5489 57.9309 43.8154 58.0718C44.0816 58.2129 44.3518 58.3469 44.626 58.4738L44.6436 58.482C44.67 58.4942 44.7001 58.4953 44.7274 58.4852C44.7546 58.475 44.7767 58.4544 44.7888 58.4278L44.7934 58.4161C44.8917 58.1136 44.9858 57.8093 45.0547 57.4942C44.8764 57.7623 44.7232 58.0412 44.5743 58.3219L44.7417 58.2642C44.4901 58.0965 44.2344 57.9361 43.9748 57.783C43.7154 57.6294 43.4517 57.4837 43.1857 57.342C42.9185 57.2025 42.6479 57.0693 42.3738 56.9424C42.0974 56.8196 41.8192 56.6999 41.5289 56.6025ZM37.4118 58.6167L35.6918 62.3153L36.8326 62.6489L36.5379 63.7158L32.9534 63.4949L32.9586 62.2624L34.632 62.1053L36.2404 58.0448L37.4118 58.6167ZM44.2499 51.4373C44.1538 51.7478 44.12 52.0743 44.1503 52.3981C44.1806 52.7218 44.2745 53.0363 44.4264 53.3232C44.5846 53.6125 44.7913 53.872 45.0374 54.0902C45.2826 54.3069 45.5536 54.4922 45.844 54.6419L45.7706 54.5036C45.7602 54.5393 45.745 54.5734 45.7254 54.6049C45.7026 54.641 45.6753 54.6739 45.6442 54.703C45.5768 54.7634 45.4981 54.8097 45.4128 54.8394C45.2226 54.8999 45.0224 54.9218 44.8238 54.9038C44.6142 54.8879 44.4064 54.8539 44.2026 54.8023C43.9944 54.7527 43.7889 54.6921 43.587 54.6207C43.1801 54.4792 42.782 54.3055 42.3873 54.1233C41.9929 53.9391 41.6037 53.7414 41.2283 53.5264C40.8517 53.3183 40.4953 53.0752 40.1638 52.8001C39.8456 52.5269 39.542 52.198 39.4633 51.8074C39.4248 51.612 39.4601 51.4091 39.5622 51.2385C39.6877 51.0544 39.7978 50.8602 39.8913 50.6576C39.9844 50.4527 40.0532 50.2374 40.0962 50.0163C40.133 49.7965 40.1481 49.5736 40.1412 49.3508L40.0979 49.6795C40.0801 49.7875 40.0566 49.8944 40.0275 49.9999C39.9678 50.209 39.8839 50.4103 39.7773 50.5997C39.6672 50.7888 39.5441 50.97 39.4091 51.1419C39.2703 51.3468 39.2116 51.5961 39.2442 51.8419C39.2819 52.0799 39.3761 52.3052 39.5186 52.4989C39.6523 52.6867 39.8056 52.8596 39.9758 53.0146C40.3134 53.3128 40.6786 53.5777 41.0665 53.8056C41.4494 54.0364 41.8451 54.2369 42.2447 54.4295C42.646 54.624 43.0587 54.7938 43.4805 54.9377C43.9081 55.0932 44.3554 55.1871 44.8091 55.2167C45.0496 55.2311 45.2904 55.1966 45.5173 55.1154C45.646 55.0725 45.7614 54.9968 45.8524 54.8956C45.9434 54.7945 46.0069 54.6714 46.0366 54.5382C46.0418 54.5111 46.0379 54.4831 46.0255 54.4585C46.0131 54.4339 45.993 54.4141 45.9682 54.4023L45.9631 54.3999C45.399 54.1542 44.9166 53.7509 44.5731 53.2377C44.4075 52.9756 44.2946 52.6832 44.2408 52.3773C44.1855 52.0661 44.1886 51.7473 44.2499 51.4373Z" fill="#CABDFF"/>
<path d="M45.8151 54.3559C45.8151 54.3559 50.9683 56.8338 49.9419 57.8273C48.9155 58.8208 47.1486 59.053 43.3809 56.6404C43.3809 56.6404 41.4691 55.1586 41.059 55.6328C40.649 56.107 40.819 56.4029 40.819 56.4029C40.819 56.4029 37.7797 56.1849 38.2299 54.7011C38.2299 54.7011 38.659 51.6573 39.3683 51.4626C39.3683 51.4626 38.8165 52.5203 41.9282 54.0882C45.0399 55.656 45.5633 54.9404 45.8151 54.3559ZM14.9507 41.1591L18.6774 41.2022L22.4442 41.2307C23.7023 41.2436 24.9678 41.2452 26.2338 41.2426L30.0325 41.2375C30.0542 41.2375 30.0757 41.2332 30.0957 41.2248C30.1157 41.2164 30.1339 41.2041 30.1493 41.1887C30.1646 41.1732 30.1767 41.1548 30.185 41.1346C30.1933 41.1145 30.1975 41.0928 30.1975 41.071V41.0695L30.1955 40.0424C30.1954 40.02 30.191 39.9978 30.1825 39.9772C30.1739 39.9565 30.1614 39.9378 30.1457 39.922C30.1299 39.9062 30.1113 39.8937 30.0907 39.8852C30.0702 39.8766 30.0482 39.8723 30.026 39.8723L30.0247 39.8723L26.2545 39.9087L22.4844 39.95L18.7145 40.0163C17.4578 40.0377 16.2013 40.0762 14.9447 40.1057L14.9435 40.1057C14.9368 40.1059 14.9304 40.1087 14.9258 40.1137C14.9211 40.1186 14.9186 40.1251 14.9188 40.1319V40.1321L14.9507 41.1591ZM14.9507 41.1591L14.9708 40.1318L14.945 40.1581C16.2018 40.1728 17.4587 40.1966 18.7156 40.2033L22.486 40.2253L26.2564 40.2223L30.0267 40.2143L29.8559 40.0443L29.8657 41.0714L30.0306 40.9034L26.2889 40.9426C25.0414 40.9548 23.7934 40.9712 22.538 40.9989L18.7644 41.0717L14.9507 41.1591Z" fill="#CABDFF"/>
<path d="M28.4386 41.0798C28.0282 42.0555 27.6352 43.0379 27.2448 44.0213C26.8541 45.0046 26.4776 45.9934 26.0933 46.9792C25.7218 47.9699 25.3435 48.958 24.9784 49.9512C24.6135 50.9445 24.2511 51.9388 23.9064 52.9399C24.3171 51.9643 24.71 50.9819 25.1005 49.9985C25.4908 49.0151 25.8678 48.0265 26.2517 47.0406C26.6228 46.0497 27.0017 45.0618 27.3663 44.0684C27.7313 43.0751 28.0936 42.0808 28.4386 41.0798ZM17.3932 41.1697C17.6723 42.1534 17.9692 43.1313 18.2688 44.1084C18.5679 45.0855 18.8817 46.058 19.1874 47.033C19.5063 48.0038 19.8181 48.9769 20.1435 49.9455C20.4691 50.9141 20.7971 51.8819 21.1433 52.8438C20.8644 51.86 20.5674 50.8821 20.2679 49.905C19.9683 48.9279 19.6552 47.9553 19.349 46.9804C19.0297 46.0098 18.7184 45.0365 18.3926 44.068C18.0672 43.0994 17.739 42.1316 17.3932 41.1697ZM20.3725 53.5441C19.6402 53.3628 18.9043 53.2 18.1679 53.04C17.4315 52.8796 16.6922 52.7343 15.9545 52.5807C15.2142 52.4407 14.4752 52.2935 13.7336 52.1603C12.9918 52.0273 12.2496 51.8968 11.5037 51.7852C12.236 51.9667 12.9719 52.1294 13.7083 52.2895C14.4447 52.4494 15.1839 52.5953 15.9217 52.7485C16.6622 52.8881 17.401 53.0359 18.1428 53.1686C18.8844 53.3018 19.6267 53.4321 20.3725 53.5441Z" fill="#CABDFF"/>
<path d="M62.619 56.6938C61.3506 56.6938 60.3224 55.6584 60.3224 54.381C60.3224 53.1037 61.3506 52.0682 62.619 52.0682C63.8873 52.0682 64.9155 53.1037 64.9155 54.381C64.9155 55.6584 63.8873 56.6938 62.619 56.6938Z" fill="#CABDFF"/>
<path d="M56.681 33.3761C56.7827 33.5956 56.8111 33.8424 56.762 34.0795C56.7309 34.1912 56.6703 34.2924 56.5866 34.3722C56.5029 34.4519 56.3992 34.5073 56.2867 34.5323C56.1757 34.5583 56.0604 34.5591 55.949 34.5348C55.8365 34.5077 55.7293 34.4618 55.6318 34.3992C55.4127 34.278 55.1764 34.1914 54.9312 34.1426C54.8055 34.1187 54.6772 34.111 54.5495 34.1198C54.4847 34.1239 54.4204 34.1331 54.357 34.1473C54.3249 34.1532 54.2932 34.1614 54.2622 34.1718L54.2153 34.1864L54.2036 34.1901L54.1977 34.192C54.1677 34.206 54.1861 34.1979 54.1779 34.202L54.1548 34.2162C54.0618 34.2755 53.9869 34.3596 53.9384 34.4591C53.8899 34.5586 53.8697 34.6696 53.8799 34.78C53.8878 34.8502 53.9056 34.9189 53.9329 34.984L54.445 36.3508C55.1321 38.1716 55.8431 39.983 56.5781 41.785C57.316 43.5856 58.0691 45.3805 58.8697 47.155C59.2686 48.0427 59.683 48.9236 60.1127 49.7976C60.334 50.2315 60.5544 50.6656 60.7915 51.0912C61.0171 51.5234 61.2806 51.9344 61.5789 52.3193C61.4389 52.1212 61.3131 51.9133 61.2024 51.6971C61.085 51.4852 60.9783 51.2668 60.8713 51.0492C60.6578 50.6134 60.4608 50.1691 60.2633 49.7257C59.8685 48.8382 59.49 47.9432 59.1127 47.0478C58.363 45.2546 57.6229 43.457 56.8925 41.655L54.6907 36.2529L54.1394 34.9025C54.117 34.8564 54.1015 34.8072 54.0936 34.7566C54.0872 34.7091 54.0897 34.6607 54.1009 34.6141C54.1238 34.5189 54.1809 34.4355 54.2611 34.38L54.2763 34.3697C54.2713 34.3719 54.2926 34.3611 54.2662 34.374L54.271 34.3722L54.2808 34.3688L54.3201 34.355C54.346 34.345 54.3727 34.337 54.3998 34.3311C54.454 34.3167 54.5091 34.3067 54.5648 34.301C54.6783 34.2894 54.7928 34.2916 54.9057 34.3075C55.1378 34.3415 55.3632 34.4111 55.5743 34.514C55.6837 34.5803 55.8052 34.6238 55.9316 34.6419C56.058 34.66 56.1867 34.6524 56.3101 34.6195C56.4334 34.5855 56.5453 34.5184 56.6336 34.4253C56.7219 34.3323 56.7835 34.2168 56.8117 34.0912C56.8463 33.8449 56.8005 33.5939 56.681 33.3761ZM60.7178 53.0835C60.3436 52.3994 59.9757 51.7133 59.6283 51.0165C59.2744 50.3233 58.9326 49.6243 58.5968 48.9229C58.2679 48.2181 57.9371 47.5146 57.6279 46.8013L57.1663 45.7308L56.9437 45.1922C56.9042 45.1003 56.875 45.0172 56.827 44.9182L56.7579 44.7741L56.6739 44.6378C56.4344 44.2803 56.0832 44.0135 55.6761 43.8798C55.4739 43.815 55.2627 43.7827 55.0504 43.7844C54.8382 43.7899 54.6282 43.8298 54.4285 43.9026C54.2375 43.9814 54.0567 44.0831 53.89 44.2055L53.4093 44.5343L52.4502 45.1955C51.1716 46.0775 49.9052 46.978 48.651 47.8969C49.9784 47.089 51.2937 46.2627 52.5969 45.4181L53.5741 44.7842L54.0615 44.4655C54.2097 44.3602 54.37 44.2734 54.539 44.2071C54.7054 44.1505 54.8793 44.1194 55.0549 44.1148C55.2306 44.1151 55.4052 44.143 55.5723 44.1976C55.9073 44.3103 56.1956 44.5322 56.3915 44.8281L56.4618 44.9398L56.5194 45.0589C56.5581 45.1344 56.5955 45.235 56.6336 45.3218L56.8612 45.8622C57.0169 46.2206 57.1717 46.5796 57.3354 46.9344C57.663 47.6438 58.0019 48.3479 58.3603 49.0417C59.0704 50.4323 59.8575 51.7817 60.7178 53.0835Z" fill="#CABDFF"/>
<path d="M53.869 33.1107L53.8406 33.5111L53.8556 33.4871L53.5178 33.6322C53.3999 33.6775 53.2867 33.7345 53.18 33.8026C52.9623 33.9546 52.8022 34.1766 52.726 34.4323C52.649 34.694 52.6614 34.9742 52.7613 35.2281L53.0326 35.9145L53.5888 37.2816C53.6894 37.4937 53.7668 37.7161 53.8195 37.945C53.8627 38.1684 53.8697 38.3973 53.8401 38.6229C53.7802 39.0783 53.5716 39.5006 53.2472 39.8235C53.1656 39.9036 53.0786 39.9777 52.9866 40.0455L52.6882 40.2601L52.0943 40.6939C51.3028 41.2726 50.5228 41.8682 49.7543 42.4806C50.5954 41.9741 51.4246 41.4503 52.2421 40.9094L52.8552 40.5037L53.1603 40.2987C53.2682 40.2245 53.3707 40.1426 53.467 40.0537C53.8528 39.6867 54.1026 39.1981 54.1751 38.6687C54.2114 38.4054 54.2019 38.1378 54.147 37.8778C54.1208 37.7479 54.083 37.6208 54.0341 37.4977C53.9874 37.371 53.9372 37.2681 53.889 37.1521L53.2898 35.8036L52.9834 35.1322C52.8904 34.9288 52.8652 34.7005 52.9117 34.4815C52.9631 34.2572 53.084 34.0551 53.2568 33.9045C53.3505 33.831 53.4512 33.7672 53.5574 33.7139L53.879 33.5355L53.8817 33.534C53.8856 33.5318 53.8889 33.5285 53.8911 33.5245C53.8933 33.5205 53.8943 33.5159 53.894 33.5114L53.869 33.1107ZM49.0372 46.0822C49.593 45.7358 50.1364 45.3717 50.6862 45.0169C51.2316 44.6557 51.7749 44.2915 52.3163 43.9245C53.3998 43.1915 54.472 42.4425 55.5418 41.69C55.5704 41.6699 55.592 41.6414 55.6039 41.6084C55.6157 41.5754 55.6172 41.5395 55.6081 41.5057L55.3236 40.4578L55.3233 40.4569C55.3176 40.4358 55.3078 40.416 55.2944 40.3986C55.2811 40.3813 55.2645 40.3668 55.2456 40.3559C55.2267 40.3451 55.2058 40.3381 55.1842 40.3353C55.1626 40.3326 55.1407 40.3341 55.1197 40.3399C55.1028 40.3446 55.0868 40.3519 55.0721 40.3616C54.1127 40.9991 53.1599 41.6469 52.2137 42.3048C51.7403 42.6332 51.2688 42.9647 50.7995 43.2993C50.3322 43.6372 49.8608 43.9686 49.3987 44.3146C49.8975 44.025 50.3868 43.7209 50.8803 43.4232C51.3724 43.1234 51.8617 42.8193 52.3483 42.5111C53.3224 41.8961 54.2912 41.2728 55.2544 40.6411L55.003 40.5449L55.2806 41.5947L55.3469 41.4105C54.281 42.1686 53.2175 42.9302 52.1653 43.7079C51.6379 44.095 51.1134 44.4862 50.5918 44.8815C50.0738 45.282 49.5494 45.6733 49.0372 46.0822ZM50.8835 54.3284C50.8869 55.9314 51.1733 57.5209 51.7293 59.0229C52.285 60.5302 53.1129 61.9209 54.1712 63.1247C55.2359 64.3411 56.5338 65.3282 57.987 66.0265C59.4593 66.7265 61.063 67.1021 62.691 67.1281C64.3189 67.1541 65.9337 66.83 67.4273 66.1775C68.928 65.5233 70.2826 64.5716 71.4103 63.3791C72.5408 62.1857 73.4346 60.7859 74.0438 59.2549C74.9647 56.9354 75.2272 54.4036 74.8019 51.9425C74.3766 49.4813 73.2804 47.1877 71.6355 45.3178C70.5159 44.073 69.1573 43.0698 67.6419 42.3687C66.8812 42.0232 66.0859 41.7609 65.2696 41.5863C63.636 41.2353 61.946 41.2475 60.3175 41.622C59.5102 41.8091 58.7255 42.084 57.9772 42.4419C56.4989 43.1625 55.1816 44.1783 54.1053 45.4276C53.0493 46.6588 52.2291 48.0764 51.6862 49.6087C51.4153 50.3652 51.2123 51.1446 51.0797 51.9375C50.9428 52.7269 50.8771 53.5271 50.8835 54.3284ZM51.0025 54.329C51.0176 53.537 51.1039 52.7481 51.2603 51.9719C51.4213 51.1993 51.656 50.4442 51.9612 49.7171C52.5708 48.2734 53.457 46.965 54.5692 45.8667C55.6498 44.7891 56.9328 43.9391 58.3431 43.3663C59.7534 42.7935 61.263 42.5093 62.7835 42.5304C64.286 42.5592 65.7673 42.892 67.1394 43.5092C68.5114 44.1263 69.7462 45.0151 70.7702 46.1227C71.8114 47.2304 72.6325 48.5285 73.1891 49.9469C74.3152 52.8335 74.3335 56.039 73.2404 58.9384C72.6967 60.3824 71.8843 61.7086 70.8467 62.8457C69.8075 63.9866 68.5509 64.9053 67.1517 65.5469C65.7405 66.1823 64.2139 66.5166 62.6681 66.5289C61.1223 66.5411 59.5907 66.231 58.1697 65.618C56.7341 64.9956 55.4369 64.0898 54.3547 62.954C53.2651 61.8089 52.41 60.4589 51.8383 58.981C51.5535 58.2415 51.3395 57.4762 51.1993 56.6956C51.0629 55.9143 50.9971 55.1222 51.0025 54.329ZM11.0262 54.1557C11.0296 55.7586 11.316 57.3482 11.872 58.8501C12.4277 60.3574 13.2556 61.7481 14.3139 62.952C15.3785 64.1684 16.6765 65.1555 18.1296 65.8537C19.602 66.5538 21.2057 66.9293 22.8337 66.9554C24.4616 66.9814 26.0764 66.6573 27.57 66.0048C29.0707 65.3505 30.4252 64.3989 31.553 63.2064C32.6835 62.013 33.5773 60.6132 34.1864 59.0822C35.1074 56.7626 35.3698 54.2309 34.9446 51.7698C34.5193 49.3086 33.423 47.015 31.7782 45.145C30.6586 43.9003 29.3 42.8971 27.7845 42.1959C27.0239 41.8504 26.2285 41.5881 25.4123 41.4135C23.7786 41.0626 22.0886 41.0748 20.4602 41.4493C19.6529 41.6364 18.8682 41.9113 18.1198 42.2691C16.6416 42.9897 15.3243 44.0056 14.248 45.2549C13.192 46.4861 12.3717 47.9037 11.8289 49.436C11.558 50.1924 11.355 50.9718 11.2223 51.7648C11.0854 52.5542 11.0198 53.3544 11.0262 54.1557ZM11.1452 54.1562C11.1603 53.3643 11.2466 52.5754 11.403 51.7992C11.564 51.0266 11.7987 50.2715 12.1039 49.5443C12.7134 48.1007 13.5997 46.7923 14.7119 45.694C15.7925 44.6164 17.0754 43.7664 18.4858 43.1936C19.8961 42.6208 21.4056 42.3366 22.9262 42.3577C24.4286 42.3864 25.91 42.7193 27.282 43.3365C28.6541 43.9536 29.8889 44.8424 30.9129 45.95C31.9541 47.0577 32.7751 48.3557 33.3318 49.7742C34.4579 52.6608 34.4762 55.8662 33.3831 58.7657C32.8394 60.2097 32.027 61.5358 30.9894 62.673C29.9502 63.8139 28.6935 64.7325 27.2944 65.3741C25.8831 66.0095 24.3566 66.3439 22.8108 66.3561C21.265 66.3684 19.7334 66.0583 18.3124 65.4453C16.8767 64.8229 15.5795 63.917 14.4974 62.7812C13.4078 61.6361 12.5527 60.2861 11.9809 58.8083C11.6961 58.0687 11.4822 57.3034 11.342 56.5228C11.2056 55.7416 11.1398 54.9495 11.1452 54.1562ZM42.1046 16.2152L41.8587 16.4082L41.8633 16.4052C41.4929 16.5738 41.1569 16.8103 40.8724 17.1028C40.733 17.2537 40.6103 17.4195 40.5064 17.5971C40.4054 17.7773 40.325 17.9685 40.2668 18.1669C40.1537 18.5656 40.1185 18.9825 40.163 19.3947C40.2014 19.8073 40.2993 20.2121 40.4537 20.5962L40.4536 20.5126C40.1418 21.1649 39.7611 21.7815 39.318 22.3515C38.8781 22.926 38.3988 23.4688 37.8836 23.9759C36.8425 24.9852 35.7232 25.9094 34.5363 26.7395C32.155 28.4056 29.6542 29.8914 27.0545 31.1847C25.7552 31.8356 24.438 32.449 23.1026 33.0248C21.7652 33.5932 20.4188 34.1404 19.0558 34.6443C18.7178 34.772 18.3698 34.896 18.0383 35.0302C17.9739 35.0647 17.8997 35.0758 17.8282 35.0615C17.7566 35.0472 17.6922 35.0084 17.6458 34.9517C17.5612 34.8099 17.5154 34.648 17.5131 34.4826C17.5038 34.3099 17.5209 34.1368 17.5637 33.9694C17.585 33.8854 17.6118 33.8029 17.6439 33.7225L17.7541 33.4728L18.1972 32.4729L18.6383 31.4725C18.8026 31.1237 18.8969 30.7456 18.9159 30.36C18.9198 29.9532 18.766 29.5609 18.4872 29.2665C18.3518 29.1227 18.195 29.0012 18.0224 28.9062C17.8516 28.8083 17.6689 28.7333 17.4788 28.6833L17.4429 28.9895C18.5496 28.9865 19.6541 28.8898 20.7447 28.7004C21.8393 28.5166 22.9104 28.2112 23.9383 27.7898L24.3217 27.6234C24.4483 27.5652 24.5698 27.4951 24.6941 27.4315L25.0648 27.2359L25.4189 27.0091C25.5361 26.9321 25.6558 26.859 25.7707 26.7788L26.1005 26.5152C26.3251 26.3401 26.5318 26.1621 26.7371 25.984C27.5676 25.275 28.4325 24.5984 29.303 23.9311C31.0365 22.5851 32.8043 21.2815 34.5715 19.9773L39.8897 16.085C39.8915 16.0837 39.8931 16.0821 39.8943 16.0802C39.8955 16.0783 39.8963 16.0762 39.8967 16.0739C39.897 16.0717 39.897 16.0695 39.8965 16.0673C39.896 16.0651 39.895 16.063 39.8937 16.0612C39.8912 16.0576 39.8873 16.0551 39.8829 16.0543C39.8786 16.0535 39.8741 16.0544 39.8704 16.0569L37.1423 17.9055L34.437 19.7879C32.639 21.0513 30.8594 22.3418 29.0984 23.6597C28.2217 24.3243 27.3538 25.0007 26.5099 25.7156C26.2996 25.8971 26.0892 26.0768 25.8794 26.2383L25.5649 26.4886C25.4547 26.5649 25.3394 26.6344 25.227 26.7078L24.8872 26.9243L24.5292 27.1114C24.4092 27.1723 24.2924 27.2396 24.1697 27.2954L23.7978 27.4552C21.8071 28.2954 19.6078 28.6434 17.4485 28.6797C17.4113 28.6803 17.3755 28.6944 17.3479 28.7195C17.3202 28.7446 17.3024 28.7789 17.2978 28.8161C17.2932 28.8533 17.3021 28.8909 17.3229 28.922C17.3436 28.9532 17.3748 28.9757 17.4108 28.9855L17.4125 28.9859C17.7379 29.0676 18.0358 29.235 18.2757 29.4709C18.5079 29.7085 18.6383 30.0284 18.6386 30.3617C18.6243 30.7084 18.5433 31.0489 18.3999 31.3644L17.9754 32.3775L17.5528 33.391L17.4475 33.645C17.4137 33.7351 17.386 33.8273 17.3644 33.9211C17.3207 34.1095 17.306 34.3035 17.3207 34.4964C17.3288 34.6984 17.3914 34.8943 17.5018 35.063C17.5357 35.1089 17.5783 35.1477 17.6271 35.177C17.6758 35.2064 17.7299 35.2258 17.7861 35.2341C17.8911 35.2458 17.9973 35.2316 18.0955 35.1925C18.4354 35.0476 18.7699 34.9212 19.1093 34.7855C20.4605 34.2468 21.8108 33.7048 23.1438 33.1219C24.4801 32.5466 25.8067 31.9481 27.1182 31.3162C29.7437 30.0626 32.3236 28.6802 34.7105 26.9876C35.9092 26.1459 37.0348 25.2032 38.0752 24.1698C39.1063 23.13 40.034 21.9523 40.6357 20.5961C40.6415 20.5831 40.6445 20.5692 40.6446 20.555C40.6447 20.5409 40.6418 20.5269 40.6363 20.5139L40.6356 20.5124C40.4817 20.1503 40.3806 19.7676 40.3353 19.3764C40.2851 18.9849 40.3069 18.5875 40.3998 18.204C40.4486 18.0133 40.5188 17.8288 40.6089 17.6541C40.7027 17.4804 40.8148 17.3175 40.9433 17.1681C41.2124 16.8743 41.5311 16.6308 41.8846 16.4489L41.8857 16.4483L41.8892 16.4458L42.1261 16.2417C42.1295 16.2388 42.1316 16.2347 42.132 16.2302C42.1324 16.2258 42.131 16.2213 42.1282 16.2179C42.1254 16.2144 42.1213 16.2122 42.1169 16.2117C42.1125 16.2112 42.1081 16.2124 42.1046 16.2152ZM47.7613 12.2086C47.6952 12.2063 47.6325 12.1783 47.5866 12.1304C47.5407 12.0825 47.515 12.0185 47.515 11.9518C47.515 11.8852 47.5407 11.8212 47.5866 11.7733C47.6325 11.7254 47.6952 11.6974 47.7613 11.6951C47.8274 11.6974 47.89 11.7254 47.9359 11.7733C47.9819 11.8212 48.0076 11.8852 48.0076 11.9518C48.0076 12.0185 47.9819 12.0825 47.9359 12.1304C47.89 12.1783 47.8274 12.2063 47.7613 12.2086ZM48.5637 13.0756C48.5307 13.0744 48.4993 13.0604 48.4764 13.0365C48.4534 13.0125 48.4405 12.9805 48.4405 12.9472C48.4405 12.9139 48.4534 12.8819 48.4764 12.8579C48.4993 12.834 48.5307 12.82 48.5637 12.8188C48.5968 12.82 48.6281 12.834 48.6511 12.8579C48.674 12.8819 48.6869 12.9139 48.6869 12.9472C48.6869 12.9805 48.674 13.0125 48.6511 13.0365C48.6281 13.0604 48.5968 13.0744 48.5637 13.0756ZM48.2778 11.4615C48.2182 11.4033 48.1471 11.3584 48.0691 11.3297C47.9923 11.2994 47.9114 11.2812 47.8291 11.2758C47.7447 11.2711 47.6602 11.2823 47.5798 11.3086C47.4979 11.3354 47.4265 11.3875 47.3758 11.4576C47.4612 11.4474 47.5326 11.4422 47.6046 11.4398C47.6768 11.4406 47.7475 11.4417 47.8195 11.4466C47.9719 11.4597 48.1249 11.4647 48.2778 11.4615ZM48.1832 13.9813C48.0908 13.9471 48.0073 13.9143 47.9248 13.8804C47.8433 13.845 47.7628 13.8122 47.6855 13.7716C47.6075 13.733 47.5298 13.6929 47.4522 13.6484C47.3732 13.6056 47.2965 13.5573 47.206 13.5149C47.2889 13.6954 47.4323 13.8407 47.611 13.9254C47.6996 13.9687 47.7946 13.9971 47.8922 14.0094C47.99 14.0245 48.09 14.0148 48.1832 13.9813ZM23.5162 21.3233C19.6006 21.0523 15.6814 20.8848 11.7614 20.7427C9.80119 20.6774 7.84083 20.6164 5.87978 20.5753C3.91892 20.5294 1.95728 20.5056 -0.00513458 20.504C1.95271 20.6388 3.91129 20.7515 5.87062 20.8423C7.82979 20.9378 9.78966 21.0134 11.7497 21.0846C15.6701 21.2157 19.5913 21.3213 23.5162 21.3233ZM12.5629 24.3043C10.9495 24.122 9.33315 24.0433 7.71603 23.9899C6.90733 23.969 6.09846 23.9524 5.28904 23.9557C4.47975 23.9542 3.66983 23.9748 2.85925 24.0175C3.66595 24.108 4.47327 24.1764 5.28126 24.2228C6.08908 24.2739 6.89752 24.3051 7.70606 24.332C9.3235 24.3742 10.9417 24.3911 12.5629 24.3043ZM18.6471 16.8744C16.9457 16.7241 15.2432 16.6776 13.5406 16.6564C12.6892 16.6515 11.8378 16.651 10.9862 16.6704C10.1346 16.6849 9.28287 16.7216 8.43092 16.7804C9.28166 16.8548 10.1326 16.9072 10.9838 16.9375C11.8349 16.9726 12.6862 16.9877 13.5375 16.9985C15.2402 17.0086 16.9432 16.9934 18.6471 16.8744Z" fill="#CABDFF"/>
<path d="M48.2263 49.834C48.2246 49.8357 48.2246 49.8357 48.2246 49.8374H48.2263V49.834ZM38.5645 45.7221C38.5662 45.7238 38.5662 45.7272 38.5679 45.7289L38.5713 45.7186L38.5645 45.7221Z" fill="#CABDFF"/>
<path d="M19.1197 29.5599C19.0536 29.5573 18.9911 29.529 18.9454 29.4809C18.8996 29.4328 18.8742 29.3687 18.8745 29.3021C18.8748 29.2355 18.9007 29.1716 18.9469 29.1239C18.993 29.0762 19.0558 29.0484 19.1219 29.0464C19.188 29.049 19.2505 29.0773 19.2962 29.1254C19.3419 29.1735 19.3674 29.2376 19.3671 29.3042C19.3668 29.3708 19.3408 29.4347 19.2947 29.4824C19.2485 29.5301 19.1858 29.5579 19.1197 29.5599ZM19.4001 30.7732C19.334 30.7706 19.2715 30.7422 19.2257 30.6941C19.18 30.646 19.1546 30.5819 19.1549 30.5153C19.1552 30.4487 19.1811 30.3848 19.2273 30.3371C19.2734 30.2894 19.3362 30.2616 19.4023 30.2596C19.4684 30.2622 19.5309 30.2905 19.5766 30.3386C19.6223 30.3867 19.6477 30.4509 19.6475 30.5175C19.6472 30.5841 19.6212 30.6479 19.5751 30.6956C19.5289 30.7434 19.4662 30.7711 19.4001 30.7732ZM19.0279 31.9425C18.9618 31.9399 18.8993 31.9115 18.8536 31.8634C18.8078 31.8153 18.7824 31.7512 18.7827 31.6846C18.783 31.618 18.809 31.5541 18.8551 31.5064C18.9013 31.4587 18.964 31.4309 19.0301 31.4289C19.0962 31.4315 19.1587 31.4598 19.2044 31.508C19.2502 31.5561 19.2756 31.6202 19.2753 31.6868C19.275 31.7534 19.2491 31.8173 19.2029 31.865C19.1568 31.9127 19.094 31.9405 19.0279 31.9425ZM18.3491 33.2748C18.283 33.2722 18.2205 33.2439 18.1747 33.1958C18.129 33.1477 18.1036 33.0836 18.1039 33.017C18.1041 32.9503 18.1301 32.8865 18.1763 32.8388C18.2224 32.791 18.2852 32.7633 18.3513 32.7612C18.4174 32.7638 18.4799 32.7922 18.5256 32.8403C18.5714 32.8884 18.5968 32.9525 18.5965 33.0191C18.5962 33.0857 18.5702 33.1496 18.5241 33.1973C18.4779 33.245 18.4152 33.2728 18.3491 33.2748ZM18.0983 34.6706C18.0323 34.668 17.9697 34.6397 17.924 34.5916C17.8783 34.5435 17.8529 34.4794 17.8531 34.4128C17.8534 34.3462 17.8794 34.2823 17.9255 34.2346C17.9717 34.1869 18.0344 34.1591 18.1005 34.157C18.1666 34.1596 18.2291 34.188 18.2749 34.2361C18.3206 34.2842 18.346 34.3483 18.3457 34.4149C18.3454 34.4815 18.3195 34.5454 18.2733 34.5931C18.2272 34.6408 18.1644 34.6686 18.0983 34.6706Z" fill="#CABDFF"/>
<path d="M18.9364 34.7723C19.2408 34.3135 19.5021 33.8271 19.7168 33.3194C19.9404 32.8114 20.1138 32.2824 20.2345 31.7403C20.2919 31.4644 20.3283 31.1846 20.3434 30.9032L20.3475 30.6899C20.3472 30.6187 20.3379 30.5463 20.3334 30.4748C20.3235 30.334 20.3036 30.194 20.2738 30.056C20.2228 29.7783 20.1378 29.508 20.0208 29.2513C19.9606 29.121 19.8802 29.0011 19.7827 28.8961C19.7376 28.8404 19.6805 28.7958 19.6157 28.7656C19.5509 28.7354 19.4802 28.7205 19.4088 28.7218C19.4726 28.7371 19.5324 28.7658 19.5843 28.8062C19.6361 28.8466 19.6788 28.8976 19.7095 28.956C19.7787 29.0671 19.8314 29.1879 19.866 29.3143C19.9385 29.5699 19.9872 29.8317 20.0115 30.0963C20.0217 30.23 20.0374 30.3642 20.036 30.4927C20.0362 30.5577 20.0413 30.6219 20.0376 30.6872L20.0221 30.8836C19.9999 31.1478 19.9599 31.4102 19.9022 31.6689C19.7863 32.195 19.642 32.7144 19.4699 33.2247C19.3006 33.7399 19.1187 34.2529 18.9364 34.7723ZM40.8779 17.2076C40.9544 17.1289 41.0275 17.057 41.1006 16.9902C41.0193 17.0549 40.9447 17.1278 40.8779 17.2076ZM40.7793 17.3087C40.4462 17.6886 40.2597 18.1765 40.2541 18.6833C40.3035 18.1441 40.5172 17.6335 40.866 17.2214C40.8371 17.2487 40.8082 17.2778 40.7793 17.3087Z" fill="#CABDFF"/>
<path d="M40.5448 20.5544C40.3369 19.9534 40.2385 19.3196 40.2541 18.6833C40.2001 19.3215 40.2998 19.9633 40.5448 20.5544Z" fill="#CABDFF"/>
<path d="M35.5558 26.1778C35.8227 25.9775 36.076 25.7755 36.3173 25.5752C36.3649 25.5358 36.4142 25.4965 36.4601 25.4571C36.4754 25.4434 36.4907 25.4314 36.5043 25.4194C39.168 23.1632 40.2712 21.1141 40.4989 20.6519C40.5295 20.5885 40.5448 20.5543 40.5448 20.5543C40.6383 20.746 40.742 20.9309 40.8406 21.1192L41.1517 21.6756C41.3591 22.0453 41.5783 22.4083 41.7976 22.7712C42.0203 23.1324 42.243 23.4936 42.4776 23.8479C42.7087 24.2023 42.945 24.5549 43.1949 24.899C43.0164 25.3674 42.7028 25.7713 42.2944 26.0587C41.886 26.3461 41.4016 26.5038 40.9035 26.5116C40.6628 26.4664 40.419 26.44 40.1743 26.4328L39.8156 26.4123C39.6965 26.4103 39.5786 26.3877 39.4671 26.3455C39.5493 26.4475 39.6641 26.5177 39.7918 26.5441C39.9136 26.5765 40.0383 26.5966 40.1641 26.604C40.4141 26.6187 40.6646 26.5873 40.9035 26.5116L39.8785 27.6157C39.875 27.6155 39.8716 27.615 39.8683 27.614C39.6711 27.5764 36.4873 26.9635 35.4759 26.2394C35.5031 26.2189 35.5286 26.2 35.5558 26.1778ZM41.9421 22.6821C41.7194 22.321 41.4967 21.9597 41.2639 21.6054L40.912 21.0747C40.7896 20.9018 40.6723 20.7255 40.5448 20.5543C40.5431 20.5509 40.5431 20.5492 40.5414 20.5457V20.5423C40.5397 20.5406 40.5397 20.5406 40.5397 20.5389C40.5329 20.5167 40.5261 20.4944 40.5193 20.4721C40.504 20.4242 40.4904 20.3763 40.4768 20.3266C40.4513 20.2427 40.4292 20.1589 40.4088 20.075C40.3986 20.0356 40.3901 19.998 40.3799 19.9586C40.3613 19.8696 40.3425 19.7823 40.3273 19.695C40.3188 19.6505 40.312 19.6059 40.3052 19.5614C40.3001 19.5383 40.2967 19.5149 40.295 19.4913C40.2919 19.4777 40.2896 19.464 40.2882 19.4502C40.2848 19.4211 40.2814 19.392 40.278 19.3612C40.2763 19.3406 40.2729 19.3184 40.2712 19.2978C40.2695 19.2858 40.2695 19.2756 40.2678 19.2636C40.2627 19.2156 40.2593 19.1694 40.2576 19.1232C40.2559 19.0975 40.2542 19.0718 40.2542 19.0462C40.2508 18.9897 40.2491 18.9349 40.2491 18.8801C40.2491 18.8185 40.2508 18.7552 40.2542 18.6935C40.2533 18.6884 40.2533 18.6832 40.2542 18.6781C40.2539 18.6746 40.2545 18.6711 40.2559 18.6678C40.2556 18.6621 40.2562 18.6563 40.2576 18.6507C40.2573 18.6387 40.2578 18.6267 40.2593 18.6148C40.261 18.5805 40.2644 18.548 40.2678 18.5138C40.2695 18.5035 40.2695 18.4932 40.2712 18.4829C40.2746 18.4521 40.2797 18.4213 40.2848 18.3905C40.2848 18.3871 40.2865 18.3837 40.2865 18.3803C40.2882 18.37 40.2898 18.358 40.2916 18.3477C40.2933 18.3375 40.295 18.3289 40.2967 18.3203C40.2967 18.3186 40.2967 18.3186 40.2984 18.3169C40.3018 18.2878 40.3086 18.2621 40.3137 18.2347C40.3154 18.2296 40.3154 18.2228 40.3171 18.2176C40.3202 18.202 40.3242 18.1866 40.329 18.1714C40.3409 18.12 40.3545 18.0704 40.3698 18.0225C40.3767 17.9968 40.3852 17.9717 40.3952 17.9471C40.4004 17.9302 40.4067 17.9136 40.4139 17.8975C40.419 17.8821 40.4258 17.8667 40.4326 17.8513C40.4445 17.8222 40.4564 17.7948 40.47 17.7691C40.4717 17.7657 40.4717 17.7622 40.4734 17.7588V17.7571C40.4755 17.7552 40.4773 17.7528 40.4785 17.7503C40.4826 17.739 40.4877 17.7281 40.4938 17.7177C40.4989 17.7058 40.5057 17.6955 40.5108 17.6852C40.5125 17.6786 40.5161 17.6727 40.521 17.6681C40.5278 17.6544 40.5363 17.6407 40.5431 17.627C40.555 17.6065 40.5686 17.5842 40.5822 17.5637C40.6012 17.5315 40.6222 17.5007 40.6451 17.4712C40.6509 17.4619 40.6577 17.4532 40.6655 17.4455L40.6706 17.4404C40.6732 17.4366 40.6755 17.4326 40.6774 17.4284C40.6776 17.4284 40.6779 17.4284 40.6781 17.4283C40.6783 17.4282 40.6785 17.4281 40.6786 17.4279C40.6788 17.4278 40.6789 17.4276 40.679 17.4274C40.6791 17.4272 40.6791 17.4269 40.6791 17.4267C40.6804 17.4232 40.6828 17.4202 40.6859 17.4182C40.6961 17.4045 40.7063 17.3908 40.7182 17.3771C40.7386 17.3531 40.759 17.3308 40.7794 17.3086C40.8083 17.2778 40.8372 17.2487 40.8661 17.2213C40.8678 17.2179 40.8678 17.2162 40.8695 17.2162C40.8729 17.2127 40.8746 17.2093 40.878 17.2076C40.881 17.2023 40.8851 17.1976 40.8899 17.1939L40.8916 17.1922C40.9103 17.1734 40.9273 17.1579 40.9443 17.1409C40.9715 17.1117 41.0004 17.0861 41.0276 17.0587C41.0443 17.0436 41.0602 17.0276 41.0752 17.0108L41.0803 17.0056C41.0871 17.0005 41.0922 16.9953 41.0956 16.9936C41.0973 16.9919 41.1007 16.9902 41.1024 16.9885C41.3161 16.7834 41.5542 16.6058 41.8112 16.4595C41.8316 16.4475 41.852 16.4373 41.8741 16.427C42.7512 15.9836 43.3428 16.4219 44.3321 16.504C45.6783 16.6136 48.0547 22.3004 48.0547 22.3004C48.0088 22.3517 47.9629 22.4031 47.917 22.4527C46.5724 23.9044 44.8352 24.5172 43.8884 24.7586C43.66 24.8186 43.4285 24.8654 43.1949 24.899C43.0045 24.519 42.7971 24.1475 42.588 23.7777C42.3807 23.408 42.1614 23.0451 41.9421 22.6821ZM45.0154 22.3723C44.5938 22.601 44.1877 22.8578 43.8 23.1409C44.6894 22.7802 45.5333 22.3148 46.3141 21.7543C45.8682 21.9314 45.4344 22.1379 45.0154 22.3723ZM47.198 22.3894C47.264 22.3873 47.3267 22.3594 47.3728 22.3117C47.4188 22.2639 47.4447 22.2 47.4449 22.1335C47.4451 22.0669 47.4197 22.0029 47.3739 21.9548C47.3282 21.9068 47.2657 21.8785 47.1997 21.8759C47.1336 21.878 47.071 21.9059 47.0249 21.9536C46.9788 22.0014 46.953 22.0652 46.9528 22.1318C46.9525 22.1984 46.978 22.2624 47.0237 22.3105C47.0695 22.3585 47.1319 22.3868 47.198 22.3894ZM46.1747 23.0827C46.241 23.0809 46.3039 23.0532 46.3503 23.0054C46.3966 22.9576 46.4226 22.8936 46.4229 22.8268C46.4231 22.76 46.3975 22.6958 46.3515 22.6477C46.3055 22.5996 46.2427 22.5714 46.1764 22.5692C46.1101 22.571 46.0471 22.5987 46.0008 22.6465C45.9544 22.6943 45.9284 22.7583 45.9282 22.8251C45.928 22.8919 45.9536 22.9561 45.9996 23.0042C46.0456 23.0523 46.1084 23.0805 46.1747 23.0827ZM44.9491 23.6939C45.0152 23.6917 45.0778 23.6638 45.1239 23.6161C45.1699 23.5683 45.1958 23.5045 45.196 23.4379C45.1962 23.3713 45.1708 23.3073 45.125 23.2592C45.0793 23.2112 45.0168 23.1829 44.9508 23.1803C44.8847 23.1824 44.8221 23.2103 44.776 23.2581C44.73 23.3058 44.7041 23.3697 44.7039 23.4363C44.7037 23.5028 44.7291 23.5669 44.7749 23.6149C44.8206 23.663 44.8831 23.6913 44.9491 23.6939ZM43.8459 24.1407C43.912 24.1385 43.9746 24.1106 44.0207 24.0629C44.0667 24.0151 44.0926 23.9513 44.0928 23.8847C44.093 23.8181 44.0676 23.7541 44.0219 23.706C43.9761 23.658 43.9136 23.6297 43.8476 23.6271C43.7815 23.6292 43.7189 23.6571 43.6728 23.7049C43.6268 23.7526 43.6009 23.8165 43.6007 23.883C43.6005 23.9496 43.6259 24.0137 43.6717 24.0617C43.7174 24.1098 43.7799 24.1381 43.8459 24.1407ZM32.5253 21.3175C33.1647 20.8489 38.333 17.1569 38.333 17.1569C37.8347 16.8754 37.4369 16.4435 37.1956 15.922C36.1425 16.982 35.5168 17.3524 32.5253 21.3175Z" fill="#CABDFF"/>
</g>
<defs>
<clipPath id="clip0_73_1635">
<rect width="75" height="75" fill="white" transform="matrix(-1 0 0 1 75 0)"/>
</clipPath>
</defs>
</svg>
