<svg width="75" height="75" viewBox="0 0 75 75" fill="none" xmlns="http://www.w3.org/2000/svg">
<path d="M44.9181 22.6446C44.9181 22.6446 44.2825 22.2633 43.6893 22.9412C43.6893 22.9412 42.63 21.436 38.1386 22.7395C38.1386 22.7395 38.7318 23.8734 39.1555 23.8734C39.5792 23.8734 38.3504 25.8225 37.2064 25.7378C37.2064 25.7378 35.2573 28.5767 36.7403 31.3309C38.202 34.0455 39.2521 34.9078 40.7019 33.147C40.7464 33.0924 40.796 33.0421 40.8501 32.997C41.267 32.6532 43.1129 31.2235 43.7671 32.2895C43.9065 32.5264 43.9463 32.8087 43.878 33.0749C43.5794 34.3255 42.183 38.932 38.1386 37.0936C38.1386 37.0936 33.4253 35.3261 34.537 31.1389C34.6558 30.713 34.8282 30.3039 35.05 29.9214C35.2639 29.5306 35.3957 29.1003 35.4373 28.6569C35.479 28.2134 35.4296 27.7661 35.2923 27.3423C35.1219 26.7382 34.7375 26.2168 34.2109 25.8753C33.7004 25.5568 33.0273 25.4144 32.5175 26.305C32.3065 26.6754 32.1953 27.0943 32.1947 27.5206C32.1937 27.9109 32.2663 28.3895 32.5878 28.6191L32.1947 29.3818C31.9809 28.9468 31.7075 28.5437 31.3823 28.1841C30.8379 27.6327 30.4881 26.9187 30.3861 26.1506C30.2422 24.932 30.4155 23.1125 31.8675 20.9921C31.8675 20.9921 33.8166 17.0939 37.4606 17.1786C41.1046 17.2634 44.2402 18.2379 44.9181 22.6446Z" fill="currentColor"/>
<path d="M38.8165 27.7292C39.4495 27.5844 40.0999 27.5308 40.748 27.5701C41.0744 27.5863 41.3984 27.6354 41.715 27.7167C42.0381 27.7861 42.3383 27.9361 42.5877 28.1529C42.2998 28.0192 41.9923 27.9326 41.677 27.8965C41.3655 27.8517 41.0512 27.8191 40.7341 27.8049C40.1005 27.7656 39.4636 27.7626 38.8165 27.7292ZM44.9181 27.6687C44.6863 27.7392 44.4719 27.8573 44.2885 28.0156C44.2016 28.0873 44.1308 28.1766 44.0807 28.2775C44.0306 28.3784 44.0023 28.4888 43.9977 28.6014C44.0148 28.8324 44.0754 29.0581 44.1762 29.2666L44.4533 29.9479C44.66 30.4088 44.7801 30.9038 44.8077 31.4081C44.8072 31.541 44.7828 31.6728 44.7356 31.797C44.6849 31.9227 44.602 32.0329 44.4952 32.1165C44.2784 32.253 44.0223 32.3139 43.7671 32.2895C44.0064 32.2691 44.2341 32.178 44.4214 32.0278C44.4983 31.9458 44.5562 31.8479 44.5912 31.7411C44.6262 31.6344 44.6374 31.5212 44.624 31.4096C44.6057 31.1737 44.5578 30.941 44.4814 30.717C44.4102 30.4876 44.325 30.2603 44.2343 30.0338C44.1473 29.8057 44.0531 29.5789 43.9683 29.3452C43.9277 29.2273 43.8866 29.1097 43.8548 28.9853C43.8151 28.8567 43.8017 28.7215 43.8153 28.5877C43.8294 28.4545 43.8728 28.3262 43.9423 28.2118C44.0118 28.0974 44.1057 27.9997 44.2172 27.9257C44.427 27.7854 44.6674 27.6973 44.9181 27.6687Z" fill="currentColor"/>
<path d="M44.9181 22.6445C44.9975 23.1195 45.0565 23.597 45.0952 24.077C45.1393 24.5563 45.1666 25.037 45.177 25.5191C45.1845 26.0012 45.1773 26.4842 45.1397 26.9675C45.1175 27.4602 45.0075 27.9449 44.8147 28.3988C44.8119 28.4044 44.8084 28.4097 44.8041 28.4143C44.6554 28.5744 44.5158 28.7427 44.386 28.9185C44.3215 29.0066 44.2642 29.0996 44.2146 29.1968C44.1594 29.2914 44.1373 29.4017 44.1518 29.5103C44.1178 29.401 44.1239 29.2833 44.1691 29.1782C44.2081 29.0722 44.2555 28.9694 44.3109 28.871C44.4215 28.6748 44.5494 28.4888 44.6931 28.3153L44.6825 28.3307C44.7646 28.1139 44.8193 27.8877 44.8453 27.6574C44.882 27.425 44.8969 27.1877 44.9144 26.9512C44.9424 26.4766 44.9473 25.9991 44.95 25.5213C44.9499 24.565 44.929 23.6069 44.9181 22.6445ZM42.3758 30.9495C42.3311 31.0415 42.2949 31.1374 42.2678 31.236C42.2402 31.3271 42.2342 31.4233 42.2502 31.5172C42.2633 31.6101 42.304 31.6971 42.3669 31.7668C42.4334 31.8438 42.5074 31.9141 42.5876 31.9766C42.5363 31.9614 42.4859 31.9433 42.4366 31.9225C42.3886 31.8961 42.3433 31.8649 42.3016 31.8295C42.2141 31.7537 42.1551 31.6505 42.1343 31.5367C42.1194 31.424 42.1362 31.3094 42.1829 31.2058C42.2264 31.1066 42.2925 31.0188 42.3758 30.9495ZM32.5878 28.619C32.7344 28.8031 32.8514 29.0089 32.9346 29.2291C32.9791 29.3415 33.0114 29.4584 33.0307 29.5778C33.0411 29.6403 33.0453 29.7037 33.0431 29.7671L33.0419 29.8159L33.0447 29.8424C33.0436 29.8596 33.0474 29.8768 33.0556 29.892C33.092 29.9695 33.1562 30.0305 33.2354 30.0628C33.3295 30.1109 33.4287 30.1485 33.531 30.1748C33.7487 30.2335 33.9726 30.2659 34.1979 30.2715C33.9753 30.3588 33.7341 30.3876 33.4972 30.3554C33.3736 30.3428 33.2525 30.3118 33.1381 30.2633C33.0707 30.2372 33.0092 30.198 32.9571 30.148C32.905 30.098 32.8633 30.0382 32.8344 29.972C32.8192 29.9347 32.8117 29.8947 32.8125 29.8545L32.8117 29.795L32.8135 29.7579C32.8161 29.7066 32.815 29.6552 32.81 29.6042C32.8006 29.4956 32.7837 29.3878 32.7593 29.2816C32.7113 29.0639 32.648 28.845 32.5878 28.619ZM32.1947 29.3817C32.1001 29.7244 31.9668 30.0552 31.7973 30.3678C31.6313 30.6849 31.431 30.9828 31.1999 31.2561C30.9688 31.5346 30.6946 31.7743 30.3877 31.9662C30.0801 32.157 29.728 32.2641 29.3662 32.2769C29.6973 32.1774 30.0083 32.0207 30.2852 31.8138C30.5562 31.6053 30.8029 31.3671 31.0208 31.1036C31.2445 30.8404 31.4513 30.5634 31.6401 30.2741C31.83 29.9834 32.0187 29.6887 32.1947 29.3817ZM35.2996 39.2968C35.5673 39.1794 35.8205 39.0312 36.054 38.8553C36.2857 38.6823 36.5055 38.4939 36.7119 38.2914C36.9247 38.0949 37.1155 37.8752 37.3137 37.6601L37.6022 37.327C37.6961 37.2133 37.7898 37.0988 37.8932 36.989C37.8342 37.1265 37.7656 37.2592 37.6972 37.3929C37.6197 37.5204 37.5435 37.6499 37.4583 37.7733C37.2865 38.0208 37.0911 38.2511 36.875 38.4609C36.6578 38.6725 36.4155 38.8566 36.1534 39.009C35.8935 39.1667 35.6019 39.265 35.2996 39.2968Z" fill="currentColor"/>
<path d="M31.0606 31.1797C30.8497 30.8673 30.5889 30.5916 30.2886 30.3638C30.2261 30.3086 30.1503 30.2705 30.0687 30.2531C29.9871 30.2358 29.9024 30.2399 29.8229 30.265C29.6823 30.3605 29.5815 30.504 29.5392 30.6685C29.4813 30.844 29.4396 31.0244 29.4146 31.2075C29.402 31.2985 29.3908 31.3933 29.3826 31.4809C29.3831 31.5643 29.3904 31.6622 29.3987 31.7534C29.4352 32.127 29.5045 32.4968 29.6058 32.8583C29.7923 33.5939 30.082 34.2994 30.4663 34.9537C30.8556 35.6078 31.3214 36.2133 31.8538 36.7574C32.1208 37.0274 32.3982 37.2873 32.6798 37.5407C32.9723 37.782 33.2517 38.0411 33.5561 38.2626C33.703 38.3813 33.8649 38.4775 34.0183 38.5861C34.1806 38.6794 34.3365 38.7855 34.5056 38.8647C34.8324 39.0423 35.18 39.1785 35.5404 39.2703C36.2602 39.4612 37.0251 39.381 37.6895 39.0447C38.3572 38.6883 38.9181 38.1606 39.3145 37.5159C39.316 37.5131 39.3184 37.511 39.3214 37.51C39.3244 37.5091 39.3276 37.5094 39.3304 37.5108C39.333 37.5124 39.3349 37.5149 39.3358 37.5177C39.3368 37.5206 39.3366 37.5238 39.3355 37.5266C38.9907 38.2267 38.4487 38.8108 37.7764 39.207C37.432 39.4023 37.0532 39.5293 36.6607 39.5811C36.2669 39.6276 35.868 39.6022 35.4833 39.5062C35.1014 39.4155 34.7338 39.2726 34.3908 39.0815C34.2157 38.9946 34.0568 38.882 33.8906 38.7815C33.7347 38.6665 33.5697 38.5631 33.4218 38.4387C33.1117 38.2057 32.8403 37.9337 32.5533 37.6781C32.407 37.5536 32.283 37.405 32.1486 37.2681C32.0192 37.1261 31.8791 36.9946 31.7589 36.8445C31.2572 36.2647 30.8017 35.6465 30.3963 34.9956C29.9836 34.3448 29.6549 33.6445 29.4181 32.9112C29.3025 32.5402 29.2269 32.1579 29.1928 31.7708C29.1864 31.6716 29.1805 31.5791 29.1827 31.4715C29.1939 31.3695 29.2077 31.2747 29.2234 31.1772C29.2545 30.9825 29.3036 30.7912 29.3699 30.6055C29.3998 30.5031 29.4498 30.4076 29.5169 30.3247C29.584 30.2418 29.667 30.173 29.761 30.1225C29.8667 30.0811 29.9837 30.0787 30.0909 30.1158C30.1884 30.1492 30.2795 30.1991 30.3602 30.2632C30.6562 30.5155 30.9009 30.8226 31.0807 31.1675C31.0815 31.1689 31.082 31.1703 31.0822 31.1719C31.0823 31.1734 31.0822 31.175 31.0818 31.1765C31.0814 31.1779 31.0807 31.1793 31.0798 31.1806C31.0788 31.1818 31.0776 31.1828 31.0763 31.1836C31.0737 31.1849 31.0706 31.1853 31.0677 31.1846C31.0648 31.1838 31.0623 31.1821 31.0606 31.1797ZM20.1523 34.3817C20.4609 34.4692 20.741 34.6366 20.9641 34.867C21.1941 35.0938 21.3781 35.3629 21.5058 35.6595C21.6338 35.9544 21.7058 36.2706 21.7181 36.5919C21.7242 36.75 21.7161 36.9084 21.6939 37.0651C21.6669 37.2205 21.6258 37.3732 21.571 37.5212C21.5161 37.3681 21.4914 37.2203 21.451 37.0759C21.4077 36.9324 21.3817 36.7895 21.3336 36.6529C21.2568 36.3817 21.1627 36.1157 21.0518 35.8566C20.9406 35.5989 20.8105 35.3497 20.6627 35.1112C20.5078 34.8577 20.3374 34.614 20.1523 34.3817ZM21.2321 40.3138C21.3274 41.4126 21.374 42.5111 21.4033 43.6095C21.4357 44.7079 21.4392 45.8061 21.4371 46.9042C21.4257 48.0024 21.4081 49.1004 21.3617 50.1983C21.3183 51.2963 21.2574 52.3941 21.1473 53.4915C21.0513 52.3927 21.0046 51.2942 20.9754 50.1959C20.9431 49.0975 20.9396 47.9992 20.9423 46.9011C20.9543 45.803 20.9719 44.7049 21.0185 43.607C21.0619 42.5091 21.1226 41.4113 21.2321 40.3138ZM43.8926 33.0548C44.7991 33.622 45.689 34.2127 46.5623 34.8271C46.9994 35.1338 47.4329 35.4461 47.8628 35.7639L48.5026 36.2527C48.6148 36.3368 48.7205 36.4293 48.8187 36.5294L48.9708 36.6881L49.0988 36.8504C49.4304 37.278 49.7329 37.7274 50.0042 38.1956C50.2776 38.657 50.5437 39.1213 50.8025 39.5888C51.3139 40.5278 51.8405 41.4564 52.3824 42.3744C52.6534 42.8338 52.9296 43.2902 53.211 43.7436L53.632 44.4232C53.7567 44.6454 53.905 44.8536 54.0742 45.0442C54.2536 45.2201 54.4671 45.3944 54.6529 45.6134C54.873 45.8427 55.0055 46.142 55.0273 46.459C55.0106 46.7841 54.869 47.0902 54.6321 47.3133C54.5308 47.4156 54.4243 47.5127 54.313 47.6041C54.2134 47.6844 54.1166 47.7687 54.0219 47.8556C53.8314 48.0306 53.6561 48.2144 53.4779 48.4121C53.2964 48.6126 53.1085 48.8071 52.9179 48.9994C52.533 49.3837 52.1243 49.7435 51.6942 50.0765C51.2558 50.416 50.7785 50.7022 50.2724 50.9288C50.0069 51.0411 49.728 51.1183 49.4426 51.1584C49.1429 51.2029 48.8369 51.1763 48.5493 51.0808C48.5035 51.0669 48.4644 51.0366 48.4397 50.9956L48.4381 50.993C48.2522 50.6852 48.0489 50.3783 47.8431 50.0779C47.6375 49.7761 47.4223 49.4816 47.1973 49.1944C46.9714 48.9093 46.73 48.6369 46.4742 48.3784C46.2279 48.1124 45.9262 47.9038 45.5905 47.7672L45.5886 47.7665C45.5827 47.7644 45.5779 47.7602 45.575 47.7546C45.5721 47.7491 45.5714 47.7427 45.573 47.7366C45.5747 47.7306 45.5786 47.7254 45.5839 47.7221C45.5892 47.7189 45.5956 47.7177 45.6017 47.7189C45.9685 47.8136 46.3077 47.9938 46.5914 48.2449C46.8824 48.4802 47.155 48.7374 47.407 49.014C47.9134 49.5624 48.3787 50.1474 48.7992 50.7642L48.688 50.6764C49.1593 50.7726 49.6495 50.7013 50.0739 50.4749C50.5373 50.2539 50.9728 49.9789 51.3715 49.6555C51.7846 49.3349 52.1796 48.9915 52.5546 48.6271C52.7444 48.4457 52.9321 48.2615 53.1137 48.0713C53.2977 47.8778 53.496 47.6802 53.7035 47.5C53.8077 47.4094 53.9145 47.3213 54.0248 47.2371C54.1247 47.1537 54.2196 47.0825 54.3033 46.9975C54.4654 46.8579 54.5713 46.6641 54.6012 46.4522C54.5884 46.2324 54.5007 46.0235 54.3528 45.8604C54.2012 45.6653 54.0097 45.4886 53.8239 45.2764C53.7748 45.2209 53.729 45.1628 53.6865 45.1022L53.5792 44.9206L53.3861 44.5663L53.0087 43.8596C52.7597 43.3875 52.5053 42.9186 52.2457 42.4531C51.7248 41.5228 51.1759 40.608 50.5812 39.7231C49.9917 38.8395 49.3937 37.9449 48.755 37.1286L48.6343 36.9776L48.5083 36.8489C48.422 36.7566 48.3283 36.6713 48.2283 36.594L47.606 36.0996L46.3496 35.1131C45.5101 34.4562 44.6814 33.7834 43.8635 33.0948C43.8587 33.0908 43.8556 33.0851 43.8548 33.0789C43.854 33.0726 43.8557 33.0663 43.8594 33.0612C43.8631 33.0562 43.8685 33.0527 43.8747 33.0515C43.8809 33.0503 43.8873 33.0515 43.8926 33.0548Z" fill="currentColor"/>
<path d="M47.2063 41.0482C46.773 42.6765 46.3638 44.309 46.0221 45.9477C45.8462 46.76 45.7235 47.5829 45.6545 48.4111C45.6311 48.8094 45.6287 49.2491 45.5938 49.6753C45.5597 50.1099 45.487 50.5405 45.3765 50.9622C45.1164 51.7958 44.6996 52.5721 44.1484 53.2494C43.8938 53.589 43.6239 53.9175 43.3713 54.2474C43.2498 54.4112 43.1265 54.5738 43.0174 54.7492C42.9004 54.9183 42.7946 55.0961 42.6893 55.2746C42.2748 55.9991 41.9041 56.7478 41.5794 57.5167C41.2368 58.2826 40.9414 59.0696 40.6527 59.8615C41.0203 58.2061 41.5909 56.6025 42.3516 55.0871C42.548 54.704 42.7729 54.3362 43.0246 53.9868C43.2741 53.6417 43.5299 53.3124 43.7708 52.9718C44.2777 52.3345 44.6607 51.6079 44.8999 50.8296C45.006 50.4377 45.0772 50.0372 45.1124 49.6327C45.1518 49.2202 45.1505 48.8175 45.1884 48.3763C45.2769 47.5281 45.43 46.6879 45.6466 45.8631C46.0622 44.2262 46.5831 42.6179 47.2063 41.0482ZM65.8806 63.0985C65.7821 63.0986 65.6877 63.0595 65.618 62.99C65.5483 62.9204 65.5091 62.826 65.5091 62.7275C65.509 62.629 65.5481 62.5345 65.6176 62.4649C65.6872 62.3952 65.7816 62.356 65.8801 62.356L74.5232 62.3446H74.5237C74.5724 62.3446 74.6207 62.3541 74.6658 62.3728C74.7108 62.3914 74.7518 62.4187 74.7863 62.4532C74.8208 62.4876 74.8482 62.5285 74.8668 62.5736C74.8855 62.6186 74.8952 62.6669 74.8952 62.7156C74.8952 62.7644 74.8857 62.8127 74.867 62.8577C74.8484 62.9028 74.8211 62.9437 74.7866 62.9782C74.7522 63.0127 74.7113 63.0401 74.6662 63.0588C74.6212 63.0775 74.5729 63.0871 74.5242 63.0872L65.8811 63.0985H65.8806Z" fill="currentColor"/>
<path d="M10.8978 62.8523L0 62.9552L0.00701145 63.6977L10.9048 63.5948L10.8978 62.8523Z" fill="currentColor"/>
<path d="M41.1047 29.3112C41.1962 29.308 41.2829 29.2694 41.3466 29.2036C41.4102 29.1377 41.4458 29.0497 41.4458 28.9581C41.4458 28.8665 41.4102 28.7785 41.3466 28.7126C41.2829 28.6467 41.1962 28.6081 41.1047 28.605C41.0131 28.6081 40.9264 28.6467 40.8628 28.7126C40.7991 28.7785 40.7635 28.8665 40.7635 28.9581C40.7635 29.0497 40.7991 29.1377 40.8628 29.2036C40.9264 29.2694 41.0131 29.308 41.1047 29.3112ZM50.4498 65.9159C51.6977 66.7665 53.102 67.3612 54.5813 67.6655C55.3158 67.8071 56.0645 67.8607 56.8117 67.8252C57.5571 67.7849 58.2956 67.6596 59.0126 67.4517C60.4447 67.0157 61.7958 66.3482 63.0122 65.4757C63.3176 65.2697 63.6062 65.0398 63.8754 64.7882C64.144 64.5334 64.3971 64.2627 64.6332 63.9775C65.1054 63.4069 65.5139 62.7866 65.8516 62.1275L65.8279 62.2276L65.8279 62.2252L65.828 62.2199C65.8285 62.1871 65.8365 62.1548 65.8513 62.1255C66.1432 61.5526 66.3816 60.954 66.5635 60.3374C66.7443 59.7179 66.8611 59.0816 66.9121 58.4383L66.9131 58.4247L66.9147 58.4161C66.9183 58.4034 66.914 58.4094 66.9181 58.4325L66.916 58.3935C67.0177 57.0913 66.8346 55.7827 66.3795 54.5585C65.9147 53.3362 65.1949 52.2269 64.268 51.3045C63.352 50.3978 62.2636 49.6839 61.067 49.205C59.8705 48.7261 58.5901 48.4918 57.3014 48.5161C56.0128 48.5404 54.7421 48.8227 53.5645 49.3463C52.3868 49.87 51.326 50.6244 50.4448 51.5649C49.5611 52.5089 48.8732 53.6187 48.4211 54.8302C47.9706 56.0574 47.7613 57.3601 47.8046 58.6667C47.8047 58.67 47.8042 58.6734 47.803 58.6765C47.8018 58.6796 47.8 58.6825 47.7977 58.6849C47.7954 58.6874 47.7927 58.6893 47.7896 58.6907C47.7866 58.6921 47.7833 58.6928 47.7799 58.6929C47.7735 58.6929 47.7673 58.6905 47.7624 58.6863C47.7576 58.682 47.7546 58.6761 47.7538 58.6697C47.5962 57.3445 47.7228 56.001 48.1253 54.7286C48.5308 53.4428 49.2041 52.2576 50.1008 51.2508C51 50.2362 52.1022 49.4217 53.3362 48.8602C54.5726 48.3 55.9143 48.01 57.2718 48.0097C58.6204 47.9964 59.9567 48.2671 61.1938 48.8041C62.4309 49.3412 63.5411 50.1326 64.4523 51.127C65.3546 52.1083 66.0583 53.2552 66.5243 54.5043C66.9897 55.7555 67.2145 57.0834 67.187 58.4181L67.1849 58.3792C67.1904 58.4092 67.1899 58.44 67.1834 58.4698L67.1859 58.4477C67.1678 59.1166 67.0801 59.7819 66.9241 60.4326C66.7702 61.0862 66.5447 61.7207 66.2517 62.3247L66.2751 62.2252L66.2751 62.2276C66.2756 62.2608 66.2682 62.2937 66.2536 62.3235L66.2514 62.3278C65.9086 63.0244 65.4801 63.6754 64.9759 64.2658C64.7249 64.5611 64.4564 64.8412 64.1719 65.1043C63.8821 65.3643 63.5735 65.6025 63.2486 65.8169C61.9882 66.7021 60.5856 67.365 59.1015 67.7768C57.6106 68.1817 56.0439 68.2201 54.5349 67.8885C53.0459 67.5334 51.6456 66.8763 50.4209 65.9579C50.4155 65.9539 50.4119 65.9481 50.4107 65.9415C50.4096 65.935 50.4111 65.9283 50.4149 65.9228C50.4186 65.9173 50.4244 65.9135 50.4309 65.9122C50.4374 65.911 50.4442 65.9123 50.4498 65.9159Z" fill="currentColor"/>
<path d="M52.6332 49.5617C52.5652 49.7438 52.5081 49.9283 52.4506 50.112C52.3942 50.296 52.3391 50.4799 52.2896 50.6653C52.2345 50.8486 52.19 51.0351 52.1462 51.222L52.0028 51.7771L52.0101 51.7307C52.0095 51.7517 52.0055 51.7725 51.9981 51.7922C51.9891 51.8163 51.9753 51.8383 51.9577 51.8569C51.9399 51.8755 51.9186 51.8904 51.895 51.9006C51.8714 51.9109 51.846 51.9163 51.8202 51.9166L52.0006 51.7794C51.8963 52.317 51.7676 52.846 51.6579 53.3801C51.5574 53.9163 51.4563 54.4528 51.3715 54.9928C51.2833 55.5325 51.1958 56.0725 51.1219 56.6168C51.0376 57.16 50.958 57.7055 50.8634 58.2523C50.8139 57.6998 50.7976 57.1448 50.8144 56.5903C50.8238 56.0354 50.8618 55.4813 50.9283 54.9303C50.9975 54.3796 51.0809 53.8295 51.202 53.2867C51.2572 53.0141 51.3312 52.7453 51.4073 52.4776C51.4837 52.21 51.5542 51.941 51.6369 51.6758L51.8174 51.5385C51.7923 51.5388 51.7676 51.5442 51.7446 51.5542C51.7216 51.5642 51.7008 51.5787 51.6835 51.5968C51.6663 51.615 51.6529 51.6365 51.6441 51.6599C51.6369 51.679 51.633 51.6991 51.6325 51.7195L51.6397 51.673C51.7765 51.3067 51.9028 50.9391 52.065 50.5832C52.2227 50.226 52.4129 49.8841 52.6332 49.5617ZM62.2407 49.5616C62.5781 50.1423 62.8567 50.7552 63.0725 51.3912C63.1924 51.7059 63.2774 52.0306 63.3808 52.3511C63.4726 52.6743 63.5489 53.0015 63.6331 53.3273C63.9267 54.6394 64.1153 55.9728 64.1972 57.3148C64.2818 58.654 64.2829 59.9972 64.2004 61.3365C64.1593 62.0051 64.0843 62.6713 64.0203 63.3367C63.9177 63.9989 63.8287 64.6615 63.7107 65.3192C63.7215 64.6493 63.7642 63.9843 63.7879 63.3187L63.8296 61.3235C63.8262 60.9911 63.8244 60.6591 63.8269 60.3272L63.8286 59.8295L63.8109 59.3322L63.7845 58.338L63.7231 57.346C63.6444 56.0238 63.4935 54.7068 63.271 53.4011L63.0799 52.4263C63.0033 52.1046 62.9417 51.7776 62.851 51.4591C62.6974 50.8116 62.4934 50.1772 62.2407 49.5616ZM57.2198 62.6385C57.3728 62.4847 57.5029 62.3096 57.6059 62.1187C57.6034 62.3414 57.5985 62.5617 57.5935 62.7845C57.5614 64.3934 57.4995 66.0023 57.4079 67.6112C57.3163 66.0023 57.2544 64.3934 57.2223 62.7845C57.2223 62.735 57.2198 62.688 57.2198 62.6385ZM57.2866 61.0469C57.2866 61.0469 57.45 60.8513 57.6282 60.5939C57.6257 60.8439 57.6233 61.0964 57.6183 61.3464C57.5326 61.2221 57.419 61.1195 57.2866 61.0469ZM57.6455 57.7177V58.1929L57.6381 59.3588C57.4816 59.3715 57.3272 59.4022 57.1777 59.4503C57.1752 59.0295 57.1728 58.6112 57.1703 58.1929V57.7177C57.1802 54.5766 57.2247 51.438 57.4079 48.2969C57.5886 51.438 57.6356 54.5766 57.6455 57.7177Z" fill="currentColor"/>
<path d="M48.6292 53.9317C50.0043 53.3206 51.4436 52.8654 52.9201 52.5747C54.3987 52.2725 55.9029 52.1127 57.4119 52.0976C58.167 52.0751 58.9208 52.1357 59.6742 52.1777C60.0493 52.2196 60.4232 52.2741 60.7974 52.3217C60.9842 52.348 61.1719 52.3673 61.3577 52.3994L61.9113 52.5182C63.3877 52.8147 64.8227 53.2893 66.1847 53.9317C65.8232 53.8287 65.4645 53.7217 65.1087 53.6107L64.5746 53.4465C64.3959 53.3947 64.2109 53.3633 64.0298 53.3207L62.9439 53.0679C62.5792 52.9982 62.2112 52.9454 61.8457 52.8834L61.2971 52.7936C61.1135 52.7694 60.9284 52.7548 60.7442 52.7349C60.3752 52.6992 60.0072 52.6566 59.6383 52.6265C58.8977 52.5992 58.1586 52.5427 57.4172 52.5728C55.9331 52.5856 54.4519 52.7079 52.9858 52.9384L51.8869 53.1288C51.5233 53.2056 51.1569 53.274 50.7941 53.3581C50.0645 53.5131 49.3452 53.7111 48.6292 53.9317ZM57.1876 63.4404L59.4642 63.1467C60.2173 63.0404 60.9688 62.9277 61.7154 62.7923C62.4632 62.6639 63.2078 62.5122 63.9512 62.3528C64.3193 62.2601 64.6908 62.1764 65.0643 62.0942L65.3459 62.0364L65.6228 61.9644C65.808 61.9171 65.9955 61.8732 66.1851 61.8315C66.0147 61.9197 65.8421 62.0053 65.6673 62.0884C65.4942 62.1741 65.3166 62.2503 65.1352 62.3167C64.7748 62.4522 64.4124 62.5863 64.0465 62.7114C63.3096 62.9425 62.5585 63.1259 61.798 63.2602C60.2777 63.5407 58.7251 63.6013 57.1876 63.4404ZM47.752 57.9553C48.2396 57.9256 48.7272 57.9008 49.2148 57.881C49.0819 57.9165 48.9512 57.9604 48.8237 58.0122C48.4648 57.9949 48.1084 57.9751 47.752 57.9553ZM67.0638 57.9553C65.4549 58.0469 63.846 58.1087 62.2371 58.1409C60.7049 58.1756 59.1752 58.1879 57.6455 58.1929H57.1703C56.9772 58.1929 56.7866 58.1904 56.5935 58.1904C56.6133 57.985 56.5119 57.8488 56.2247 57.834C55.9719 57.8271 55.7248 57.9095 55.5267 58.0667C55.4822 58.1013 55.4327 58.1384 55.3757 58.1805C53.8733 58.1706 52.3716 58.1417 50.8708 58.0939C50.8647 58.0405 50.848 57.989 50.8216 57.9422C50.7952 57.8954 50.7598 57.8544 50.7173 57.8216C52.8683 57.7474 55.0193 57.7251 57.1703 57.7177H57.6455C59.1752 57.7226 60.7049 57.735 62.2371 57.7696C63.846 57.7993 65.4549 57.8612 67.0638 57.9553Z" fill="currentColor"/>
<path d="M51.8212 51.7251C51.8212 51.7255 51.8212 51.7258 51.821 51.7261C51.8209 51.7264 51.8207 51.7267 51.8205 51.7269C51.8203 51.7271 51.82 51.7273 51.8197 51.7274C51.8194 51.7276 51.8191 51.7276 51.8187 51.7276C51.5896 52.1603 51.4111 52.6179 51.2866 53.0915C51.2841 53.0964 51.2841 53.1038 51.2816 53.1088C51.096 53.8241 51.1875 53.9553 50.9425 54.6608C50.8039 55.0593 50.6801 55.2895 50.7494 55.6187C50.8153 55.826 50.899 56.0272 50.9994 56.2202C51.0291 56.2821 51.0588 56.3489 51.0935 56.4231C51.2643 56.7994 51.3064 56.8885 51.2692 57.0024C51.2222 57.141 51.1133 57.1583 50.9128 57.2796C50.8421 57.3209 50.775 57.3681 50.7123 57.4207C50.5935 57.51 50.484 57.6112 50.3856 57.7227C49.6436 57.7149 48.9129 57.9054 48.2692 58.2746C48.1158 58.3613 47.9499 58.4479 47.7717 58.5395H47.7692C47.7618 58.433 47.7593 58.3266 47.7544 58.2202C47.7519 58.1311 47.7519 58.0444 47.7519 57.9553C47.7501 56.5662 48.0491 55.1932 48.6281 53.9306L48.6306 53.9281H48.6331C48.8659 53.4165 49.1442 52.9269 49.4648 52.4652C50.5415 51.4157 51.7024 50.8712 52.0886 50.8736C52.1303 50.8698 52.172 50.8822 52.2049 50.9083C52.2915 50.9949 52.0836 51.2326 51.8212 51.7251ZM67.0638 57.9553C67.0638 58.037 67.0638 58.1187 67.0588 58.2004C67.0588 58.2697 67.0539 58.3365 67.0514 58.4058C67.0514 58.4182 67.0489 58.4306 67.0489 58.443C67.0485 58.5149 67.0444 58.5868 67.0366 58.6583C66.9493 59.8952 66.6223 61.1033 66.0737 62.2152C66.0668 62.2196 66.0593 62.2229 66.0514 62.2251V62.2276C65.9866 62.2584 65.9172 62.2784 65.846 62.287C65.7627 62.2955 65.6786 62.2862 65.5993 62.2597C65.5199 62.2333 65.4471 62.1903 65.3856 62.1336C65.3831 62.1311 65.3806 62.1261 65.3757 62.1237C65.1752 61.9034 65.336 61.5964 65.2717 61.136C65.2172 60.7548 65.0167 60.485 64.6182 59.9479C64.4447 59.7012 64.251 59.4694 64.039 59.2548C63.893 59.1138 63.7569 59.0271 63.6603 59.0667C63.539 59.1212 63.5019 59.3786 63.5464 59.5667C63.6133 59.8489 63.841 59.8736 63.8905 60.1014C63.9573 60.4009 63.6529 60.7474 63.393 60.9058C63.2479 61.0035 63.0799 61.0619 62.9056 61.0753C62.7312 61.0888 62.5563 61.0568 62.3979 60.9826C62.0415 60.7746 62.0514 60.3316 61.8608 60.3316C61.7098 60.334 61.5761 60.6113 61.5539 60.8291C61.5364 60.9653 61.5597 61.1037 61.621 61.2267C61.6822 61.3496 61.7786 61.4516 61.8979 61.5197C62.143 61.6237 62.3014 61.4083 62.5885 61.5197C62.6744 61.5479 62.7514 61.5982 62.8118 61.6656C62.8722 61.7329 62.9138 61.8149 62.9326 61.9034C62.945 62.1385 62.6232 62.3217 62.2048 62.5543C61.7271 62.8192 61.5786 62.8068 61.0167 63.0915C60.9623 63.1187 60.9128 63.1435 60.8657 63.1682C60.6461 63.2694 60.4399 63.3974 60.2519 63.5494C59.8657 63.8662 59.9029 64.0073 59.5242 64.3167C59.2769 64.5462 58.9726 64.7052 58.643 64.7771C58.3435 64.8266 58.2816 64.735 57.7618 64.7004C57.644 64.6919 57.5259 64.6894 57.4078 64.693C57.1803 64.696 56.9531 64.7109 56.7271 64.7375C56.4626 64.7637 56.2003 64.8092 55.9425 64.8737C57.2692 64.1979 57.445 63.1756 56.893 62.9331C56.893 62.9331 58.4623 61.7425 57.2865 61.0469C57.2865 61.0469 59.1875 58.7846 57.0415 59.4925C56.8631 59.5536 56.6933 59.6377 56.5365 59.7425C56.4697 59.7846 56.393 59.8365 56.3063 59.891L56.0514 59.2425V59.24C56.5539 58.5568 56.8905 57.8662 56.2247 57.8341C55.9719 57.8271 55.7247 57.9095 55.5266 58.0667C55.3732 58.1831 55.1529 58.3464 54.8756 58.5346L54.3138 57.9553C54.1854 57.7466 54.1067 57.5112 54.0836 57.2672C54.0733 56.9981 54.1191 56.7298 54.2179 56.4792C54.3168 56.2287 54.4666 56.0014 54.6578 55.8118C55.0106 55.4381 55.462 55.1721 55.9598 55.0445C56.3503 54.8934 56.7719 54.8407 57.1875 54.891C57.2568 54.9034 57.3311 54.9182 57.4078 54.938C57.6504 54.995 57.9004 55.0791 58.0291 55.1212C58.2481 55.2205 58.481 55.2856 58.7197 55.3143C59.0316 55.3291 59.1182 55.2351 59.2544 55.3143C59.4252 55.4083 59.3979 55.6063 59.5242 56.0791C59.6504 56.5469 59.7544 56.943 60.0217 57.037C60.2222 57.1063 60.3311 56.943 60.5588 57.037C60.7073 57.0989 60.7073 57.188 60.94 57.4207C61.1454 57.6237 61.2494 57.7251 61.4004 57.7648C61.5443 57.7976 61.6949 57.7858 61.8319 57.731C61.969 57.6762 62.0862 57.5809 62.1677 57.4578C62.1974 57.4058 62.2519 57.2969 62.2048 56.8464C62.1479 56.2771 62.1207 55.9925 61.9375 55.8118C61.7148 55.5915 61.5415 55.7524 61.0167 55.5816C60.4152 55.386 60.4598 55.1138 59.7915 54.8539C59.3435 54.6806 59.2247 54.7623 58.8732 54.5469C58.5885 54.3737 58.2271 54.0519 58.2964 53.8563C58.3732 53.6484 58.8682 53.8093 59.0638 53.5123C59.2172 53.2821 59.0044 53.0568 59.1776 52.745C59.2791 52.5667 59.4895 52.396 59.638 52.4405C59.8014 52.4875 59.7395 52.7524 59.9449 53.0915C60.1352 53.3814 60.4191 53.5972 60.7494 53.7029C60.9994 53.7945 61.3088 53.9083 61.5539 53.7425C61.7717 53.5965 61.893 53.2623 61.7841 53.0915C61.643 52.8712 61.2148 53.0593 61.0935 52.8613C61.0735 52.8138 61.0634 52.7628 61.0638 52.7113C61.0643 52.6598 61.0752 52.6089 61.0959 52.5618C61.1279 52.4522 61.1864 52.3521 61.2663 52.2705C61.3462 52.1889 61.4449 52.1283 61.5539 52.094C61.6801 52.0742 61.8088 52.1212 62.5514 52.745C62.591 52.7796 62.6306 52.8118 62.6652 52.8415L62.6677 52.844C63.0613 53.1781 63.1331 53.2524 63.2791 53.245C63.3276 53.2419 63.3752 53.231 63.4202 53.2128C63.4985 53.18 63.5705 53.1339 63.6331 53.0766C63.8082 52.906 63.9478 52.7024 64.044 52.4776C64.1702 52.1855 64.1207 52.0667 64.1974 52.0172C64.3757 51.9034 65.0118 52.2846 65.6801 52.9702C65.8674 53.28 66.036 53.6007 66.1851 53.9306C66.6708 54.9851 66.961 56.119 67.0415 57.2771C67.0489 57.3885 67.0539 57.5024 67.0588 57.6162C67.0613 57.7276 67.0638 57.8415 67.0638 57.9553ZM38.8165 7C38.955 7.56306 39.0615 8.13351 39.1355 8.70861C39.2173 9.27996 39.2701 9.85344 39.3174 10.4273C39.3555 11.0019 39.3873 11.5769 39.3905 12.1541C39.4018 12.7339 39.3799 13.3138 39.325 13.8911C39.1858 13.3281 39.0791 12.7577 39.0052 12.1825C38.9236 11.6112 38.8707 11.0377 38.824 10.4637C38.7866 9.88913 38.7547 9.31409 38.7517 8.73693C38.7405 8.15719 38.7621 7.57729 38.8165 7ZM42.3855 14.3663C42.5176 13.7794 42.6816 13.2001 42.8769 12.6311C43.0635 12.0619 43.2771 11.5035 43.4958 10.9472C43.7231 10.3944 43.9561 9.84383 44.2159 9.30408C44.4694 8.75845 44.7529 8.22724 45.065 7.71287C44.9335 8.29997 44.7697 8.87936 44.5743 9.44839C44.3875 10.0175 44.174 10.5759 43.9547 11.132C43.7269 11.6846 43.4938 12.2351 43.2339 12.7748C42.9803 13.3204 42.6971 13.8517 42.3855 14.3663ZM33.3928 8.30693C33.6992 8.76944 33.978 9.24966 34.2276 9.74509C34.4833 10.2343 34.7124 10.7351 34.9363 11.238C35.1518 11.7447 35.3616 12.2539 35.5449 12.7745C35.7369 13.295 35.8976 13.8266 36.0261 14.3663C35.7192 13.9041 35.4402 13.424 35.1906 12.9285C34.9351 12.4392 34.706 11.9384 34.4826 11.4352C34.2677 10.9283 34.0579 10.4192 33.8747 9.89846C33.6828 9.37792 33.5219 8.84648 33.3928 8.30693ZM10.3399 48.5478C10.1185 48.4915 9.89306 48.452 9.66564 48.4299C9.55801 48.4162 9.44868 48.4272 9.34588 48.4619C9.24855 48.4971 9.27925 48.604 9.33311 48.697C9.4588 48.8827 9.60928 49.0504 9.78036 49.1953C9.94721 49.3488 10.1241 49.495 10.3038 49.6321C10.32 49.6445 10.3306 49.6627 10.3333 49.6829C10.336 49.7031 10.3306 49.7235 10.3182 49.7396C10.3099 49.7502 10.299 49.7585 10.2866 49.7636C10.2741 49.7688 10.2606 49.7707 10.2472 49.7691C9.77892 49.7172 9.33772 49.5233 8.98276 49.2134C8.80285 49.058 8.65351 48.8704 8.54243 48.6603C8.48378 48.5512 8.44192 48.4339 8.41826 48.3124C8.40453 48.2417 8.40598 48.1689 8.42249 48.0989C8.43466 48.054 8.45685 48.0124 8.48738 47.9773C8.49683 47.9601 8.50567 47.9543 8.51978 47.9276C8.72636 47.5517 8.90258 47.1266 9.08194 46.7189L9.60862 45.4784C9.78524 45.0639 9.96412 44.6544 10.1156 44.2349C10.2714 43.8154 10.3979 43.3904 10.5443 42.9615L10.9738 41.679C11.1199 41.2527 11.2988 40.8379 11.4596 40.4172C12.1029 38.7312 12.9266 37.1198 13.9165 35.611C14.4163 34.8539 15.0063 34.1604 15.6734 33.5458C15.7577 33.4694 15.8397 33.3905 15.9259 33.3161L16.1959 33.106C16.3749 32.9637 16.5625 32.8325 16.7575 32.713C17.1491 32.4571 17.5819 32.2708 18.0369 32.1622L18.0115 32.1683C18.7851 31.9379 19.583 31.7992 20.3889 31.755C21.186 31.6902 21.9844 31.6695 22.7813 31.6688C23.5784 31.6691 24.3748 31.6846 25.1705 31.7153C25.9662 31.7529 26.76 31.8007 27.5549 31.8656L27.4715 31.8939C27.779 31.5789 28.0626 31.2413 28.3198 30.884L28.7172 30.3451C28.8443 30.148 29.011 29.9796 29.2068 29.8506C29.6137 29.6189 30.0921 29.5465 30.5492 29.6476C30.9958 29.7277 31.4212 29.8985 31.7992 30.1494C31.8007 30.1504 31.802 30.1517 31.803 30.1532C31.804 30.1547 31.8047 30.1563 31.8051 30.1581C31.8055 30.1599 31.8055 30.1617 31.8051 30.1635C31.8048 30.1652 31.8041 30.1669 31.8031 30.1684C31.8009 30.1713 31.7977 30.1733 31.7942 30.174C31.7906 30.1747 31.7869 30.1741 31.7838 30.1722C31.4017 29.9442 30.9771 29.7968 30.5359 29.739C30.1054 29.6659 29.663 29.7488 29.2883 29.973C29.1129 30.0971 28.9656 30.2569 28.8562 30.4418L28.4747 30.997C28.2211 31.3754 27.9356 31.7315 27.6215 32.0613C27.6115 32.0712 27.5996 32.0789 27.5865 32.0838C27.5734 32.0888 27.5594 32.0909 27.5454 32.0901L27.5379 32.0897C26.7474 32.0413 25.9534 32.0097 25.1608 31.9885C24.3679 31.9634 23.575 31.9503 22.7826 31.9541C21.99 31.9563 21.1988 31.9888 20.4107 32.0382C19.6274 32.0719 18.8506 32.197 18.0963 32.4107L18.0796 32.415L18.0708 32.4168C17.6498 32.519 17.2473 32.6866 16.8782 32.9135C16.6868 33.0243 16.5024 33.1467 16.326 33.2801L16.0584 33.4778C15.9727 33.5482 15.8906 33.6234 15.8065 33.696C15.635 33.838 15.4719 33.9899 15.318 34.1508C15.165 34.3128 15.0018 34.4658 14.8565 34.6353C14.5723 34.9798 14.2748 35.3149 14.0251 35.6875C12.9964 37.161 12.1685 38.765 11.5634 40.4572C11.4169 40.8818 11.2525 41.2997 11.121 41.729L10.7343 43.0189C10.6024 43.4454 10.4905 43.8888 10.3331 44.3132C10.1833 44.7416 10.0059 45.1588 9.83414 45.5735C9.66295 45.9899 9.47913 46.401 9.29694 46.8132C9.10851 47.2258 8.93691 47.6328 8.70497 48.0427C8.68595 48.0738 8.66441 48.1033 8.64057 48.1309C8.64214 48.1448 8.63046 48.1355 8.6302 48.158C8.62208 48.1978 8.62182 48.2387 8.62944 48.2786C8.64835 48.3782 8.68185 48.4745 8.72887 48.5644C8.82734 48.7537 8.95767 48.9246 9.11415 49.0697C9.43355 49.3652 9.8356 49.556 10.2665 49.6167L10.2099 49.7537C10.0287 49.6065 9.85551 49.4542 9.68901 49.2914C9.51614 49.1308 9.3671 48.9462 9.24639 48.7434C9.21526 48.6863 9.19683 48.6232 9.19237 48.5583C9.19247 48.5213 9.20397 48.4851 9.22531 48.4548C9.24665 48.4244 9.27681 48.4014 9.31168 48.3888C9.4282 48.3532 9.55152 48.3458 9.67146 48.3672C9.90027 48.4013 10.1261 48.4527 10.3471 48.5212C10.3488 48.5217 10.3505 48.5226 10.3519 48.5237C10.3533 48.5248 10.3545 48.5262 10.3553 48.5278C10.3562 48.5294 10.3568 48.5311 10.357 48.5329C10.3572 48.5347 10.357 48.5365 10.3565 48.5383C10.3555 48.5417 10.3532 48.5446 10.3501 48.5463C10.347 48.5481 10.3434 48.5486 10.3399 48.5478Z" fill="currentColor"/>
<path d="M57.6078 60.5799C57.7167 60.4185 57.814 60.2496 57.899 60.0743C57.9406 59.9881 57.9739 59.898 57.9983 59.8054C58.0269 59.7201 58.0284 59.628 58.0028 59.5418C57.9853 59.5043 57.9575 59.4726 57.9227 59.4502C57.888 59.4278 57.8476 59.4156 57.8062 59.4151C57.714 59.4046 57.6207 59.4076 57.5293 59.424C57.3404 59.4583 57.1553 59.5108 56.9765 59.5807C56.7995 59.6557 56.6315 59.7503 56.4756 59.8628C56.3126 59.9725 56.1457 60.0778 55.977 60.1803C55.8077 60.282 55.6366 60.3813 55.4589 60.4713C55.2791 60.57 55.0871 60.6444 54.8878 60.6926C54.8694 60.6964 54.8502 60.6942 54.8331 60.6863C54.8159 60.6785 54.8018 60.6654 54.7926 60.6489C54.7834 60.6325 54.7796 60.6135 54.7819 60.5948C54.7842 60.5761 54.7924 60.5586 54.8052 60.5449L54.8094 60.5405C55.2221 60.1107 55.6068 59.6548 55.9612 59.1757L55.9392 59.2425L55.9391 59.24C55.9388 59.2171 55.9458 59.1947 55.9591 59.1761L55.9608 59.1736C56.0707 59.0191 56.1755 58.8614 56.2677 58.6999C56.3613 58.5491 56.4285 58.3834 56.4664 58.21C56.4897 58.0411 56.4354 57.99 56.264 57.9657C56.0963 57.9514 55.9279 57.9856 55.7792 58.0645C55.7013 58.1055 55.6279 58.1544 55.5601 58.2104C55.4828 58.271 55.4043 58.3281 55.3255 58.3842C55.1671 58.4961 55.0132 58.6136 54.8509 58.721C54.5287 58.9383 54.1995 59.1446 53.8602 59.3356C53.1817 59.7272 52.4587 60.036 51.7066 60.2555C51.3235 60.3611 50.9307 60.4276 50.5342 60.4541C50.1298 60.4753 49.7246 60.435 49.3322 60.3348C49.3028 60.3269 49.2757 60.3118 49.2535 60.2909C49.2313 60.27 49.2147 60.2439 49.205 60.215C49.1954 60.1861 49.1931 60.1552 49.1984 60.1251C49.2037 60.0951 49.2163 60.0669 49.2352 60.0429L49.2382 60.0393L50.178 58.8622L50.6396 58.2828C50.6595 58.2544 50.6728 58.2219 50.6783 58.1877C50.6838 58.1535 50.6815 58.1184 50.6716 58.0852C50.6627 58.0539 50.6468 58.0251 50.6249 58.001C50.6116 57.9873 50.5972 57.9747 50.5818 57.9635C50.569 57.954 50.5552 57.9461 50.5405 57.9398C50.5042 57.9251 50.4651 57.9185 50.4259 57.9204C50.3772 57.9183 50.3077 57.9192 50.2508 57.9203C50.1312 57.9231 50.012 57.9318 49.8934 57.9455C49.6555 57.9724 49.421 58.0241 49.1937 58.0997C49.0801 58.1395 48.9686 58.1739 48.8531 58.2173C48.743 58.2609 48.6348 58.3106 48.5287 58.3652L47.8657 58.7223C47.8385 58.737 47.808 58.7448 47.7771 58.745L47.7717 58.745H47.7693L47.8622 58.7228C46.6141 59.3463 45.3547 59.8967 44.167 60.5832L43.7201 60.8436C43.2507 61.1177 42.7385 61.3109 42.205 61.415C41.8512 61.4862 41.4911 61.5211 41.1302 61.5192C40.764 61.5166 40.4225 61.4732 40.0787 61.448L35.945 61.1021L31.8126 60.7393C29.0576 60.501 26.3024 60.2583 23.5461 60.0472L22.5127 59.9794C22.3397 59.9677 22.1695 59.962 21.9998 59.9572C21.8973 59.9591 21.796 59.9355 21.7049 59.8885C21.6185 59.8388 21.544 59.7708 21.4868 59.6891C21.2972 59.3824 21.1735 59.0395 21.1237 58.6823C21.0625 58.3386 21.0209 57.9916 20.999 57.6432C20.9287 56.2574 20.9531 54.8684 21.0722 53.486L21.1264 53.5654C20.1748 53.2729 19.224 52.9723 18.2996 52.5987C17.3714 52.235 16.4624 51.8243 15.576 51.368C14.69 50.9114 13.8267 50.4113 12.9702 49.9097C12.1134 49.413 11.2488 48.9153 10.3099 48.6594L10.4728 48.5359C10.4746 51.2745 10.5325 54.0129 10.6464 56.7512C10.7059 58.119 10.7818 59.486 10.8939 60.8487C10.9181 61.1898 10.9522 61.5296 10.9841 61.8697C11.014 62.2101 11.0494 62.5496 11.0904 62.8882C11.1296 63.2278 11.16 63.5691 11.2226 63.8893C11.2834 64.2135 11.3734 64.5314 11.4916 64.8393C11.9815 66.077 12.8697 67.1163 14.0161 67.7928C14.5844 68.1351 15.1984 68.3948 15.8398 68.5641C16.1606 68.6495 16.4865 68.7138 16.8157 68.7564C17.1471 68.7973 17.4927 68.8244 17.8305 68.8591L18.8494 68.9568L19.8708 69.0229C20.5513 69.076 21.2336 69.0906 21.9153 69.1183C22.597 69.1495 23.2797 69.1369 23.9619 69.1485C24.6439 69.1318 25.3267 69.1341 26.0081 69.0976C28.7367 68.9863 31.4538 68.6801 34.1388 68.1813C35.4789 67.9326 36.8269 67.6489 38.1831 67.4234C39.539 67.1937 40.898 67.0011 42.2576 66.8168C44.9763 66.4445 47.7002 66.1284 50.4196 65.789C51.778 65.615 53.1392 65.4445 54.4824 65.2036L54.982 65.1026C55.149 65.0697 55.3041 65.0153 55.4663 64.973C55.6212 64.9122 55.7748 64.8449 55.9269 64.7753C56.076 64.6998 56.2197 64.6141 56.3572 64.519C56.6323 64.3355 56.8583 64.0875 57.0155 63.7966C57.0908 63.6567 57.1246 63.4981 57.1127 63.3397C57.1059 63.2651 57.0798 63.1935 57.037 63.1321C56.9941 63.0707 56.936 63.0215 56.8683 62.9893C56.8591 62.9851 56.8511 62.9787 56.845 62.9706C56.8388 62.9626 56.8348 62.9531 56.8331 62.9431C56.8315 62.9331 56.8323 62.9229 56.8355 62.9133C56.8388 62.9037 56.8443 62.895 56.8516 62.8881L56.8556 62.8844C57.0038 62.7619 57.1453 62.6315 57.2795 62.4937C57.4097 62.3535 57.5179 62.1943 57.6002 62.0215C57.6427 61.9391 57.6685 61.849 57.6761 61.7565C57.6837 61.664 57.6729 61.5709 57.6444 61.4826C57.5691 61.3085 57.4374 61.1647 57.2705 61.0744C57.2668 61.0723 57.2637 61.0694 57.2612 61.066C57.2587 61.0626 57.2569 61.0588 57.2558 61.0547C57.2548 61.0506 57.2546 61.0463 57.2552 61.0421C57.2559 61.0379 57.2573 61.0339 57.2595 61.0303L57.2621 61.0265L57.6078 60.5799L57.6091 60.5783C57.613 60.5732 57.6189 60.5698 57.6253 60.5689C57.6318 60.5681 57.6383 60.5698 57.6435 60.5737C57.6487 60.5776 57.6521 60.5834 57.6531 60.5898C57.654 60.5963 57.6524 60.6028 57.6485 60.6081L57.3111 61.0674L57.3028 61.0195C57.4861 61.1136 57.6323 61.2668 57.7176 61.4543C57.7523 61.5522 57.7674 61.6559 57.7619 61.7596C57.7565 61.8633 57.7306 61.9649 57.6858 62.0586C57.6039 62.2429 57.4943 62.4135 57.3609 62.5647C57.2253 62.7117 57.0817 62.8509 56.9305 62.9817L56.9178 62.8769C57.0064 62.9163 57.0834 62.9781 57.1411 63.0561C57.1989 63.1341 57.2355 63.2257 57.2473 63.322C57.2671 63.5068 57.2333 63.6934 57.1502 63.8596C56.9891 64.179 56.752 64.4539 56.4597 64.6602C56.3179 64.7638 56.1691 64.8576 56.0145 64.9409C55.8575 65.018 55.698 65.0927 55.5363 65.1607C55.3684 65.2099 55.1999 65.2724 55.0315 65.31L54.5259 65.4248C53.1745 65.6914 51.8167 65.885 50.4593 66.0829L42.3153 67.2255C40.9602 67.4239 39.6063 67.6304 38.2614 67.873C37.5878 67.9864 36.9186 68.1316 36.2484 68.2617C35.5787 68.4 34.9055 68.5435 34.2293 68.6691C31.5221 69.1784 28.782 69.4935 26.0298 69.612C23.2775 69.7361 20.5197 69.6527 17.7798 69.3626C17.4361 69.3252 17.0982 69.297 16.7496 69.252C16.3991 69.2044 16.0522 69.1339 15.7109 69.0408C15.0259 68.8555 14.3706 68.5737 13.7649 68.2038C12.5335 67.466 11.5831 66.3389 11.0638 65.0007C10.9383 64.6675 10.8431 64.3237 10.7794 63.9734C10.7133 63.6201 10.6849 63.2774 10.6486 62.936C10.6113 62.5935 10.5799 62.2509 10.5546 61.9081C10.5269 61.5653 10.497 61.2227 10.477 60.8798C10.3821 59.5086 10.3236 58.1367 10.2816 56.7648C10.199 54.0208 10.1765 51.2769 10.2143 48.5332L10.2143 48.5307C10.2146 48.5139 10.2181 48.4974 10.2247 48.482C10.2313 48.4666 10.2409 48.4527 10.2528 48.441C10.2648 48.4293 10.279 48.4201 10.2946 48.4139C10.3101 48.4077 10.3267 48.4046 10.3435 48.4048C10.3549 48.405 10.3662 48.4067 10.3772 48.4098C11.3604 48.6933 12.2292 49.2139 13.0807 49.7221C13.9333 50.2346 14.7802 50.7495 15.66 51.2064C16.5388 51.6644 17.4404 52.0772 18.3613 52.4434C19.2786 52.8195 20.2234 53.1234 21.1696 53.4195C21.1862 53.4248 21.2007 53.4354 21.2105 53.4499C21.2203 53.4643 21.225 53.4816 21.2238 53.4991C21.1055 54.8731 21.0876 56.2539 21.1703 57.6305C21.194 57.9721 21.2371 58.3121 21.2992 58.6488C21.3471 58.9778 21.4613 59.2936 21.6349 59.5771C21.6768 59.6373 21.7314 59.6875 21.7949 59.7241C21.8581 59.756 21.9285 59.7712 21.9992 59.7681C22.1751 59.7717 22.3505 59.7765 22.5225 59.787L23.5595 59.845C26.3216 60.0097 29.0804 60.2041 31.8397 60.3979L35.9778 60.6949L40.1137 61.0193C40.4593 61.0432 40.8057 61.0839 41.1314 61.0837C41.4625 61.0837 41.7927 61.05 42.1169 60.9829C42.4403 60.916 42.7559 60.8156 43.0586 60.6835C43.2096 60.6174 43.357 60.5433 43.5001 60.4613L43.9509 60.2025C45.1642 59.5117 46.4473 58.9607 47.6764 58.3563L47.6793 58.3548C47.7073 58.3412 47.7381 58.3341 47.7693 58.334H47.7718L47.6779 58.3568L48.3439 58.0037C48.4614 57.9441 48.582 57.8896 48.7058 57.8415C48.8256 57.7971 48.9542 57.7573 49.0781 57.7155C49.3286 57.6346 49.5867 57.5798 49.8484 57.5517C49.9795 57.5374 50.111 57.5287 50.2426 57.5264C50.3112 57.5258 50.3674 57.5248 50.4441 57.5281C50.5309 57.5288 50.6167 57.5467 50.6966 57.5807C50.7396 57.5996 50.7802 57.6234 50.8176 57.6518C50.8526 57.678 50.8851 57.7074 50.9147 57.7396C50.9772 57.8093 51.0225 57.8926 51.047 57.983C51.0713 58.0711 51.0758 58.1634 51.0602 58.2535C51.0446 58.3435 51.0093 58.429 50.9568 58.5038L50.4764 59.1004L49.5282 60.2724L49.4341 59.977C49.7878 60.0693 50.1528 60.11 50.5181 60.098C50.8901 60.0787 51.2591 60.0219 51.6197 59.9286C52.3496 59.7275 53.0528 59.4398 53.7143 59.0716C54.0485 58.8904 54.3748 58.693 54.6938 58.4852C54.8541 58.3828 55.0079 58.2691 55.1654 58.1615C55.2442 58.1074 55.3222 58.0526 55.3971 57.9956C55.4792 57.9308 55.5675 57.8745 55.6609 57.8274C55.8562 57.7285 56.076 57.6882 56.2937 57.7115C56.4233 57.7204 56.5445 57.7787 56.6324 57.8742C56.6715 57.9271 56.6987 57.9878 56.7122 58.0522C56.7256 58.1166 56.725 58.1831 56.7105 58.2473C56.6657 58.4503 56.5854 58.6439 56.4734 58.8192C56.3719 58.9875 56.2613 59.1501 56.1421 59.3064L56.1638 59.24L56.1638 59.2425L56.1637 59.2458C56.1635 59.2688 56.1558 59.2911 56.1417 59.3093C55.7698 59.7873 55.3674 60.2409 54.9372 60.6672L54.8587 60.5151C55.2262 60.41 55.5769 60.2535 55.9006 60.0503C56.0697 59.9532 56.2373 59.8533 56.4025 59.748C56.5681 59.635 56.7459 59.5409 56.9324 59.4674C57.121 59.3987 57.3158 59.3487 57.5141 59.318C57.6165 59.3031 57.7206 59.3035 57.8229 59.3191C57.88 59.3238 57.9346 59.3442 57.9808 59.3779C58.027 59.4117 58.063 59.4575 58.0849 59.5104C58.1144 59.614 58.1106 59.7243 58.0739 59.8256C58.0453 59.9219 58.0074 60.0153 57.9608 60.1043C57.8688 60.2794 57.7645 60.4478 57.6485 60.6081C57.6448 60.6134 57.6391 60.6169 57.6327 60.618C57.6263 60.6191 57.6197 60.6177 57.6143 60.614C57.609 60.6103 57.6053 60.6047 57.6041 60.5983C57.6029 60.5919 57.6042 60.5853 57.6078 60.5799Z" fill="currentColor"/>
<path d="M54.951 60.7173C54.5776 60.9361 54.2009 61.1379 53.8133 61.3233C53.43 61.5151 53.0285 61.6683 52.6148 61.7806C53.0106 61.626 53.3901 61.4323 53.7475 61.2024C54.1077 60.9798 54.4597 60.7391 54.7973 60.4889L54.7992 60.4875C54.8286 60.4658 54.8654 60.4567 54.9015 60.4621C54.9377 60.4675 54.9702 60.487 54.9919 60.5163C55.0137 60.5457 55.0229 60.5825 55.0176 60.6186C55.0122 60.6548 54.9927 60.6873 54.9634 60.7091C54.9594 60.7121 54.9553 60.7148 54.951 60.7173ZM57.3684 61.1588C56.7286 61.594 56.0808 62.0114 55.4165 62.4052C55.0839 62.6007 54.7488 62.7927 54.4024 62.9637C54.2305 63.0519 54.0542 63.1312 53.8741 63.2013C53.785 63.2389 53.6932 63.2696 53.5994 63.2932C53.5068 63.3202 53.411 63.335 53.3145 63.3372C53.4101 63.3294 53.5043 63.309 53.5946 63.2767C53.686 63.2478 53.775 63.212 53.8608 63.1696C54.035 63.0895 54.2049 63.0005 54.3699 62.9031C54.703 62.7131 55.0245 62.5026 55.343 62.2888C55.9785 61.859 56.5994 61.4043 57.2056 60.9368L57.2069 60.9359C57.2358 60.9135 57.2724 60.9036 57.3086 60.9083C57.3449 60.913 57.3777 60.9319 57.4 60.9608C57.4224 60.9897 57.4323 61.0264 57.4276 61.0626C57.4229 61.0988 57.404 61.1317 57.3751 61.154L57.3684 61.1588ZM56.9817 63.0395C56.7321 63.2221 56.47 63.387 56.1974 63.533C55.9291 63.6797 55.6525 63.8106 55.3689 63.9251C54.8062 64.1563 54.2174 64.3183 53.6155 64.4073C54.2037 64.2744 54.7734 64.0703 55.3122 63.7996C55.5806 63.6669 55.8409 63.5186 56.0919 63.3554C56.3415 63.1963 56.5797 63.0202 56.805 62.8284L56.8094 62.8246C56.8231 62.8127 56.8389 62.8035 56.8561 62.7978C56.8734 62.792 56.8915 62.7896 56.9096 62.7909C56.9277 62.7921 56.9454 62.797 56.9616 62.8051C56.9779 62.8132 56.9924 62.8244 57.0042 62.8381C57.0161 62.8518 57.0252 62.8678 57.0309 62.885C57.0366 62.9022 57.0389 62.9204 57.0375 62.9385C57.0362 62.9566 57.0313 62.9743 57.0231 62.9905C57.015 63.0067 57.0037 63.0211 56.9899 63.0329C56.9873 63.0352 56.9844 63.0375 56.9817 63.0395ZM50.2865 52.6928C50.2661 52.6928 50.2459 52.6877 50.2279 52.6781C50.2099 52.6684 50.1946 52.6545 50.1833 52.6375L49.1146 51.0232C49.1056 51.0097 49.0994 50.9945 49.0963 50.9785C49.0932 50.9626 49.0932 50.9461 49.0965 50.9302C49.0997 50.9143 49.106 50.8991 49.1151 50.8856C49.1242 50.8722 49.1359 50.8606 49.1494 50.8516C49.163 50.8426 49.1782 50.8364 49.1941 50.8333C49.2101 50.8302 49.2265 50.8302 49.2424 50.8335C49.2584 50.8367 49.2735 50.843 49.287 50.8521C49.3005 50.8612 49.3121 50.8729 49.321 50.8864L50.3897 52.5006C50.4078 52.528 50.4143 52.5615 50.4078 52.5936C50.4012 52.6258 50.3822 52.6541 50.3549 52.6723C50.3346 52.6858 50.3108 52.6929 50.2865 52.6928ZM55.7888 48.6582C55.7684 48.6582 55.7483 48.6531 55.7303 48.6435C55.7123 48.6338 55.6969 48.6199 55.6856 48.6029L54.6167 46.9886C54.6077 46.9751 54.6015 46.9599 54.5984 46.9439C54.5953 46.928 54.5953 46.9115 54.5986 46.8956C54.6018 46.8797 54.6082 46.8645 54.6172 46.851C54.6263 46.8375 54.638 46.826 54.6515 46.817C54.6651 46.808 54.6803 46.8018 54.6962 46.7987C54.7122 46.7956 54.7286 46.7956 54.7446 46.7989C54.7605 46.8021 54.7756 46.8084 54.7891 46.8175C54.8026 46.8266 54.8142 46.8383 54.8232 46.8518L55.8921 48.466C55.9044 48.4847 55.9115 48.5064 55.9126 48.5287C55.9136 48.5511 55.9086 48.5733 55.898 48.593C55.8874 48.6127 55.8716 48.6292 55.8524 48.6407C55.8332 48.6522 55.8112 48.6582 55.7888 48.6582Z" fill="currentColor"/>
</svg>
